<svg width="50" height="50" viewBox="0 0 50 50" fill="none" xmlns="http://www.w3.org/2000/svg">
<path d="M43.8203 47.71C42.2722 47.6189 40.776 47.6709 39.358 47.3847C37.9269 47.1115 36.5739 46.487 35.1038 46.0057C35.1038 47.0074 35.1298 47.9832 35.0908 48.9459C35.0778 49.2451 34.9477 49.5703 34.7526 49.8045C34.6485 49.9346 34.2452 49.9736 34.1151 49.8826C33.9069 49.7265 33.6858 49.4272 33.6727 49.18C33.6207 48.1653 33.6207 47.1375 33.6597 46.1228C33.6858 45.5894 33.5036 45.3682 32.9832 45.3552C31.6172 45.3292 30.2512 45.3032 28.8852 45.2902C28.7681 45.2902 28.625 45.3552 28.5469 45.4333C28.0916 46.0187 27.4671 46.0707 26.7906 46.0707C25.5157 46.0577 24.2277 46.0577 22.9528 46.0707C22.3673 46.0707 21.8339 45.9667 21.4306 45.4853C21.3396 45.3812 21.1834 45.2902 21.0533 45.2902C19.4922 45.2771 17.944 45.2771 16.3048 45.2771C16.3048 46.0577 16.3178 46.7863 16.3048 47.5278C16.2528 49.3101 14.7436 50.494 13.2475 49.7655C12.3629 49.3362 11.5953 48.9849 10.5675 49.115C10.1512 49.167 9.61783 48.7377 9.24055 48.4255C8.98035 48.2043 8.82423 48.1653 8.52501 48.2694C7.56229 48.5946 6.74268 48.3474 6.04016 47.6189C5.93608 47.5018 5.71492 47.4107 5.57181 47.4498C3.64638 47.8531 2.81376 47.3327 2.28036 45.2902C1.83803 45.2902 1.3957 45.2902 0.940361 45.2902C0.419974 45.2902 0.00366353 45.108 0.0166732 44.5356C0.0296829 43.9892 0.419974 43.8201 0.914342 43.8461C1.36968 43.8591 1.81201 43.8461 2.41046 43.8461C1.99415 40.7628 2.70968 37.9397 4.08871 35.1166C3.09997 35.1166 2.26735 35.1166 1.43473 35.1166C1.20056 35.1166 0.953371 35.1296 0.719197 35.1036C0.302886 35.0515 0.0166732 34.8174 0.0166732 34.388C0.0166732 33.9327 0.302886 33.6725 0.758226 33.6595C1.799 33.6465 2.83978 33.6205 3.88055 33.6595C4.38793 33.6725 4.59609 33.5034 4.6091 33.022C4.63511 31.63 4.66113 30.2509 4.67414 28.8589C4.67414 28.7678 4.6221 28.6377 4.54405 28.5857C3.91958 28.0913 3.88055 27.4148 3.89356 26.6993C3.90657 25.4244 3.86754 24.1364 3.91958 22.8614C3.93259 22.4712 4.01065 21.9768 4.25783 21.7296C4.66113 21.3393 4.68715 20.936 4.68715 20.4416C4.67414 19.1016 4.68715 17.7616 4.68715 16.3176C3.91958 16.3176 3.19104 16.3306 2.4625 16.3176C1.20056 16.2785 0.367935 15.6671 0.0817217 14.5873C-0.139443 13.7286 0.0947314 12.9871 0.706187 12.3886C0.966381 12.1415 1.03143 11.9593 0.914342 11.6211C0.5891 10.6844 0.862303 9.89078 1.53881 9.18826C1.6689 9.05816 1.73395 8.73292 1.68191 8.55078C1.3957 7.57506 1.60386 6.76846 2.3324 6.05292C2.44949 5.94884 2.55356 5.72768 2.52754 5.58457C2.15026 3.59409 2.65764 2.77448 4.67414 2.28011C4.67414 1.82477 4.67414 1.35642 4.67414 0.888075C4.67414 0.393707 4.8823 0.00341596 5.4157 0.00341596C5.94909 0.00341596 6.14424 0.380697 6.13123 0.888075C6.11822 1.34341 6.13123 1.78574 6.13123 2.3972C9.20152 1.9939 12.0246 2.69642 14.8477 4.07545C14.8477 3.08671 14.8477 2.25409 14.8477 1.42147C14.8477 1.1873 14.8347 0.940114 14.8607 0.705939C14.9128 0.26361 15.173 -0.0356131 15.6283 0.00341596C16.0576 0.0294353 16.2918 0.315649 16.2918 0.744968C16.3048 1.78574 16.3308 2.82652 16.2918 3.86729C16.2788 4.36166 16.4349 4.59584 16.9293 4.59584C18.3213 4.62186 19.7003 4.64788 21.0924 4.66089C21.1834 4.66089 21.3135 4.60885 21.3786 4.5438C21.8599 3.90632 22.5495 3.8803 23.252 3.89331C24.5269 3.90632 25.8149 3.86729 27.0898 3.91933C27.4801 3.93234 27.9745 4.0104 28.2217 4.25759C28.612 4.64788 29.0153 4.6869 29.5096 4.6869C30.8496 4.67389 32.1896 4.6869 33.6467 4.6869C33.6467 3.91933 33.6337 3.2038 33.6467 2.47526C33.6727 1.21332 34.2842 0.380697 35.364 0.0944838C36.2226 -0.139691 36.9642 0.0944838 37.5626 0.718949C37.8098 0.979143 37.979 1.0572 38.3302 0.940114C39.2669 0.614872 40.0605 0.875065 40.763 1.56458C40.9061 1.69468 41.2184 1.77273 41.4005 1.7207C42.4023 1.43448 43.2349 1.64264 43.9374 2.41021C44.0415 2.51429 44.2756 2.57933 44.4188 2.54031C46.2271 2.11099 47.2028 2.73545 47.6582 4.71292C48.1135 4.71292 48.5819 4.71292 49.0502 4.71292C49.5446 4.71292 49.9349 4.90807 49.9349 5.44147C49.9349 5.98787 49.5706 6.17001 49.0632 6.17001C48.6079 6.157 48.1655 6.17001 47.7102 6.17001C47.6191 7.70515 47.6582 9.21428 47.385 10.6584C47.1118 12.0894 46.4873 13.4424 46.0059 14.8995C47.0467 14.8995 48.0354 14.8995 49.0372 14.8995C49.4665 14.8995 49.8178 15.0296 49.9349 15.4849C50.052 15.9403 49.7137 16.3436 49.1543 16.3566C48.1395 16.3826 47.1118 16.3956 46.097 16.3566C45.6156 16.3436 45.3685 16.4607 45.3555 16.9811C45.3424 18.3731 45.3034 19.7521 45.2774 21.1442C45.2774 21.2352 45.3294 21.3653 45.3945 21.4304C46.058 21.9378 46.058 22.6403 46.058 23.3688C46.045 24.6308 46.097 25.8927 46.032 27.1416C46.0059 27.623 45.6937 28.0783 45.5116 28.5467C45.4465 28.7158 45.2904 28.8849 45.2904 29.041C45.2774 30.5632 45.2774 32.0723 45.2774 33.7115C45.9929 33.7115 46.6694 33.6985 47.3589 33.7115C48.6599 33.7245 49.5316 34.2709 49.8438 35.2987C50.13 36.2094 49.9088 37.029 49.2193 37.6665C48.9721 37.9007 48.9331 38.0698 49.0372 38.382C49.3624 39.3187 49.1153 40.1123 48.4257 40.8148C48.2956 40.9579 48.2046 41.2571 48.2566 41.4523C48.5428 42.454 48.3477 43.2867 47.5801 43.9892C47.476 44.0803 47.385 44.2754 47.411 44.4055C47.7622 46.487 47.3589 47.1375 45.2774 47.749C45.2774 48.2043 45.2774 48.6857 45.2774 49.154C45.2774 49.6354 45.0692 49.9867 44.5619 49.9997C44.0285 50.0127 43.8073 49.6484 43.8203 49.141C43.8333 48.6336 43.8203 48.1783 43.8203 47.71ZM20.0386 16.3306C20.0256 16.2655 20.0126 16.2135 19.9996 16.1484C18.9198 16.3956 17.8269 16.6558 16.7471 16.903C16.3829 16.9811 16.2918 17.2282 16.3048 17.5795C16.3178 18.6593 16.3048 19.7521 16.3178 20.8319C16.3178 21.0401 16.4609 21.2613 16.539 21.4694C16.7211 21.9378 17.0334 22.3931 17.0594 22.8614C17.1374 24.1754 17.0724 25.5024 17.0854 26.8294C17.0984 27.5059 17.0464 28.1304 16.4609 28.5857C16.3699 28.6508 16.3178 28.8069 16.3048 28.924C16.2788 30.381 16.2658 31.8251 16.8642 33.2041C17.0073 33.5294 17.1765 33.6725 17.5407 33.6595C18.6466 33.6335 19.7524 33.6595 20.8582 33.6465C21.0533 33.6465 21.3005 33.5554 21.4176 33.4253C21.8079 32.996 22.2763 32.8789 22.8227 32.8789C24.1627 32.8789 25.5157 32.8919 26.8557 32.8789C27.5062 32.8789 28.1176 32.9309 28.5599 33.4904C28.625 33.5814 28.7811 33.6465 28.8852 33.6465C30.3683 33.6855 31.8384 33.7115 33.2174 33.035C33.4126 32.944 33.6077 32.6447 33.6207 32.4236C33.6597 31.3177 33.6467 30.2119 33.6337 29.1061C33.6337 28.8979 33.4646 28.6898 33.3865 28.4816C33.2044 28.0393 32.9052 27.597 32.8922 27.1416C32.8271 25.7626 32.8792 24.3706 32.8661 22.9785C32.8661 22.3671 32.9442 21.8207 33.4646 21.4044C33.5687 21.3263 33.6467 21.1442 33.6467 21.0141C33.6858 19.557 33.6988 18.0999 33.0483 16.7469C32.9572 16.5517 32.658 16.3436 32.4498 16.3306C31.318 16.2915 30.1992 16.3046 29.0673 16.3176C28.8722 16.3176 28.69 16.4737 28.4949 16.5387C28.0526 16.7209 27.6102 17.0331 27.1549 17.0591C25.7108 17.1242 24.2537 17.0982 22.7966 17.0721C22.4584 17.0721 22.0031 17.0331 21.8209 16.8249C21.3135 16.2265 20.6891 16.2915 20.0386 16.3306ZM44.5619 22.5882C44.0545 22.5882 43.5861 22.6012 43.1178 22.5882C42.6364 22.5752 42.2591 22.4061 42.2722 21.8337C42.2852 21.3003 42.6494 21.1572 43.1048 21.1181C43.3259 21.1051 43.5601 21.0921 43.8333 21.0791C43.8333 20.4026 43.8463 19.8042 43.8333 19.1927C43.8073 17.6966 43.8203 16.2005 44.4057 14.7824C44.757 13.9368 45.0172 13.0651 45.3945 12.2455C46.5003 9.79971 46.149 7.22379 46.1621 4.6869C46.1621 4.19254 45.8368 3.78924 45.2904 3.82827C44.757 3.86729 44.5098 4.24458 44.5098 4.77797C44.5098 5.19428 44.5098 5.59758 44.5098 6.01389C44.5098 6.53428 44.3407 6.93758 43.7422 6.92457C43.1698 6.91156 43.0527 6.50826 43.0527 6.0269C43.0657 5.3504 43.0788 4.6869 43.0397 4.0104C43.0137 3.43797 42.6234 3.00865 42.1811 3.04768C41.6087 3.11273 41.3615 3.477 41.3745 4.03642C41.3745 4.49176 41.4005 4.9471 41.3615 5.40244C41.3224 5.98787 40.8411 6.33914 40.3857 6.09195C40.1646 5.96185 39.9694 5.61059 39.9434 5.33739C39.8784 4.62186 39.9434 3.90632 39.9044 3.19079C39.8784 2.61836 39.4491 2.20205 39.0067 2.2671C38.4863 2.35817 38.2261 2.69642 38.2392 3.22982C38.2392 3.64613 38.2392 4.04943 38.2392 4.46574C38.2392 4.9471 38.083 5.3504 37.5236 5.36341C36.9122 5.37642 36.7821 4.96011 36.7821 4.45273C36.7821 3.77623 36.7951 3.11273 36.7691 2.43623C36.743 1.8638 36.3658 1.43448 35.9104 1.48652C35.377 1.53856 35.1298 1.90283 35.1038 2.42322C35.0908 2.59234 35.1038 2.77448 35.1038 2.94361C35.1038 5.18127 35.1038 7.40593 35.1038 9.6436C35.1038 9.83874 35.1168 10.0339 35.0778 10.229C34.9997 10.6453 34.7395 10.8795 34.2972 10.8405C33.8809 10.8145 33.6727 10.5543 33.6597 10.164C33.6467 9.73466 33.6467 9.29233 33.6467 8.86302C33.6467 7.97836 33.6467 7.10671 33.6467 6.22205C32.632 6.2871 32.0465 6.8335 31.9945 7.70515C31.9685 8.22554 32.0075 8.74593 31.9815 9.26632C31.8644 11.2958 32.4108 13.1042 33.6207 14.7564C34.4403 15.8882 34.9347 17.1892 35.0388 18.6203C35.1038 19.4529 35.1298 20.2855 35.1819 21.1572C35.5331 21.1572 35.8324 21.1572 36.1316 21.1572C37.3415 21.1572 38.5644 21.1572 39.7743 21.1702C40.2556 21.1702 40.5809 21.4174 40.5809 21.9117C40.5809 22.3801 40.2557 22.5882 39.8003 22.6273C39.6312 22.6403 39.4491 22.6403 39.2799 22.6403C37.8749 22.6403 36.4568 22.6403 35.0518 22.6403C34.8306 22.6403 34.5964 22.6663 34.3753 22.6793C34.3753 24.2925 34.3753 25.8277 34.3753 27.3758C37.7968 27.3758 41.1793 27.3758 44.5879 27.3758C44.5619 25.7236 44.5619 24.2014 44.5619 22.5882ZM6.13123 28.8719C6.13123 29.5875 6.10521 30.2509 6.13123 30.9275C6.20929 32.6447 5.9621 34.284 5.29861 35.8841C4.81725 37.016 4.24482 38.1739 4.08871 39.3707C3.82851 41.3092 3.85453 43.2997 3.8155 45.2641C3.80249 45.7585 4.11473 46.1358 4.66113 46.1618C5.11647 46.1878 5.45472 45.7585 5.46773 45.1731C5.48074 44.7177 5.45473 44.2624 5.48074 43.807C5.51977 43.2736 5.85803 43.0004 6.33938 43.0655C6.79472 43.1436 6.92482 43.4558 6.92482 43.8721C6.92482 44.5876 6.8988 45.3032 6.93783 46.0187C6.96385 46.5911 7.39317 47.0204 7.8355 46.9424C8.35589 46.8513 8.61608 46.5131 8.60307 45.9797C8.60307 45.5634 8.60307 45.1601 8.60307 44.7437C8.60307 44.2624 8.74618 43.8591 9.3186 43.8461C9.93006 43.8331 10.0602 44.2494 10.0602 44.7568C10.0602 45.4463 10.0341 46.1488 10.0862 46.8383C10.1252 47.3327 10.3984 47.749 10.9448 47.71C11.4782 47.6839 11.7384 47.3197 11.7384 46.7733C11.7384 46.2919 11.7124 45.8236 11.7514 45.3422C11.7774 44.8999 11.9986 44.6006 12.493 44.6136C12.9873 44.6267 13.1825 44.9259 13.1955 45.3812C13.2085 45.9927 13.1955 46.5911 13.1955 47.2026C13.1955 48.0482 13.4947 48.5035 14.0411 48.5035C14.5745 48.5035 14.8607 48.0352 14.8607 47.1896C14.8607 44.8218 14.8607 42.467 14.8607 40.0993C14.8607 39.6049 14.9648 39.1626 15.5763 39.1496C16.2007 39.1366 16.3178 39.5659 16.3178 40.0733C16.3178 41.114 16.3178 42.1548 16.3178 43.1956C16.3178 43.4037 16.3438 43.5989 16.3699 43.8201C17.3456 43.6509 17.905 43.2086 17.957 42.441C18.1132 39.9302 18.0741 37.4583 16.4089 35.3117C15.5242 34.1669 15.0429 32.8008 14.9388 31.3438C14.8868 30.5242 14.8477 29.7176 14.8087 28.8589C14.3794 28.8589 13.9891 28.8589 13.5988 28.8589C12.4669 28.8589 11.3481 28.8589 10.2163 28.8589C9.73491 28.8589 9.40967 28.6117 9.40967 28.1174C9.40967 27.649 9.73491 27.4278 10.1772 27.4018C10.3464 27.3888 10.5285 27.3888 10.6976 27.3888C12.1027 27.3888 13.5207 27.3888 14.9258 27.3888C15.1469 27.3888 15.3811 27.3628 15.6023 27.3498C15.6023 25.7366 15.6023 24.2014 15.6023 22.6663C12.1807 22.6663 8.79822 22.6663 5.40269 22.6663C5.40269 24.2535 5.40269 25.7886 5.40269 27.3888C5.70191 27.3888 5.94909 27.3888 6.20929 27.3888C6.46948 27.3888 6.72967 27.3888 6.98987 27.4018C7.40618 27.4409 7.67938 27.636 7.69239 28.0913C7.7054 28.5727 7.41919 28.7939 6.96385 28.8459C6.70366 28.8589 6.45647 28.8589 6.13123 28.8719ZM43.8203 33.6465C43.6122 32.6187 43.1958 32.0593 42.4673 32.0203C39.9824 31.8641 37.5236 31.8642 35.39 33.5034C34.2061 34.4141 32.8141 34.9344 31.305 35.0385C30.4984 35.0906 29.6788 35.1166 28.8852 35.1556C28.8852 38.0698 28.8852 40.9319 28.8852 43.8331C29.6658 43.8331 30.3943 43.8591 31.1359 43.8331C32.736 43.768 34.2712 44.0022 35.7673 44.6267C36.8992 45.108 38.057 45.6935 39.2539 45.8496C41.2444 46.1098 43.2609 46.0707 45.2774 46.1618C45.3164 46.1618 45.3685 46.1488 45.4075 46.1358C45.8368 46.0057 46.1881 45.7585 46.149 45.2771C46.11 44.7828 45.7848 44.5096 45.2774 44.4966C44.8221 44.4836 44.3667 44.4966 43.9114 44.4836C43.417 44.4705 43.0527 44.2884 43.0657 43.729C43.0788 43.1956 43.43 43.0395 43.8984 43.0395C44.5879 43.0395 45.2904 43.0655 45.9799 43.0265C46.5003 43.0004 46.9166 42.7533 46.9426 42.1678C46.9687 41.7125 46.5393 41.3742 45.9539 41.3612C45.4986 41.3482 45.0432 41.3742 44.5879 41.3482C44.0285 41.3092 43.6642 40.8929 43.8854 40.4375C44.0024 40.1904 44.3797 39.9562 44.6529 39.9302C45.3554 39.8521 46.084 39.9302 46.7995 39.8911C47.372 39.8651 47.8013 39.4358 47.7232 39.0065C47.6452 38.4861 47.2939 38.2259 46.7605 38.2389C46.3442 38.2389 45.9409 38.2389 45.5246 38.2389C45.0432 38.2389 44.6399 38.0958 44.6269 37.5364C44.6009 36.9119 45.0302 36.7948 45.5376 36.7948C46.2271 36.7948 46.9296 36.8078 47.6191 36.7818C48.1395 36.7558 48.5038 36.4696 48.5038 35.9362C48.4908 35.4288 48.1265 35.1816 47.6452 35.1296C47.45 35.1166 47.2549 35.1166 47.0597 35.1166C44.8221 35.1166 42.5974 35.1166 40.3597 35.1166C40.1386 35.1166 39.8654 35.1816 39.7223 35.0645C39.4881 34.8694 39.2019 34.5702 39.2019 34.31C39.2019 34.1018 39.5531 33.7375 39.7873 33.7115C40.3988 33.6205 41.0362 33.6595 41.6737 33.6595C42.3502 33.6465 43.0527 33.6465 43.8203 33.6465ZM6.17026 16.3176C6.27434 17.2933 6.72967 17.8917 7.49725 17.9438C10.0081 18.0999 12.48 18.0739 14.6266 16.4216C15.7714 15.537 17.1244 15.0426 18.5945 14.9385C19.4141 14.8865 20.2207 14.8475 21.0533 14.8084C21.0533 11.9073 21.0533 9.04515 21.0533 6.13098C20.3768 6.13098 19.7394 6.11797 19.1149 6.13098C17.6838 6.157 16.2528 6.14399 14.8868 5.59758C14.0802 5.27234 13.2475 5.03817 12.4669 4.6739C9.95608 3.477 7.28909 3.81526 4.66113 3.81526C4.16677 3.81526 3.76346 4.1405 3.8155 4.69991C3.85453 5.23331 4.23181 5.4805 4.76521 5.46749C5.19453 5.46749 5.63686 5.45448 6.06618 5.46749C6.56055 5.4805 6.91181 5.68865 6.8988 6.23506C6.88579 6.76846 6.52152 6.91156 6.05317 6.91156C5.33764 6.91156 4.6221 6.88554 3.90657 6.92457C3.4122 6.95059 3.0089 7.2368 3.03492 7.78321C3.06094 8.31661 3.42521 8.5768 3.95861 8.5768C4.41395 8.5768 4.8823 8.52476 5.32463 8.60282C5.59783 8.65486 5.94909 8.85001 6.06618 9.08418C6.31336 9.55253 5.94909 10.0079 5.36366 10.0209C4.67414 10.0469 3.97162 10.0209 3.28211 10.0339C2.65764 10.0469 2.22832 10.4112 2.22832 10.8795C2.22832 11.3609 2.63162 11.6861 3.28211 11.6991C3.63337 11.7121 3.97162 11.6991 4.32288 11.6991C4.84327 11.6991 5.32463 11.7772 5.33764 12.4277C5.35065 13.0912 4.86929 13.1692 4.3489 13.1692C3.69842 13.1692 3.04793 13.1562 2.39745 13.1822C1.82502 13.2083 1.40871 13.5855 1.46075 14.0539C1.5258 14.5873 1.90308 14.8215 2.41046 14.8475C2.57958 14.8605 2.76172 14.8475 2.93084 14.8475C4.97337 14.8475 7.00288 14.8475 9.0454 14.8475C9.43569 14.8475 9.852 14.7694 10.2033 14.8995C10.4635 14.9906 10.7237 15.3288 10.7887 15.602C10.8798 15.9923 10.5805 16.2395 10.1772 16.2785C9.94307 16.3046 9.69589 16.3046 9.46171 16.3046C8.38191 16.3176 7.3021 16.3176 6.17026 16.3176ZM22.6275 5.38943C22.6275 8.81098 22.6275 12.1935 22.6275 15.589C24.2147 15.589 25.7629 15.589 27.311 15.589C27.311 12.1675 27.311 8.78496 27.311 5.38943C25.7238 5.38943 24.2017 5.38943 22.6275 5.38943ZM22.6275 34.349C22.6275 37.7836 22.6275 41.1661 22.6275 44.5616C24.2147 44.5616 25.7629 44.5616 27.324 44.5616C27.324 41.1401 27.324 37.7575 27.324 34.349C25.7368 34.349 24.2017 34.349 22.6275 34.349ZM30.7716 6.17001C30.1992 6.17001 29.5617 6.17001 28.8982 6.17001C28.8982 9.07117 28.8982 11.9333 28.8982 14.8084C29.8999 14.8084 30.8627 14.8084 31.8904 14.8084C30.1861 12.0634 30.3162 9.17525 30.7716 6.17001ZM43.7813 28.8979C40.8801 28.8979 38.018 28.8979 35.1428 28.8979C35.1428 29.9127 35.1428 30.8624 35.1428 31.9032C37.9009 30.1729 40.8151 30.329 43.7813 30.7713C43.7813 30.1989 43.7813 29.5614 43.7813 28.8979ZM14.8217 18.0479C12.0376 19.7651 9.12346 19.6611 6.17026 19.1797C6.17026 19.7651 6.17026 20.4156 6.17026 21.0531C9.07142 21.0531 11.9336 21.0531 14.8217 21.0531C14.8217 20.0513 14.8217 19.1147 14.8217 18.0479ZM21.0664 43.794C21.0664 40.8929 21.0664 38.0307 21.0664 35.1426C20.0646 35.1426 19.1019 35.1426 18.0611 35.1426C19.7524 37.9007 19.6613 40.8148 19.1669 43.794C19.7524 43.794 20.3899 43.794 21.0664 43.794Z" fill="#98C447"/>
</svg>
