<svg width="50" height="50" viewBox="0 0 50 50" fill="none" xmlns="http://www.w3.org/2000/svg">
<path d="M49.9861 25.0069C49.9861 38.7809 38.767 50 24.9931 50C11.2191 49.9861 0 38.767 0 24.9931C0 11.2191 11.233 0 25.0069 0C38.7809 0 50 11.2191 49.9861 25.0069ZM24.9792 46.6676C36.962 46.6815 46.6537 37.0036 46.6676 25.0069C46.6676 13.0242 36.9758 3.33241 24.9931 3.33241C13.038 3.34629 3.36018 13.0103 3.33241 24.9653C3.30464 36.9342 12.9964 46.6537 24.9792 46.6676Z" fill="#98C447"/>
<path d="M23.3269 14.7182C23.3269 14.2461 23.3131 13.8018 23.3269 13.3713C23.3686 12.3994 24.0767 11.6774 24.9932 11.6774C25.9096 11.6774 26.6177 12.3855 26.6594 13.3713C26.6732 13.8157 26.6594 14.2461 26.6594 14.5655C27.7007 15.0653 28.7282 15.4541 29.6169 16.0373C30.9637 16.912 31.6024 18.2589 31.6441 19.8695C31.6719 20.8693 31.0331 21.6052 30.1167 21.6746C29.2003 21.744 28.4089 21.1053 28.3394 20.1195C28.27 19.1753 27.7702 18.6338 26.9648 18.3144C25.6874 17.8007 24.3822 17.8007 23.1048 18.2866C22.355 18.5643 21.7579 19.0503 21.6885 19.9251C21.6191 20.8831 21.8274 21.7718 22.7438 22.2439C23.7018 22.7299 24.7293 23.0909 25.7291 23.5074C26.701 23.924 27.7285 24.2433 28.6449 24.7571C30.7832 25.9512 31.9357 28.3255 31.6163 30.6443C31.2553 33.1853 29.5474 34.4349 27.2703 35.1292C27.0898 35.1847 26.9093 35.2125 26.6594 35.2819C26.6594 35.7401 26.6732 36.1983 26.6594 36.6427C26.6316 37.6424 25.9512 38.3366 25.007 38.3366C24.0767 38.3366 23.3686 37.6563 23.3269 36.6704C23.2992 36.2122 23.3269 35.754 23.3269 35.4624C22.2717 34.9487 21.2581 34.5738 20.3833 34.0045C19.0642 33.1436 18.4255 31.8245 18.3422 30.2555C18.2867 29.1864 18.9254 28.3949 19.8973 28.3255C20.8554 28.27 21.5635 28.9087 21.6607 29.964C21.7302 30.6999 22.0634 31.2414 22.716 31.5607C24.1184 32.2689 25.5624 32.2689 27.0065 31.6996C27.7285 31.408 28.2561 30.9081 28.3117 30.0611C28.3672 29.1031 28.1173 28.2144 27.2009 27.7701C26.1734 27.2703 25.0765 26.8954 24.0073 26.4372C23.0492 26.0345 22.0495 25.7013 21.1748 25.1736C19.0642 23.9101 18.1895 21.9245 18.37 19.5363C18.5644 17.1481 20.0917 15.8012 22.2439 15.0514C22.5772 14.9404 22.9104 14.8432 23.3269 14.7182Z" fill="#98C447"/>
</svg>
