<svg width="191" height="208" viewBox="0 0 191 208" fill="none" xmlns="http://www.w3.org/2000/svg">
<path d="M187.159 38.002C192.48 30.9469 191.114 20.8098 183.426 16.4531C160.831 3.6487 134.61 -1.71286 108.547 1.39062C77.158 5.12836 48.429 20.8554 28.3664 45.2835C8.30378 69.7116 -1.53908 100.95 0.895678 132.467C2.91728 158.635 13.2733 183.314 30.2254 202.99C35.9933 209.684 46.2025 209.053 52.0888 202.463L64.535 188.527C70.4213 181.937 69.6671 171.897 64.5401 164.7C57.0247 154.149 52.4424 141.675 51.4294 128.563C50.002 110.086 55.7724 91.7726 67.5341 77.4516C79.2958 63.1306 96.1383 53.9106 114.54 51.7194C127.599 50.1643 140.726 52.2345 152.536 57.556C160.593 61.1861 170.588 59.9745 175.908 52.9195L187.159 38.002Z" fill="#98C447" fill-opacity="0.5"/>
</svg>
