<svg width="56" height="50" viewBox="0 0 56 50" fill="none" xmlns="http://www.w3.org/2000/svg">
<path d="M26.8372 29.812C26.8372 30.8667 26.795 31.9635 26.8583 33.0393C26.8794 33.2924 27.1536 33.6299 27.4067 33.7564C30.1277 35.1064 31.4987 37.2578 31.4776 40.3163C31.4565 43.1005 31.4776 45.8637 31.4776 48.648C31.4776 49.3229 31.4355 49.9979 30.5285 49.9557C29.6637 49.9346 29.5793 49.2597 29.5793 48.6058C29.5793 45.6106 29.5793 42.6365 29.5793 39.6413C29.5793 37.9328 28.4825 36.3719 26.8372 35.697C26.8372 36.625 26.8372 37.532 26.8372 38.439C26.8372 41.8772 26.8372 45.3364 26.8372 48.7745C26.8372 49.3862 26.7528 49.9346 25.9935 49.9768C25.192 50.019 24.96 49.4706 24.96 48.8167C24.96 42.2357 24.96 35.6759 24.96 29.0949C24.96 28.2301 25.3396 27.8293 26.2466 27.8293C28.0395 27.8504 29.3473 27.0278 30.2754 25.4669C30.8659 24.4756 31.7729 23.674 32.7221 22.5561C30.9081 22.8303 29.1996 23.0834 27.5122 23.3576C25.9935 23.5897 24.4748 23.8428 22.9561 24.0748C22.3444 24.1592 21.8171 23.8639 21.9015 23.2522C21.9648 22.8725 22.471 22.3874 22.8718 22.303C24.5381 21.9022 26.2044 21.5226 27.9129 21.3538C29.8535 21.1429 31.8151 21.1429 33.7768 21.0796C34.051 21.0585 34.3252 21.1007 34.4095 21.1218C34.051 19.7508 33.7346 18.3797 33.3338 17.0087C33.2705 16.7767 32.933 16.5868 32.6799 16.4814C31.0769 15.8064 30.0011 14.6674 29.748 12.9167C29.6637 12.3261 29.5793 11.5245 29.8957 11.1027C30.5917 10.1324 30.6128 9.03559 30.8449 7.95985C32.2581 1.25233 40.2734 -2.14362 46.0317 1.50544C46.5801 1.86402 47.0231 2.28588 46.6012 2.96085C46.1794 3.63582 45.6099 3.44598 45.0403 3.1085C40.3999 0.30315 34.4728 2.62336 32.8487 7.62237C32.6799 8.1075 32.5956 8.63482 32.4479 9.18324C33.3549 9.41526 34.0721 9.33089 34.747 8.7192C35.5064 8.04423 36.3712 7.49581 37.1938 6.88412C37.7633 6.46226 38.2484 6.46226 38.7758 6.96849C40.5898 8.65592 42.7412 9.39417 45.2302 9.3098C46.4536 9.26761 47.6769 9.3098 49.2167 9.3098C48.7105 8.06532 48.3308 6.9474 47.8246 5.89276C47.5293 5.28106 47.3395 4.75374 48.0355 4.35298C48.6472 4.01549 49.1745 4.2897 49.4066 4.90139C49.9339 6.3568 50.3979 7.85439 50.8831 9.35198C50.9674 9.6051 50.9463 9.92149 51.0729 10.1535C52.4861 12.5792 51.6424 15.2791 49.0269 16.3548C48.3941 16.6079 48.141 16.8821 48.0777 17.5993C47.9512 19.2234 47.2551 20.6367 46.1161 21.8179C46.0317 21.9022 45.9895 22.0288 46.095 22.3241C46.327 22.1342 46.6012 21.9866 46.77 21.7546C47.4238 20.8687 48.2676 20.4679 49.3855 20.4679C51.1151 20.489 52.8236 20.3624 54.1946 21.7757C55.7555 23.3998 55.9453 25.2138 54.722 27.07C54.5954 27.2598 54.5532 27.5129 54.5532 27.7239C54.5954 29.8331 54.6587 31.9213 54.7009 34.0306C54.722 34.6634 54.4688 35.1907 53.7728 35.2118C53.0134 35.2329 52.8025 34.6634 52.8025 33.9884C52.8025 31.9846 52.8025 30.0019 52.8025 27.8504C52.2963 27.8504 51.9377 27.8293 51.558 27.8504C50.1659 27.9137 49.1745 27.3864 48.3941 26.1841C47.8668 25.4036 47.1496 24.7076 46.3903 24.1592C45.9684 23.8428 45.4411 23.9482 45.1247 24.7287C43.8381 28.0824 39.8515 28.9051 37.4258 26.3528C37.0251 25.931 36.6454 25.4036 36.4977 24.8552C36.2657 24.0115 35.7384 23.9904 35.0634 24.117C33.9244 24.349 32.933 24.813 32.237 25.7833C30.1488 28.6519 30.1488 28.6519 26.8372 29.812ZM37.8899 8.6981C37.2782 9.14105 36.6876 9.64728 36.0337 10.048C35.4431 10.4277 35.2111 10.8707 35.2322 11.5878C35.2954 13.2963 35.2322 15.026 35.2533 16.7556C35.2744 19.4765 37.1727 21.7546 39.7671 22.1553C42.6147 22.5983 45.3989 21.1007 45.9473 18.3586C46.4114 16.0595 46.2426 13.6549 46.3692 11.3136C40.5054 10.491 40.5054 10.491 37.8899 8.6981ZM51.9588 26.1419C52.5072 25.9099 53.4564 25.7411 53.4986 25.4458C53.604 24.7709 53.4142 23.9271 53.0345 23.3154C52.4228 22.3241 49.6597 21.8179 48.6683 22.4295C48.4152 22.5983 48.141 23.0201 48.1832 23.2733C48.2254 23.5686 48.5839 23.8428 48.8581 24.0537C49.1745 24.3068 49.7651 24.4334 49.8284 24.7076C50.1026 25.931 50.8831 26.0786 51.9588 26.1419ZM43.4162 23.7795C42.5303 23.885 41.6444 24.0537 40.7796 24.0537C39.8937 24.0537 39.0078 23.885 38.1219 23.7795C38.4594 25.1505 39.3242 25.9099 40.6319 25.9521C42.003 25.9942 42.9311 25.2771 43.4162 23.7795ZM33.2916 14.583C33.2916 13.4018 33.2916 12.305 33.2916 11.2082C32.5323 11.1871 31.7518 10.9761 31.5198 11.9464C31.2878 12.8323 32.0682 14.0346 33.2916 14.583ZM48.2254 11.2292C48.2254 12.3683 48.2254 13.444 48.2254 14.5619C49.4698 14.0346 50.2714 12.7479 49.9761 11.862C49.6597 10.955 48.9003 11.1871 48.2254 11.2292Z" fill="#98C447"/>
<path d="M11.1444 24.117C10.0265 24.0116 9.14057 23.9272 8.48669 25.1084C8.04374 25.9099 7.22112 26.5849 6.44069 27.0911C5.76572 27.513 4.90091 27.7028 4.09938 27.8294C3.57206 27.9137 3.23457 27.9981 3.1502 28.5676C3.02365 29.3691 2.81272 30.1496 2.81272 30.9511C2.79162 36.7094 2.79162 42.4678 2.79162 48.2472C2.79162 48.5636 2.876 48.9222 2.74944 49.1753C2.5807 49.4917 2.22212 49.9558 1.969 49.9558C1.61042 49.9558 1.20966 49.5972 0.956546 49.2808C0.808896 49.0699 0.893267 48.6691 0.893267 48.3527C0.893267 42.8053 0.872175 37.2579 0.91436 31.6893C0.935453 30.2972 1.16747 28.9262 1.31512 27.4286C0.0495535 26.3529 -0.287932 25.3193 0.239389 23.6741C0.787803 21.9234 2.36977 20.5734 4.0361 20.468C4.87982 20.4258 5.74462 20.3203 6.56724 20.489C7.2844 20.6367 8.10702 20.9531 8.54997 21.4593C9.14057 22.1765 9.68899 22.4085 10.6803 22.0921C9.20385 20.6578 8.4656 18.9071 8.27576 16.9454C8.25467 16.7556 7.93828 16.5447 7.70626 16.4392C5.66025 15.5533 4.58452 14.0346 4.68998 11.7566C4.75326 10.259 4.6267 8.71923 4.94309 7.26383C5.82899 3.04526 9.43587 0.134445 13.7388 0.0289803C16.4387 -0.0342983 19.1597 0.0289803 21.8596 0.00788743C22.5345 0.00788743 23.1251 0.197723 23.1462 0.935973C23.1673 1.75859 22.5345 1.92734 21.8174 1.92734C19.0753 1.92734 16.3332 1.88515 13.5912 1.92734C9.66789 1.99062 6.37741 5.47094 6.58834 9.47858C8.27576 9.26765 10.0476 9.30983 11.6084 8.76142C12.7685 8.36066 13.7599 7.26383 14.688 6.33574C15.5739 5.44984 16.059 5.34438 16.7762 6.33574C18.2949 8.44503 20.362 9.43639 22.9353 9.24656C23.315 9.22546 23.8634 8.95126 24.011 8.65596C24.4118 7.74896 24.8126 6.77869 24.918 5.80842C25.0657 4.35301 24.9602 2.85542 24.9602 1.37892C24.9602 0.661766 25.15 0.0289803 25.9516 0.0289803C26.7742 0.0289803 26.8797 0.703951 26.8586 1.40002C26.8375 2.98198 26.8586 4.56394 26.8375 6.14591C26.8164 6.67323 26.7742 7.24273 26.5422 7.68568C25.9516 8.88798 25.825 9.83716 26.6265 11.1449C27.6179 12.7691 26.1836 15.4057 24.1165 16.2494C23.4204 16.5447 23.1673 16.9244 23.104 17.6204C22.9142 19.3711 22.1127 20.8054 20.9104 22.0499C20.6573 22.3241 20.4252 22.746 20.4042 23.1046C20.2143 25.7201 18.7378 27.4286 16.27 27.7872C14.2239 28.0825 12.199 26.7325 11.3553 24.4967C11.2499 24.3912 11.2077 24.2647 11.1444 24.117ZM15.7215 8.08645C14.2872 9.68951 12.6631 10.6809 10.6382 11.0394C10.4483 11.0816 10.1952 11.5246 10.1952 11.7988C10.153 13.4862 10.1319 15.1736 10.1952 16.8611C10.3007 19.7508 12.4943 22.0077 15.2997 22.2187C18.1894 22.4296 20.6995 20.6367 21.1213 17.747C21.4166 15.7221 21.2901 13.6128 21.3322 11.5457C21.3322 11.3769 21.1002 11.0605 20.9526 11.0394C18.8644 10.7441 17.2191 9.68951 15.7215 8.08645ZM3.82517 26.2263C4.41577 25.8677 5.2173 25.6779 5.44932 25.2138C5.76572 24.6022 5.97664 24.1592 6.71489 24.0116C6.96801 23.9694 7.36877 23.5686 7.36877 23.3366C7.36877 23.0202 7.13675 22.5772 6.86254 22.4085C5.93446 21.839 3.25567 22.2608 2.64397 23.1678C2.24321 23.7795 1.9901 24.6443 2.05337 25.3615C2.07447 25.6779 3.06583 25.8888 3.82517 26.2263ZM13.1904 23.885C13.4013 25.1295 14.5192 25.9943 15.9114 25.931C17.2191 25.8677 18.2316 24.9185 18.2738 23.885C16.6074 23.885 14.92 23.885 13.1904 23.885ZM8.23358 14.5409C8.23358 13.3808 8.23358 12.305 8.23358 11.2293C7.51642 11.2082 6.79927 10.9551 6.54615 11.8832C6.31413 12.8534 7.01019 13.9714 8.23358 14.5409ZM23.2728 10.8707C23.2728 12.3894 23.2728 13.444 23.2728 14.5198C24.5384 13.9292 25.3399 12.6636 24.8758 11.7988C24.6649 11.398 23.9478 11.2504 23.2728 10.8707Z" fill="#98C447"/>
<path d="M47.2762 41.6241C47.2762 39.3039 47.2973 36.9837 47.2762 34.6846C47.2762 34.0096 47.3817 33.3979 48.1199 33.3768C48.9425 33.3557 49.0902 34.0096 49.0902 34.7057C49.0902 39.3672 49.0902 44.0287 49.0902 48.7113C49.0902 49.3863 48.9847 50.0402 48.0988 49.998C47.234 49.9558 47.2762 49.323 47.2762 48.6902C47.2762 46.3278 47.2762 43.9865 47.2762 41.6241Z" fill="#98C447"/>
<path d="M8.2968 41.2233C8.2968 43.7122 8.2968 46.2012 8.2968 48.6901C8.2968 49.3229 8.2968 49.9557 7.45308 49.9768C6.54609 49.9979 6.50391 49.344 6.50391 48.669C6.50391 43.7122 6.50391 38.7765 6.50391 33.8197C6.50391 33.1658 6.525 32.4697 7.43199 32.4908C8.36008 32.5119 8.31789 33.208 8.2968 33.8619C8.2968 36.3297 8.2968 38.7765 8.2968 41.2233Z" fill="#98C447"/>
<path d="M52.7817 43.5646C52.7817 41.8561 52.7817 40.1265 52.7817 38.418C52.7817 37.7852 52.8661 37.1735 53.6676 37.1524C54.5324 37.1313 54.6801 37.743 54.6801 38.4391C54.6801 41.8772 54.6801 45.2942 54.6801 48.7324C54.6801 49.4284 54.5324 50.0401 53.6676 49.9979C52.845 49.9768 52.7817 49.3651 52.7817 48.7113C52.7817 46.9817 52.7817 45.2731 52.7817 43.5646Z" fill="#98C447"/>
<path d="M40.7589 19.5821C39.873 19.1391 39.0293 18.8227 38.3333 18.2954C38.1012 18.1267 38.1012 17.3884 38.27 17.0509C38.3754 16.8611 39.1559 16.7556 39.409 16.9244C40.3582 17.5994 41.1597 17.5783 42.1089 16.9244C42.362 16.7556 43.1424 16.8822 43.2479 17.0931C43.4166 17.4306 43.3744 18.1689 43.1424 18.3376C42.4464 18.8438 41.6448 19.1391 40.7589 19.5821Z" fill="#98C447"/>
<path d="M39.2613 13.0644C38.6074 13.4652 38.2277 13.887 37.9113 13.8448C37.5949 13.8238 37.0676 13.2332 37.1098 13.0011C37.1942 12.6215 37.6371 12.1363 37.9957 12.0941C38.291 12.0731 38.6707 12.5793 39.2613 13.0644Z" fill="#98C447"/>
<path d="M43.5853 14.351C43.1424 13.6971 42.6783 13.3385 42.6994 13.0222C42.7416 12.6636 43.2267 12.3683 43.522 12.0519C43.8173 12.3472 44.3236 12.6214 44.3658 12.9378C44.4079 13.2753 43.9861 13.676 43.5853 14.351Z" fill="#98C447"/>
<path d="M15.7426 19.561C14.92 19.1603 14.0763 18.865 13.4013 18.3798C13.1482 18.19 13.0217 17.4939 13.1693 17.1564C13.4224 16.5869 13.9919 16.5447 14.4771 16.9455C15.2997 17.6205 16.0801 17.5783 16.966 16.9877C17.2613 16.7979 17.9363 16.8611 18.2105 17.0932C18.6956 17.4939 18.5269 18.1056 18.0207 18.422C17.3668 18.8439 16.6075 19.1603 15.7426 19.561Z" fill="#98C447"/>
<path d="M14.2871 13.1487C13.6332 13.5073 13.1903 13.9291 12.8739 13.8448C12.5575 13.7815 12.1567 13.1909 12.1567 12.8323C12.1567 12.5792 12.7684 12.0519 13.0426 12.0941C13.4012 12.1573 13.7176 12.6425 14.2871 13.1487Z" fill="#98C447"/>
<path d="M19.8345 13.0433C19.2018 13.4441 18.8221 13.8871 18.4846 13.866C18.1682 13.8449 17.5987 13.2754 17.6409 13.0644C17.7253 12.6848 18.1682 12.1785 18.5268 12.1153C18.8221 12.0731 19.2229 12.5793 19.8345 13.0433Z" fill="#98C447"/>
</svg>
