<svg width="52" height="50" viewBox="0 0 52 50" fill="none" xmlns="http://www.w3.org/2000/svg">
<path d="M31.5146 40.4432C31.4336 40.2947 31.3391 40.1733 31.2851 40.0248C31.0017 39.377 30.5293 39.1071 29.8005 39.188C29.1122 39.269 28.4104 39.2015 27.6546 39.2015C27.6411 39.4985 27.6141 39.7279 27.6141 39.9708C27.6141 41.4824 27.5331 42.994 27.6276 44.4922C27.776 46.6651 26.6288 48.0417 24.9553 49.054C22.7688 50.3766 20.5149 50.2822 18.315 48.9595C18.1125 48.838 17.7616 48.7706 17.5457 48.865C13.7262 50.3901 9.70421 48.1767 8.9754 44.1413C8.93491 43.8983 8.88093 43.6554 8.82694 43.3854C6.41107 42.9671 4.54855 41.7524 3.48232 39.5254C2.42959 37.3255 2.59155 35.1256 3.80624 32.9391C1.75477 31.8999 0.391622 30.3478 0.0677058 28.0129C-0.25621 25.6645 0.59407 23.7885 2.36211 22.2229C1.43085 20.3469 1.2554 18.4034 2.0247 16.4329C2.794 14.4489 4.23813 13.1398 6.2761 12.3975C5.70925 9.83312 6.20862 7.53872 8.09813 5.6897C9.98764 3.82718 12.282 3.3413 14.8869 3.98914C14.9544 3.86767 15.0488 3.7192 15.1433 3.57074C16.6144 1.07389 18.8009 -0.181286 21.6891 0.0211612C24.3884 0.210112 26.2914 1.64074 27.4251 4.09711C27.5601 4.39403 27.6141 4.74494 27.6276 5.06886C27.6411 6.71543 27.6411 8.34851 27.6411 9.99508C27.6411 10.238 27.6411 10.481 27.6411 10.7914C28.6533 10.7914 29.5981 10.8319 30.5293 10.7644C30.7318 10.7509 30.9477 10.4135 31.1232 10.211C31.2851 10.0221 31.3931 9.79263 31.5281 9.56319C30.6373 8.389 30.4349 7.16081 31.2851 5.87865C32.1084 4.65046 33.62 4.25907 34.9832 4.8799C36.2788 5.47375 36.9537 6.97186 36.5623 8.389C36.1979 9.72515 34.8077 10.6969 33.4176 10.4945C32.9317 10.427 32.6888 10.5619 32.5403 10.9533C32.0949 12.1005 31.2581 12.5054 30.0435 12.357C29.2742 12.2625 28.4779 12.3435 27.6816 12.3435C27.6546 12.5594 27.6411 12.6944 27.6411 12.8159C27.6411 13.8686 27.6411 14.9213 27.6411 16.055C27.8975 16.0685 28.1 16.0955 28.3159 16.109C31.1907 16.109 34.0789 16.109 36.9537 16.1225C37.3721 16.1225 37.6825 16.028 37.9254 15.6636C38.0874 15.4207 38.3033 15.2182 38.4923 15.0023C40.0309 13.2207 40.0309 13.2207 39.9229 10.8589C39.9094 10.6429 39.6935 10.346 39.491 10.238C38.2088 9.57669 37.561 8.24054 37.8849 6.85039C38.1819 5.58172 39.437 4.59648 40.7462 4.60997C42.1093 4.60997 43.27 5.56823 43.5939 6.94487C43.9044 8.28102 43.2565 9.63068 41.9609 10.2245C41.61 10.3865 41.4615 10.5754 41.529 10.9263C41.8934 13.0318 41.0836 14.6379 39.6125 16.136C37.8174 17.958 38.7217 17.6611 36.2114 17.6881C33.62 17.7151 31.0422 17.6881 28.4509 17.6881C28.2079 17.6881 27.965 17.6881 27.6681 17.6881C27.6681 18.6733 27.6681 19.6046 27.6681 20.6168C27.8705 20.6303 28.0865 20.6438 28.3024 20.6438C31.4066 20.6438 34.5108 20.6573 37.615 20.6303C37.9389 20.6303 38.3438 20.4279 38.5732 20.1984C39.7204 18.9433 40.8542 17.6476 41.9474 16.3384C42.3523 15.8526 42.7977 15.5691 43.4455 15.6501C43.7289 15.6906 44.0258 15.6501 44.3228 15.6636C45.227 15.6906 46.0098 15.7581 46.5632 14.6514C47.1435 13.4907 48.7226 13.1938 49.8968 13.6661C51.1925 14.179 51.8943 15.3532 51.7863 16.7703C51.6784 18.0525 50.6931 19.0782 49.3165 19.3617C48.1153 19.6046 46.8061 18.9703 46.2393 17.7961C46.0233 17.3507 45.7534 17.2562 45.2675 17.1887C43.8234 16.9863 42.8111 17.4856 41.9744 18.6733C41.2591 19.6991 40.3143 20.5628 39.518 21.5481C39.0861 22.0745 38.6002 22.2499 37.9389 22.2499C34.7942 22.2229 31.636 22.2364 28.4914 22.2364C28.2214 22.2364 27.965 22.2364 27.6546 22.2364C27.6546 24.0989 27.6546 25.894 27.6546 27.7835C27.9245 27.7835 28.1809 27.7835 28.4374 27.7835C31.6495 27.7835 34.8752 27.797 38.0874 27.77C38.6812 27.77 39.0996 27.9589 39.4775 28.4043C40.5707 29.7135 41.7179 30.9822 42.8246 32.2913C43.1216 32.6422 43.432 32.8582 43.9044 32.7907C44.1203 32.7637 44.3498 32.7637 44.5792 32.7907C45.4025 32.8717 45.9828 32.7367 46.4417 31.8594C47.0356 30.6987 48.5337 30.3343 49.8158 30.7932C51.0305 31.2116 51.8268 32.4128 51.7593 33.7354C51.6919 35.0176 50.7471 36.1513 49.5054 36.4482C48.2232 36.7587 46.8331 36.1648 46.2528 34.9771C45.9963 34.4508 45.6994 34.2618 45.173 34.3563C43.27 34.6937 41.8664 34.0324 40.7867 32.3993C40.1523 31.4275 39.2886 30.6042 38.4923 29.7405C38.3168 29.5515 38.0199 29.3626 37.777 29.3626C34.4973 29.3356 31.2042 29.3491 27.9245 29.3491C27.8435 29.3491 27.749 29.3761 27.6411 29.4031C27.6411 30.3343 27.6411 31.2521 27.6411 32.2778C27.8705 32.2778 28.1 32.2778 28.3429 32.2778C31.3526 32.2778 34.3758 32.2913 37.3856 32.2643C37.9794 32.2643 38.3978 32.4533 38.7622 32.9122C39.4775 33.8029 40.2873 34.6397 40.9756 35.544C41.2456 35.9084 41.421 36.4078 41.475 36.8666C41.556 37.5954 41.4615 38.3512 41.5155 39.0936C41.529 39.3095 41.7314 39.6199 41.9339 39.7144C43.2295 40.3757 43.9314 41.7254 43.6344 43.0615C43.324 44.4517 42.1498 45.4099 40.7327 45.4234C39.356 45.4234 38.1414 44.4922 37.8309 43.156C37.4935 41.7524 38.1549 40.3487 39.491 39.7549C39.8554 39.5929 39.9229 39.3905 39.9229 39.0396C39.9499 36.7587 39.9094 36.7991 38.4923 35.0176C37.8174 34.1538 37.1021 33.8299 35.9954 33.8704C33.4851 33.9649 30.9612 33.8974 28.4374 33.8974C28.1944 33.8974 27.9515 33.8974 27.6546 33.8974C27.6546 35.1256 27.6546 36.2998 27.6546 37.5684C28.6263 37.5684 29.5846 37.6089 30.5428 37.555C31.3121 37.5145 31.852 37.7304 32.1624 38.4727C32.2434 38.6617 32.3918 38.8101 32.4728 38.9991C32.6753 39.485 32.9722 39.6199 33.5121 39.5659C34.8482 39.4175 36.1169 40.3352 36.5083 41.6039C36.9132 42.9266 36.3463 44.3707 35.1721 45.0455C33.9709 45.7338 32.4728 45.5314 31.5146 44.5326C30.5698 43.5609 30.4349 42.0628 31.1637 40.9291C31.2986 40.7536 31.4066 40.6052 31.5146 40.4432ZM19.3272 47.7178C21.3112 48.838 23.6191 48.5276 25.0767 46.9755C25.5761 46.4357 26.035 45.8688 26.035 45.0455C26.0215 39.0666 26.0215 33.0741 26.035 27.0952C26.035 26.5418 25.8055 26.2719 25.3602 26.0559C24.4424 25.624 23.5381 25.651 22.6474 26.1504C22.1615 26.4203 21.7701 26.2989 21.5137 25.8265C21.2572 25.3541 21.4597 24.9897 21.9051 24.7738C22.2425 24.5983 22.6069 24.3824 22.9578 24.3554C23.9565 24.3014 24.9688 24.3419 26.0215 24.3419C26.0215 22.2499 26.008 19.996 26.035 17.7556C26.0485 17.2157 25.8055 16.9323 25.3737 16.7163C24.3749 16.2035 23.4302 16.3114 22.4854 16.8783C22.0265 17.1482 21.6486 17.0133 21.3922 16.5949C21.1358 16.163 21.3112 15.7986 21.6891 15.5556C22.0265 15.3397 22.4044 15.1777 22.7823 15.0428C23.8486 14.6784 24.9013 14.8403 25.981 15.2317C25.9945 14.9618 26.008 14.7593 26.008 14.5704C26.035 11.7091 26.0215 8.86137 26.116 6.00011C26.1565 4.83942 25.7246 3.96214 24.9688 3.16585C24.0645 2.2076 22.9308 1.72172 21.6351 1.55976C19.5972 1.31683 17.2083 2.69347 16.5604 4.502C16.7089 4.58298 16.8709 4.67746 17.0193 4.75844C18.9223 5.85165 19.9211 8.17305 19.3542 10.319C19.2867 10.5889 18.9898 10.8859 18.7199 10.9938C18.5174 11.0748 18.1125 10.9263 17.9776 10.7374C17.8291 10.5214 17.8021 10.1435 17.8426 9.86012C18.0855 8.03809 17.2623 6.49949 15.6967 5.94613C15.3862 5.83816 15.0353 5.79767 14.7249 5.6897C12.606 4.94739 10.703 5.35228 9.13736 6.94487C7.57176 8.53746 7.24785 10.454 8.00365 12.5594C8.44904 13.7876 9.25883 14.206 10.541 13.8956C11.1888 13.7336 11.5937 13.9091 11.7287 14.4219C11.8502 14.8943 11.5532 15.2857 10.9189 15.4477C9.21834 15.8931 7.86869 15.3532 6.86995 13.9766C3.64428 14.8403 1.94372 18.8083 3.68477 21.4131C3.9547 21.3456 4.23813 21.2647 4.52155 21.2107C6.24911 20.8598 8.16561 21.6021 9.01589 22.9922C9.16435 23.2487 9.17785 23.6805 9.06988 23.964C9.00239 24.1529 8.57051 24.3284 8.35456 24.2879C8.08463 24.2339 7.8417 23.964 7.63925 23.7345C6.74848 22.7493 5.39883 22.4254 4.26512 22.9247C2.51057 23.721 1.40386 25.624 1.56582 27.581C1.72778 29.4975 3.11792 31.1576 4.98044 31.657C6.01967 31.9404 6.18162 32.4398 5.53379 33.3036C4.23813 35.0446 3.98169 36.9206 4.92645 38.8776C5.77673 40.6591 7.24785 41.8064 9.21834 41.7794C10.8784 41.7524 12.471 41.172 13.3348 39.4445C13.4427 39.2285 14.0096 39.0126 14.212 39.107C14.4685 39.2285 14.7789 39.7414 14.7114 39.9708C14.536 40.5242 14.266 41.172 13.8206 41.4959C12.9704 42.1303 12.0121 42.6566 11.0269 43.075C10.4735 43.3045 10.379 43.5474 10.4735 44.0603C10.9189 46.3412 12.9704 47.9878 15.2918 47.8393C17.4512 47.7043 20.2045 45.8418 18.7604 43.021C18.5444 42.5891 18.6929 42.1573 19.1653 41.9548C19.6376 41.7524 20.0425 41.9413 20.2045 42.4002C20.4204 43.0345 20.6499 43.6824 20.7039 44.3437C20.8388 45.6259 20.272 46.7326 19.3272 47.7178ZM39.383 7.53872C39.383 8.30802 39.9904 8.91536 40.7462 8.91536C41.5155 8.91536 42.1768 8.24054 42.1498 7.48473C42.1228 6.74242 41.475 6.13508 40.7327 6.14858C39.9634 6.16207 39.383 6.76942 39.383 7.53872ZM47.4809 16.4059C47.4809 17.1617 48.0883 17.7961 48.8306 17.8096C49.5864 17.8231 50.2477 17.1482 50.2342 16.3789C50.2207 15.6231 49.5999 15.0158 48.8441 15.0158C48.0748 15.0293 47.4809 15.6231 47.4809 16.4059ZM35.0642 7.52522C35.0642 6.74242 34.4703 6.16207 33.701 6.16207C32.9047 6.16207 32.2974 6.79641 32.3109 7.5927C32.3379 8.34851 32.9587 8.94235 33.7145 8.92886C34.4973 8.90186 35.0642 8.30802 35.0642 7.52522ZM47.4674 33.56C47.4674 34.3428 48.0613 34.9366 48.8306 34.9231C49.5864 34.9231 50.1937 34.3158 50.2072 33.56C50.2207 32.7907 49.5594 32.1294 48.8036 32.1429C48.0478 32.1698 47.4539 32.7907 47.4674 33.56ZM35.0642 42.4002C35.0507 41.6309 34.4568 41.0371 33.6875 41.0371C32.9047 41.0371 32.2839 41.6984 32.3109 42.4812C32.3379 43.237 32.9587 43.8173 33.728 43.8038C34.5108 43.7903 35.0776 43.183 35.0642 42.4002ZM39.383 42.4542C39.3965 43.237 39.9904 43.8173 40.7597 43.8038C41.5425 43.8038 42.1633 43.1425 42.1363 42.3597C42.1093 41.6174 41.4615 41.0236 40.7057 41.0371C39.9364 41.064 39.3695 41.6714 39.383 42.4542Z" fill="#98C447"/>
</svg>
