<svg width="50" height="50" viewBox="0 0 50 50" fill="none" xmlns="http://www.w3.org/2000/svg">
<path d="M21.4769 45.9254C11.8539 45.882 4.02249 37.9929 4.09473 28.3987C4.16698 18.7901 12.0417 10.9588 21.578 11.031C31.23 11.1033 39.0469 19.0069 38.9891 28.6444C38.9168 38.1518 30.9988 45.9687 21.4769 45.9254ZM36.8795 27.4306C36.6195 23.9484 35.3768 20.9575 33.1228 18.3422C32.4437 18.8624 31.8802 19.9172 30.9843 19.0502C30.0452 18.1399 31.1577 17.5475 31.649 16.8684C29.0193 14.6433 26.0428 13.3862 22.5606 13.1117C22.4883 13.9786 22.7629 15.1345 21.5636 15.149C20.3065 15.1634 20.5811 13.9786 20.4799 13.1984C17.9224 13.0394 13.2554 14.9756 11.5071 16.9118C11.8972 17.5764 13.1254 18.0966 12.1862 19.0502C11.2325 20.0327 10.669 18.819 9.96103 18.3567C7.72144 20.9864 6.47882 23.9773 6.18984 27.4162C7.04233 27.5607 8.19825 27.1995 8.2127 28.4565C8.22715 29.7569 7.04233 29.4102 6.18984 29.5402C6.49327 33.008 7.72144 36.0134 9.98993 38.6142C11.1314 37.5305 11.6949 37.3138 12.1573 37.8628C13.0098 38.8887 11.9116 39.3655 11.4348 40.0735C14.0501 42.342 17.041 43.5846 20.5088 43.8303C20.5666 42.9344 20.321 41.8508 21.4913 41.8074C22.8929 41.7496 22.4305 43.0211 22.6328 43.8736C26.0861 43.628 29.0482 42.3565 31.6634 40.1024C31.2011 39.3944 29.9874 38.8598 30.9265 37.9206C31.8513 36.9959 32.4726 38.1229 33.1661 38.6142C35.3913 35.97 36.6628 33.008 36.894 29.5402C36.0126 29.4246 34.8133 29.7714 34.8278 28.471C34.8278 27.2139 35.9837 27.5462 36.8795 27.4306Z" fill="#98C447"/>
<path d="M42.4857 31.4475C41.9511 31.2018 41.4599 31.1151 41.1709 30.8117C40.9252 30.5516 40.7663 29.9881 40.8819 29.6991C41.0119 29.4102 41.5899 29.0634 41.8789 29.1356C42.4713 29.2946 42.7603 29.0345 43.1215 28.6733C44.3352 27.4451 44.3497 27.4451 43.4394 25.9424C43.396 25.8557 43.3671 25.7546 43.2949 25.6968C41.8211 24.0785 42.2401 22.4024 43.2226 20.7985C43.5261 20.2928 44.1474 19.9027 44.7109 19.6715C45.5778 19.3248 46.517 19.1514 47.4273 18.9346C47.8174 18.8335 47.9764 18.6312 47.9619 18.2266C47.8608 15.7269 48.511 16.3483 45.9391 15.6691C45.3322 15.5102 44.6964 15.4091 44.1474 15.1201C42.5724 14.3254 41.8789 11.4934 42.8181 10.0051C43.2515 9.34048 43.6995 8.69028 44.0751 7.98228C44.1763 7.77999 44.0462 7.44766 44.0173 7.17313C44.0173 7.15868 43.9884 7.14423 43.974 7.11534C42.5146 5.55484 42.5146 5.55484 40.6941 6.69631C40.3617 6.8986 40.0439 7.11533 39.7115 7.31762C39.0324 7.72219 38.3244 7.82334 37.5731 7.51991C36.9951 7.28872 36.4172 7.05754 35.8392 6.79746C35.2034 6.50848 34.8422 6.00276 34.6688 5.32366C34.4376 4.38447 34.2065 3.45974 33.9175 2.535C33.8452 2.31826 33.4985 2.05818 33.2817 2.05818C30.6953 2.08708 31.2155 1.59581 30.6953 3.99435C30.6086 4.39892 30.5075 4.78904 30.4064 5.17917C30.3775 5.32366 30.3341 5.46815 30.2763 5.59819C29.6839 7.07199 26.7508 8.09787 25.3637 7.30317C24.569 6.85525 23.7743 6.39288 22.994 5.91607C22.6183 5.68488 22.3438 5.71378 22.0548 6.04611C21.8237 6.32064 21.5636 6.56627 21.289 6.81191C20.9134 7.14423 20.6533 7.46211 20.87 8.04007C21.0434 8.50244 20.8411 8.96481 20.3354 9.15265C19.8152 9.35493 19.3962 9.18154 19.0928 8.71918C18.5437 7.88113 18.5871 6.81191 19.2662 6.03166C19.8152 5.3959 20.4221 4.80349 21.0434 4.23998C21.7948 3.56088 22.8351 3.51753 23.8032 4.06659C24.5112 4.47117 25.2336 4.87574 25.9127 5.33811C26.3606 5.64154 26.7219 5.59819 27.242 5.43925C28.2101 5.15027 28.658 4.58676 28.7447 3.60423C28.8025 3.05516 29.0048 2.535 29.1349 1.98594C29.4527 0.699974 30.2908 0.0208708 31.6056 0.00642178C32.1547 -0.00802723 32.7182 0.00642178 33.2673 0.00642178C34.7122 0.0208708 35.5502 0.656627 35.9114 2.07263C36.1137 2.86733 36.316 3.66202 36.5183 4.44227C36.7061 5.16472 38.2088 5.81492 38.8735 5.43925C39.6248 5.00578 40.3617 4.55786 41.1131 4.10994C42.2835 3.41639 43.266 3.53198 44.2341 4.50006C44.6675 4.91909 45.0866 5.33811 45.5056 5.78603C46.3725 6.72521 46.4881 7.79444 45.8379 8.89256C45.4767 9.48497 45.1299 10.1063 44.7109 10.6553C44.2774 11.2189 44.2919 11.7101 44.5664 12.3603C44.8698 13.0828 45.2311 13.5018 46.0402 13.5885C46.6326 13.6463 47.2106 13.863 47.7885 14.0075C49.2479 14.3832 49.8836 15.1779 49.8836 16.6806C49.8836 17.2874 49.8981 17.8798 49.8836 18.4867C49.8547 19.686 49.219 20.4662 48.0486 20.7697C47.1672 21.0008 46.2858 21.232 45.4044 21.4777C44.6097 21.7088 44.0751 23.1826 44.5086 23.8906C44.9421 24.5842 45.3755 25.2777 45.809 25.9713C46.4737 27.055 46.3581 28.1531 45.4911 29.0778C45.0143 29.5835 44.5519 30.1182 44.0029 30.5516C43.5694 30.9562 43.0059 31.1729 42.4857 31.4475Z" fill="#98C447"/>
<path d="M21.5493 50C11.435 49.9855 2.47659 42.7899 0.497072 33.0224C-0.962279 25.7834 0.800501 19.3969 5.66982 13.8485C5.79986 13.704 5.9299 13.5595 6.07439 13.4295C6.5801 12.9238 7.27366 12.8371 7.69268 13.1983C8.12615 13.574 8.06835 14.2386 7.54819 14.7877C5.97325 16.4349 4.71618 18.2988 3.7481 20.365C-0.673298 29.8869 3.64696 41.8074 13.2411 46.0843C21.0725 49.5809 28.3403 48.4106 34.8857 42.8332C35.1602 42.6021 35.5648 42.3564 35.8827 42.3709C36.1861 42.3998 36.6629 42.7321 36.7063 42.9922C36.7785 43.339 36.6196 43.9025 36.3451 44.1048C35.0013 45.1884 33.6576 46.301 32.1693 47.1824C28.9038 49.133 25.3349 50 21.5493 50Z" fill="#98C447"/>
<path d="M40.7664 17.5042C40.7231 17.7932 40.6797 18.3422 40.5641 18.8768C40.4196 19.4981 39.885 19.816 39.3215 19.7004C38.7869 19.5848 38.4835 19.1225 38.628 18.4723C39.7116 13.7474 34.4233 9.70171 30.262 11.2333C29.5251 11.5078 28.976 11.2478 28.8026 10.6264C28.6437 10.0774 29.0049 9.54277 29.7274 9.29714C32.7039 8.30016 36.3884 9.38383 38.6424 11.9269C39.9717 13.444 40.7231 15.2068 40.7664 17.5042Z" fill="#98C447"/>
<path d="M27.2277 29.4968C26.7509 29.4968 26.2597 29.4968 25.7828 29.4968C24.9015 29.5113 24.0779 29.3668 23.4421 30.3927C22.9508 31.2162 21.9105 31.3752 20.8991 31.1874C20.639 31.144 20.2489 31.2596 20.0466 31.4474C19.3386 32.0832 18.6884 32.8056 17.9948 33.4703C17.4458 33.9905 16.9112 34.0049 16.4777 33.5714C16.0298 33.1235 16.0587 32.6034 16.5933 32.0543C17.2435 31.3752 17.9081 30.7105 18.5872 30.0603C18.8907 29.7713 19.0207 29.5257 18.9051 29.0633C18.5583 27.7051 19.2808 26.4047 20.5957 25.8701C21.7516 25.3933 23.182 25.8557 23.8611 27.0116C24.0923 27.4162 24.3524 27.5173 24.7714 27.5029C26.4331 27.4884 28.0947 27.4884 29.7563 27.5029C30.5944 27.5029 31.0712 27.8785 31.0712 28.5143C31.0712 29.15 30.5944 29.5257 29.7708 29.5257C28.9038 29.4968 28.0658 29.4968 27.2277 29.4968ZM22.4018 28.6299C22.4018 28.5287 22.4018 28.4131 22.4018 28.312C22.1272 28.1097 21.8672 27.7918 21.5782 27.734C21.1158 27.6618 20.7979 27.9652 20.8124 28.4709C20.8124 28.9622 21.1158 29.2801 21.5782 29.1934C21.8672 29.1356 22.1272 28.8322 22.4018 28.6299Z" fill="#98C447"/>
</svg>
