<svg width="80" height="38" viewBox="0 0 80 38" fill="none" xmlns="http://www.w3.org/2000/svg">
<g clip-path="url(#clip0_419_672)">
<path d="M40.0231 30.3015C44.3728 26.5222 48.6077 22.8373 52.8457 19.1551C59.5333 13.338 66.2147 7.5182 72.9116 1.70646C74.1287 0.649786 75.3489 -0.412284 77.3545 0.196924C79.9501 0.981346 80.8505 3.45592 79.087 5.27815C78.0904 6.30517 76.9323 7.21629 75.8332 8.16784C65.187 17.4111 54.5409 26.6543 43.8947 35.8949C43.6401 36.1159 43.3824 36.3397 43.1247 36.5607C40.8644 38.4746 39.1072 38.4961 36.8624 36.5499C25.7319 26.8996 14.6138 17.2386 3.49572 7.58289C2.69159 6.88473 1.85641 6.20813 1.09265 5.47762C-0.357272 4.08669 -0.354167 2.24289 1.04607 1.00022C2.53635 -0.326024 4.62585 -0.361067 6.28068 1.05682C11.4346 5.47493 16.5357 9.93616 21.6616 14.3812C27.7314 19.6484 33.8043 24.9103 40.0231 30.3015Z" fill="white" fill-opacity="0.7"/>
</g>
<defs>
<clipPath id="clip0_419_672">
<rect width="80" height="38" fill="white"/>
</clipPath>
</defs>
</svg>
