<svg width="80" height="76" viewBox="0 0 80 76" fill="none" xmlns="http://www.w3.org/2000/svg">
<g clip-path="url(#clip0_67_2999)">
<path d="M40.0231 68.3015C44.3728 64.5222 48.6077 60.8373 52.8457 57.1551C59.5333 51.338 66.2147 45.5182 72.9116 39.7065C74.1287 38.6498 75.3489 37.5877 77.3545 38.1969C79.9501 38.9813 80.8505 41.4559 79.087 43.2781C78.0904 44.3052 76.9323 45.2163 75.8332 46.1678C65.187 55.4111 54.5409 64.6543 43.8947 73.8949C43.6401 74.1159 43.3824 74.3397 43.1247 74.5607C40.8644 76.4746 39.1072 76.4961 36.8624 74.5499C25.7319 64.8996 14.6138 55.2386 3.49572 45.5829C2.69159 44.8847 1.85641 44.2081 1.09265 43.4776C-0.357272 42.0867 -0.354167 40.2429 1.04607 39.0002C2.53635 37.674 4.62585 37.6389 6.28068 39.0568C11.4346 43.4749 16.5357 47.9362 21.6616 52.3812C27.7314 57.6484 33.8043 62.9103 40.0231 68.3015Z" fill="white"/>
</g>
<g clip-path="url(#clip1_67_2999)">
<path d="M40.0231 49.3015C44.3728 45.5222 48.6077 41.8373 52.8457 38.1551C59.5333 32.338 66.2147 26.5182 72.9116 20.7065C74.1287 19.6498 75.3489 18.5877 77.3545 19.1969C79.9501 19.9813 80.8505 22.4559 79.087 24.2781C78.0904 25.3052 76.9323 26.2163 75.8332 27.1678C65.187 36.4111 54.5409 45.6543 43.8947 54.8949C43.6401 55.1159 43.3824 55.3397 43.1247 55.5607C40.8644 57.4746 39.1072 57.4961 36.8624 55.5499C25.7319 45.8996 14.6138 36.2386 3.49572 26.5829C2.69159 25.8847 1.85641 25.2081 1.09265 24.4776C-0.357272 23.0867 -0.354167 21.2429 1.04607 20.0002C2.53635 18.674 4.62585 18.6389 6.28068 20.0568C11.4346 24.4749 16.5357 28.9362 21.6616 33.3812C27.7314 38.6484 33.8043 43.9103 40.0231 49.3015Z" fill="white" fill-opacity="0.7"/>
</g>
<g clip-path="url(#clip2_67_2999)">
<path d="M40.0231 30.3015C44.3728 26.5222 48.6077 22.8373 52.8457 19.1551C59.5333 13.338 66.2147 7.5182 72.9116 1.70646C74.1287 0.649786 75.3489 -0.412284 77.3545 0.196924C79.9501 0.981346 80.8505 3.45592 79.087 5.27815C78.0904 6.30517 76.9323 7.21629 75.8332 8.16784C65.187 17.4111 54.5409 26.6543 43.8947 35.8949C43.6401 36.1159 43.3824 36.3397 43.1247 36.5607C40.8644 38.4746 39.1072 38.4961 36.8624 36.5499C25.7319 26.8996 14.6138 17.2386 3.49572 7.58289C2.69159 6.88473 1.85641 6.20813 1.09265 5.47762C-0.357272 4.08669 -0.354167 2.24289 1.04607 1.00022C2.53635 -0.326024 4.62585 -0.361067 6.28068 1.05682C11.4346 5.47493 16.5357 9.93616 21.6616 14.3812C27.7314 19.6484 33.8043 24.9103 40.0231 30.3015Z" fill="white" fill-opacity="0.35"/>
</g>
<defs>
<clipPath id="clip0_67_2999">
<rect width="80" height="38" fill="white" transform="translate(0 38)"/>
</clipPath>
<clipPath id="clip1_67_2999">
<rect width="80" height="38" fill="white" transform="translate(0 19)"/>
</clipPath>
<clipPath id="clip2_67_2999">
<rect width="80" height="38" fill="white"/>
</clipPath>
</defs>
</svg>
