<svg width="1440" height="350" viewBox="0 0 1440 350" fill="none" xmlns="http://www.w3.org/2000/svg">
<g opacity="0.3">
<path d="M-6.16324 27.43L19.6272 135.092C15.4512 136.269 12.5423 138.957 12.5423 142.072C12.5423 146.29 17.8559 149.701 24.3935 149.701C29.1311 149.701 33.2208 147.903 35.1072 145.317L252.806 173.766C253.08 177.826 258.264 181.062 264.629 181.062C271.181 181.062 276.48 177.641 276.48 173.432C276.48 172.255 276.062 171.152 275.314 170.16L434.03 104.25C436.205 105.78 439.315 106.744 442.786 106.744C447.48 106.744 451.512 104.983 453.442 102.443L717.595 151.963C717.537 152.25 717.509 152.547 717.509 152.853C717.509 157.071 722.808 160.482 729.36 160.482C732.154 160.482 734.731 159.852 736.747 158.814L846.677 224.612C845.366 225.836 844.589 227.328 844.589 228.932C844.589 233.15 849.902 236.561 856.44 236.561C859.406 236.561 862.114 235.857 864.202 234.689L1050.26 337.372C1049.11 338.55 1048.44 339.94 1048.44 341.433C1048.44 345.651 1053.75 349.062 1060.29 349.062C1066.84 349.062 1072.14 345.651 1072.14 341.433C1072.14 339.829 1071.36 338.336 1070.05 337.113L1188.81 265.891C1190.84 266.93 1193.4 267.56 1196.19 267.56C1201.85 267.56 1206.58 265.011 1207.76 261.599L1594.64 279.704L1594.77 278.582C1594.77 282.8 1600.08 286.211 1606.62 286.211C1613.17 286.211 1618.47 282.8 1618.47 278.582C1618.47 277.664 1618.2 276.784 1617.74 275.968L1726.08 233.947C1728.26 235.551 1731.46 236.58 1735.03 236.58C1738.41 236.58 1741.45 235.662 1743.62 234.197L1865.13 289.057C1864.32 290.086 1863.86 291.245 1863.86 292.469C1863.86 296.686 1869.18 300.098 1875.72 300.098C1882.25 300.098 1887.57 296.677 1887.57 292.469C1887.57 290.578 1886.49 288.844 1884.72 287.509L2002.33 200.399C2004.18 201.159 2006.35 201.604 2008.7 201.604C2015.25 201.604 2020.55 198.183 2020.55 193.975C2020.55 190.109 2016.09 186.93 2010.3 186.42L2005.92 -53.8772C2011.69 -54.3871 2016.14 -57.5667 2016.14 -61.423C2016.14 -65.6409 2010.84 -69.0522 2004.29 -69.0522C1997.74 -69.0522 1992.44 -65.6409 1992.44 -61.423C1992.44 -60.3199 1992.82 -59.2723 1993.48 -58.3175L1845.89 3.68951C1843.72 2.11362 1840.56 1.1217 1837.04 1.1217C1831.09 1.1217 1826.16 3.94908 1825.33 7.62927H1602.65C1601.8 3.94908 1596.89 1.1217 1590.94 1.1217C1585.99 1.1217 1581.75 3.07767 1579.98 5.85867L1409.08 -21.219C1409.11 -21.4507 1409.14 -21.6918 1409.14 -21.9328C1409.14 -26.1506 1403.84 -29.562 1397.29 -29.562C1391.41 -29.562 1386.55 -26.7996 1385.61 -23.1843L979.517 -185.613C980.136 -186.54 980.496 -187.569 980.496 -188.644C980.496 -192.862 975.182 -196.274 968.645 -196.274C962.093 -196.274 956.793 -192.853 956.793 -188.644C956.793 -187.087 957.528 -185.641 958.766 -184.427L664.632 -13.9606C662.587 -15.0545 659.952 -15.7034 657.086 -15.7034C654.466 -15.7034 652.046 -15.1471 650.073 -14.2108L532.022 -90.7904C533.505 -92.0604 534.384 -93.6362 534.384 -95.3512C534.384 -99.569 529.07 -102.98 522.533 -102.98C518.04 -102.98 514.138 -101.367 512.122 -98.9943L368.87 -132.746C369.029 -133.247 369.115 -133.757 369.115 -134.285C369.115 -138.503 363.802 -141.914 357.264 -141.914C350.712 -141.914 345.413 -138.494 345.413 -134.285C345.413 -134.016 345.442 -133.748 345.485 -133.479L79.7616 -89.1588C77.9616 -91.8935 73.7569 -93.8124 68.8465 -93.8124C62.2945 -93.8124 56.9951 -90.401 56.9951 -86.1831C56.9951 -83.4856 59.1696 -81.1217 62.4384 -79.7683L-2.24648 12.6258C-3.42729 12.3662 -4.70888 12.2272 -6.01928 12.2272C-12.5713 12.2272 -17.8704 15.6385 -17.8704 19.8564C-17.856 23.9816 -12.6288 27.3744 -6.16324 27.43ZM1194.6 252.348L1188.32 238.591L1286.24 158.554L1200.63 252.821C1199.26 252.469 1197.78 252.265 1196.22 252.265C1195.68 252.274 1195.13 252.302 1194.6 252.348ZM1608.03 270.981L1594.05 193.669C1596.86 193.178 1599.26 192.047 1600.83 190.526L1679.2 214.193L1612.9 272.075C1611.45 271.5 1609.8 271.11 1608.03 270.981ZM1873.37 284.951L1835.22 217.252L1997.58 196.506C1998.07 197.386 1998.81 198.193 1999.73 198.897L1882.11 285.998C1880.27 285.238 1878.09 284.793 1875.74 284.793C1874.92 284.802 1874.13 284.849 1873.37 284.951ZM455.155 -82.262L187.488 -25.3997C187.214 -25.752 186.898 -26.0858 186.538 -26.4102L350.078 -128.297C352.08 -127.305 354.571 -126.712 357.278 -126.712C360.389 -126.712 363.197 -127.49 365.314 -128.742L455.155 -82.262ZM255.802 168.353L89.6112 73.678L172.354 -14.9247C173.75 -14.5539 175.291 -14.3406 176.904 -14.3406C177.422 -14.3406 177.912 -14.3685 178.416 -14.4055L258.134 167.055C257.27 167.416 256.478 167.861 255.802 168.353ZM165.053 -21.9699C165.053 -21.4508 165.139 -20.9409 165.283 -20.4496L7.11351 16.4543L142.085 -41.1495L167.112 -26.2619C165.816 -25.0475 165.053 -23.5643 165.053 -21.9699ZM145.066 -42.4287L342.446 -126.665L184.09 -28.0139C182.088 -29.0058 179.597 -29.5991 176.89 -29.5991C174.082 -29.5991 171.504 -28.9687 169.459 -27.9119L145.066 -42.4287ZM458.395 -80.5841L487.93 -65.3071C486.893 -64.1762 486.302 -62.8598 486.302 -61.4601C486.302 -61.3581 486.317 -61.2561 486.331 -61.1449L202.882 -26.299L458.395 -80.5841ZM462.326 -81.4276L511.963 -91.9769C512.899 -90.7811 514.31 -89.7614 516.038 -89.029L501.466 -68.7834C500.4 -68.9873 499.291 -69.0985 498.125 -69.0985C495.014 -69.0985 492.206 -68.3199 490.09 -67.0684L462.326 -81.4276ZM529.56 -89.2608L647.611 -12.6813C647.582 -12.6535 647.539 -12.6257 647.51 -12.5979L509.328 -58.9664C509.745 -59.7451 509.99 -60.5794 509.99 -61.4601C509.99 -64.1298 507.859 -66.4659 504.648 -67.8378L519.206 -88.0835C520.272 -87.8795 521.381 -87.7683 522.547 -87.7683C525.182 -87.7683 527.602 -88.3245 529.56 -89.2608ZM860.846 221.822L905.112 100.116C905.429 100.135 905.76 100.144 906.091 100.144C907.027 100.144 907.934 100.07 908.813 99.9306L967.233 194.207L866.347 224.677C865.008 223.407 863.093 222.397 860.846 221.822ZM1998.84 189.748L1793.45 128.417C1793.76 127.731 1793.94 127.008 1793.94 126.257C1793.94 124.19 1792.66 122.308 1790.57 120.936L1873.81 50.5494L2001.23 188.033C2000.3 188.524 1999.5 189.099 1998.84 189.748ZM1995.71 -56.2318L1874.16 46.5447L1844.57 14.6095C1847.22 13.2098 1848.92 11.087 1848.92 8.70456C1848.92 7.56435 1848.51 6.48904 1847.82 5.52496L1995.38 -56.4635C1995.49 -56.3894 1995.61 -56.3059 1995.71 -56.2318ZM1830.57 15.0823C1831.03 15.277 1831.52 15.4531 1832.03 15.6014L1783.8 118.712C1783.24 118.656 1782.68 118.628 1782.09 118.628C1779.11 118.628 1776.38 119.342 1774.31 120.51L1725.93 90.5958L1830.57 15.0823ZM1721.09 90.7163L1597.46 179.931C1596.05 179.337 1594.44 178.93 1592.71 178.772V16.2504C1594.77 16.0557 1596.64 15.5273 1598.21 14.7393L1721.09 90.7163ZM668.952 -8.12051C668.952 -8.25955 668.938 -8.39856 668.923 -8.53761L945.691 -45.0985C946.296 -44.0325 947.246 -43.0684 948.485 -42.2897L831.082 60.8762L667.958 -5.05214C668.592 -5.99768 668.952 -7.02666 668.952 -8.12051ZM1154.45 141.683C1154.1 139.532 1152.36 137.65 1149.83 136.399L1221.93 90.7163L1291.74 139.977C1290.44 140.886 1289.49 141.998 1289 143.222L1154.45 141.683ZM961.43 -40.686L1056.6 59.532L916.661 89.1033C915.365 87.4347 913.147 86.1183 910.426 85.4324L911.261 83.1056L955.829 -40.1112C956.146 -40.0927 956.462 -40.0835 956.793 -40.0835C958.449 -40.0835 960.019 -40.2966 961.43 -40.686ZM1058.47 61.4972L1132.1 139.022C1131.83 139.365 1131.6 139.727 1131.41 140.098L917.755 93.8588C917.87 93.4231 917.942 92.9781 917.942 92.5146C917.942 92.0789 917.87 91.6433 917.755 91.2261L1058.47 61.4972ZM1061.87 60.7834L1142.42 43.7637C1143.98 45.6641 1146.74 47.0824 1150.07 47.6108L1144.83 82.466L1136.81 135.852C1135.9 136.186 1135.05 136.594 1134.32 137.066L1061.87 60.7834ZM1219.56 89.0662L1146.61 135.286C1145.38 134.999 1144.05 134.841 1142.65 134.841C1141.89 134.841 1141.16 134.888 1140.44 134.981L1148.24 83.0685L1153.54 47.8147C1155.69 47.7405 1157.69 47.3048 1159.37 46.591L1219.56 89.0662ZM897.091 87.5552L834.034 62.0627L951.293 -40.9734C951.667 -40.8436 952.056 -40.7323 952.459 -40.6304L907.056 84.9133C906.739 84.8947 906.422 84.8854 906.091 84.8854C902.491 84.8854 899.266 85.9237 897.091 87.5552ZM965.419 -42.4751L1142.22 36.9317C1141.49 37.9236 1141.07 39.036 1141.07 40.204C1141.07 40.6953 1141.14 41.1774 1141.29 41.6409L1060.01 58.8089L964.411 -41.8633C964.757 -42.058 965.088 -42.2619 965.419 -42.4751ZM1164.76 40.204C1164.76 39.6571 1164.67 39.1287 1164.5 38.6189L1387.05 -18.1506C1387.25 -17.9189 1387.48 -17.6964 1387.73 -17.4832L1222.06 87.4903L1161.99 45.1079C1163.72 43.7823 1164.76 42.0673 1164.76 40.204ZM1390.18 -15.8795C1390.62 -15.6663 1391.07 -15.4716 1391.56 -15.2955L1302.6 137.622C1301.9 137.539 1301.2 137.493 1300.46 137.493C1298.26 137.493 1296.2 137.891 1294.43 138.559L1224.4 89.1404L1390.18 -15.8795ZM1841.59 15.7683L1871.9 48.4729L1787.82 119.574C1787.62 119.509 1787.41 119.444 1787.21 119.379L1798.89 94.3594L1835.37 16.2411C1835.93 16.2967 1836.49 16.3245 1837.07 16.3245C1838.66 16.3431 1840.19 16.1298 1841.59 15.7683ZM1723.61 92.2737L1772.05 122.225C1770.91 123.393 1770.24 124.774 1770.24 126.267C1770.24 127.073 1770.44 127.843 1770.78 128.566L1600.73 181.998C1600.52 181.803 1600.3 181.609 1600.07 181.432L1723.61 92.2737ZM1291.85 150.35L1187.12 235.959L1147.64 149.395C1151.04 148.385 1153.57 146.364 1154.29 143.926L1288.64 145.465C1288.77 147.356 1289.97 149.062 1291.85 150.35ZM1184.47 238.119L1066.2 334.786C1065.83 334.647 1065.43 334.517 1065.02 334.406L1141.33 150.054C1141.76 150.081 1142.21 150.109 1142.67 150.109C1143.22 150.109 1143.76 150.072 1144.3 150.026L1184.47 238.119ZM1130.8 142.471C1130.8 143.231 1130.98 143.963 1131.31 144.658L970.387 193.261L912.038 99.1056C913.997 98.3733 915.595 97.2887 916.632 95.9816L1130.82 142.332C1130.82 142.378 1130.8 142.424 1130.8 142.471ZM894.24 92.5146C894.24 93.4045 894.485 94.2481 894.917 95.0453L738.691 148.135C738.245 147.773 737.755 147.439 737.222 147.133L831.96 63.8796L895.233 89.4555C894.6 90.3918 894.24 91.43 894.24 92.5146ZM727.056 145.363L661.997 -1.17723C663.581 -1.64073 664.977 -2.31746 666.101 -3.16103L829.008 62.6837L734.299 145.901C732.802 145.456 731.131 145.205 729.374 145.205C728.582 145.215 727.805 145.27 727.056 145.363ZM666.979 -12.3291L961.113 -182.795C962.582 -182.016 964.354 -181.451 966.283 -181.201L955.699 -55.3048C949.68 -54.9433 944.957 -51.6802 944.957 -47.7126C944.957 -47.5736 944.971 -47.4345 944.986 -47.2955L668.218 -10.7346C667.901 -11.3001 667.483 -11.8378 666.979 -12.3291ZM972.504 -181.47L1085.5 -41.1124L968.63 -48.1298C968.342 -51.6339 964.382 -54.5076 959.184 -55.1935L969.768 -181.089C970.718 -181.145 971.626 -181.275 972.504 -181.47ZM1087.4 -38.7393L1145.98 34.0302C1145.32 34.3361 1144.71 34.6884 1144.17 35.0685L967.406 -44.3199C967.795 -44.8204 968.098 -45.3488 968.299 -45.8958L1087.4 -38.7393ZM1091.52 -38.4983L1385.6 -20.8389C1385.64 -20.635 1385.7 -20.4403 1385.77 -20.2363L1163.29 36.5146C1161.27 34.1693 1157.39 32.5748 1152.92 32.5748C1151.57 32.5748 1150.29 32.7231 1149.08 32.992L1091.52 -38.4983ZM1401.83 -14.9154L1473.54 62.211L1308.33 139.43C1307.59 139.013 1306.79 138.651 1305.89 138.355L1394.81 -14.4982C1395.62 -14.387 1396.44 -14.3314 1397.29 -14.3314C1398.9 -14.3406 1400.43 -14.5446 1401.83 -14.9154ZM1475.34 64.1392L1583.45 180.413C1581.88 181.247 1580.66 182.332 1579.91 183.574L1573.8 182.693L1312.3 145.038C1312.27 143.611 1311.64 142.285 1310.56 141.145L1475.34 64.1392ZM1478.16 62.8135L1582.5 14.0441C1584.27 15.2029 1586.61 15.9908 1589.21 16.2411V178.763C1588.25 178.855 1587.31 179.013 1586.43 179.254L1478.16 62.8135ZM1602.68 9.83554H1825.36C1825.69 11.2538 1826.6 12.5424 1827.96 13.5992L1723.41 89.0476L1600.62 13.1264C1601.68 12.1623 1602.4 11.0499 1602.68 9.83554ZM2002.48 -53.9328L2006.86 186.41C2005.93 186.503 2005.06 186.661 2004.22 186.883L1876.09 48.6212L1998.45 -54.8413C1999.67 -54.3871 2001.04 -54.0812 2002.48 -53.9328ZM1834.03 215.12L1787.73 132.969C1789.46 132.366 1790.91 131.495 1791.99 130.448L1997.38 191.778C1997.06 192.464 1996.89 193.187 1996.89 193.938C1996.89 194.058 1996.91 194.179 1996.92 194.309L1834.03 215.12ZM1830.57 215.565L1746.2 226.346C1745.06 224.315 1742.64 222.675 1739.55 221.859L1781.84 133.887C1781.93 133.887 1782.01 133.896 1782.1 133.896C1782.91 133.896 1783.7 133.84 1784.46 133.748L1830.57 215.565ZM1724.52 225.409L1684.51 213.331L1776.53 132.997C1777.12 133.201 1777.72 133.368 1778.36 133.497L1736.14 221.312C1735.78 221.294 1735.4 221.275 1735.03 221.275C1730.46 221.284 1726.49 222.962 1724.52 225.409ZM1681.3 212.357L1602.32 188.496C1602.63 187.801 1602.82 187.069 1602.82 186.309C1602.82 185.511 1602.63 184.751 1602.29 184.028L1772.71 130.902C1773.03 131.171 1773.37 131.43 1773.75 131.671L1681.3 212.357ZM1311.48 147.931C1311.61 147.717 1311.74 147.495 1311.84 147.263L1513.87 176.353L1579.16 185.752C1579.15 185.938 1579.12 186.114 1579.12 186.299C1579.12 190.434 1584.23 193.789 1590.6 193.919L1604.55 271.046C1602.14 271.324 1600 272.065 1598.33 273.122L1311.48 147.931ZM1184.37 259.903C1184.37 261.507 1185.15 262.999 1186.46 264.223L1075.69 330.652L1185.68 240.751L1191.25 252.978C1187.19 254.193 1184.37 256.835 1184.37 259.903ZM1057.61 333.989L971.698 195.356L1132.8 146.698C1134.07 147.921 1135.86 148.895 1137.97 149.479L1061.67 333.831C1061.24 333.804 1060.79 333.776 1060.33 333.776C1059.38 333.776 1058.47 333.85 1057.61 333.989ZM1052.57 335.648L866.506 232.964C867.658 231.787 868.334 230.397 868.334 228.913C868.334 228.153 868.162 227.421 867.83 226.726L968.529 196.311L1054.37 334.823C1053.72 335.055 1053.13 335.333 1052.57 335.648ZM849.082 222.953L739.152 157.154C740.462 155.931 741.24 154.438 741.24 152.835C741.24 151.861 740.952 150.934 740.433 150.072L896.558 97.0199C897.869 98.1601 899.654 99.0685 901.728 99.5969L857.462 221.303C857.146 221.284 856.814 221.275 856.483 221.275C853.675 221.284 851.112 221.915 849.082 222.953ZM593.438 25.2052L648.922 -2.59557C651.053 -1.2885 653.918 -0.481979 657.101 -0.481979C657.619 -0.481979 658.138 -0.509811 658.642 -0.556152L723.773 146.123C723.701 146.151 723.629 146.179 723.557 146.206L593.438 25.2052ZM591.451 23.3604L506.232 -55.8981C506.779 -56.2318 507.269 -56.5933 507.715 -56.9827L645.898 -10.6141C645.48 -9.83546 645.235 -8.99188 645.235 -8.12051C645.235 -6.75781 645.797 -5.47852 646.776 -4.3754L591.451 23.3604ZM588.701 24.7324L451.123 93.6734C449.986 92.9503 448.603 92.3756 447.091 91.9955L449.928 83.773L497.304 -53.8587C497.578 -53.8494 497.851 -53.8309 498.139 -53.8309C500.026 -53.8309 501.797 -54.1182 503.366 -54.6188L588.701 24.7324ZM434.117 93.933L372.874 66.0117L493.272 -54.5076C493.474 -54.4427 493.69 -54.3871 493.906 -54.3407L446.357 83.7916L443.707 91.5042C443.419 91.4857 443.117 91.4764 442.814 91.4764C439.373 91.4764 436.277 92.4312 434.117 93.933ZM370.022 64.7139L187.459 -18.5214C188.28 -19.5597 188.741 -20.7277 188.741 -21.9699C188.741 -22.0719 188.726 -22.1738 188.712 -22.285L486.95 -58.9479C487.627 -57.6964 488.808 -56.5841 490.334 -55.7312L370.022 64.7139ZM368.136 66.5957L268.603 166.23C267.365 165.942 266.04 165.785 264.643 165.785C263.491 165.785 262.397 165.896 261.346 166.091L181.771 -15.0266C183.168 -15.4345 184.421 -16 185.458 -16.7045L368.136 66.5957ZM31.4495 135.945L87.7823 75.6247L253.872 170.244C253.584 170.651 253.354 171.069 253.181 171.504L36.1151 143.138C36.1871 142.786 36.2449 142.424 36.2449 142.054C36.2449 139.56 34.3583 137.335 31.4495 135.945ZM86.9616 72.167L3.31207 24.5099C4.89607 23.2121 5.84648 21.5806 5.84648 19.8008C5.84648 19.5783 5.81763 19.3558 5.78883 19.1426L166.464 -18.3453C167.198 -17.4739 168.178 -16.7045 169.358 -16.0834L86.9616 72.167ZM65.6351 -78.9062C66.6575 -78.7208 67.7375 -78.6096 68.8607 -78.6096C71.6687 -78.6096 74.2464 -79.2399 76.2912 -80.2967L139.464 -42.7254L3.54234 15.277C2.79354 14.6281 1.90079 14.0626 0.892792 13.5899L65.6351 -78.9062ZM346.363 -131.365C346.421 -131.282 346.493 -131.198 346.55 -131.115L142.43 -44.0046L78.6384 -81.9467C79.9344 -83.1704 80.6977 -84.6536 80.6977 -86.248C80.6977 -86.5169 80.6688 -86.7857 80.6256 -87.0545L346.363 -131.365ZM510.941 -96.9364C510.782 -96.4358 510.696 -95.9259 510.696 -95.3975C510.696 -94.9526 510.768 -94.5262 510.883 -94.0998L459.086 -83.0962L367.488 -130.485C367.546 -130.549 367.618 -130.614 367.675 -130.688L510.941 -96.9364ZM1378.25 -23.5273L1089.62 -40.8621L975.6 -182.508C976.378 -182.869 977.083 -183.286 977.702 -183.75L1378.25 -23.5273ZM1579.18 8.00003C1579.15 8.23178 1579.12 8.47282 1579.12 8.71384C1579.12 9.98383 1579.61 11.1797 1580.47 12.2364L1476.39 60.8854L1404.84 -16.0648C1406.35 -16.8621 1407.53 -17.8911 1408.29 -19.0684L1579.18 8.00003ZM1745.64 232.325C1746.45 231.296 1746.91 230.137 1746.91 228.913C1746.91 228.793 1746.89 228.672 1746.88 228.543L1831.78 217.697L1870.11 285.72C1869 286.109 1868.01 286.601 1867.16 287.185L1745.64 232.325ZM1616.1 273.966C1615.92 273.817 1615.75 273.678 1615.56 273.539L1682.42 215.175L1723.41 227.551C1723.28 227.996 1723.2 228.45 1723.2 228.913C1723.2 230.026 1723.58 231.073 1724.24 232.019L1616.1 273.966ZM1208.03 259.328C1207.79 257.159 1206.13 255.24 1203.64 253.952L1296.06 152.195C1297.43 152.547 1298.91 152.751 1300.46 152.751C1304.21 152.751 1307.55 151.629 1309.72 149.877L1596.21 274.92C1595.53 275.727 1595.09 276.617 1594.9 277.562L1594.92 277.442L1208.03 259.328ZM454.507 100.292C454.608 99.9028 454.666 99.5135 454.666 99.1056C454.666 97.7893 454.147 96.5471 453.226 95.4625L590.688 26.5771L720.792 147.578C719.842 148.218 719.064 148.96 718.517 149.785L454.507 100.292ZM273.384 168.288C272.866 167.926 272.304 167.592 271.685 167.296L370.987 67.8935L432.158 95.787C431.395 96.7881 430.963 97.9191 430.963 99.1056C430.963 100.283 431.381 101.386 432.115 102.378L273.384 168.288ZM23.0112 134.489L-2.70721 27.1241C-1.45441 26.8923 -0.287958 26.5308 0.763241 26.058L85.1184 74.123L28.3679 134.888C27.1151 134.6 25.7905 134.434 24.3793 134.434C23.9329 134.434 23.472 134.461 23.0112 134.489Z" fill="#305EC7"/>
</g>
</svg>
