<svg width="1356" height="249" viewBox="0 0 1356 249" fill="none" xmlns="http://www.w3.org/2000/svg">
<path d="M1355.63 7.10674C1355.63 4.01984 1351.74 1.51697 1346.95 1.51697C1345.98 1.51697 1345.05 1.61894 1344.18 1.81361L1296.79 -65.8945C1299.2 -66.8864 1300.78 -68.6199 1300.78 -70.5944C1300.78 -73.6813 1296.89 -76.1842 1292.1 -76.1842C1288.5 -76.1842 1285.42 -74.7752 1284.11 -72.7728L1089.4 -105.246C1089.43 -105.44 1089.45 -105.635 1089.45 -105.839C1089.45 -108.926 1085.56 -111.429 1080.76 -111.429C1075.97 -111.429 1072.08 -108.926 1072.08 -105.839C1072.08 -105.45 1072.14 -105.079 1072.25 -104.708L967.291 -79.9756C965.822 -81.7184 962.957 -82.8957 959.659 -82.8957C954.864 -82.8957 950.976 -80.3928 950.976 -77.3059C950.976 -76.0544 951.624 -74.8956 952.704 -73.9686L866.203 -17.8574C864.763 -18.5433 862.992 -18.9512 861.062 -18.9512C858.96 -18.9512 857.03 -18.4692 855.533 -17.672L640.008 -142.576C640.915 -143.457 641.462 -144.523 641.462 -145.663C641.462 -148.75 637.575 -151.253 632.779 -151.253C627.984 -151.253 624.096 -148.75 624.096 -145.663C624.096 -144.875 624.355 -144.124 624.816 -143.447L327.254 -24.4298C326.578 -27.081 323.006 -29.1019 318.701 -29.1019C313.906 -29.1019 310.018 -26.5989 310.018 -23.512C310.018 -23.3359 310.032 -23.1598 310.061 -22.9929L184.838 -3.15515C183.542 -5.19455 180.432 -6.62213 176.803 -6.62213C172.44 -6.62213 168.84 -4.54564 168.221 -1.85733H5.03999C4.42081 -4.5549 0.820862 -6.62213 -3.54234 -6.62213C-6.11995 -6.62213 -8.43835 -5.88977 -10.0368 -4.7403L-118.181 -50.1726C-117.706 -50.8678 -117.432 -51.6372 -117.432 -52.4437C-117.432 -55.5306 -121.32 -58.0335 -126.115 -58.0335C-130.91 -58.0335 -134.798 -55.5306 -134.798 -52.4437C-134.798 -49.6164 -131.544 -47.2896 -127.31 -46.9095L-130.507 129.165C-134.741 129.536 -138.01 131.872 -138.01 134.699C-138.01 137.786 -134.122 140.289 -129.326 140.289C-127.613 140.289 -126.014 139.964 -124.661 139.408L-38.4768 203.232C-39.7728 204.205 -40.5648 205.476 -40.5648 206.866C-40.5648 209.953 -36.6768 212.456 -31.8816 212.456C-27.0864 212.456 -23.1984 209.953 -23.1984 206.866C-23.1984 205.967 -23.5296 205.123 -24.12 204.363L64.9151 164.168C66.4991 165.244 68.7311 165.911 71.2079 165.911C73.8287 165.911 76.1616 165.16 77.76 163.983L157.147 194.778C156.802 195.38 156.614 196.02 156.614 196.697C156.614 199.784 160.502 202.287 165.298 202.287C170.093 202.287 173.981 199.784 173.981 196.697L174.067 197.513L457.546 184.247C458.41 186.75 461.866 188.613 466.013 188.613C468.058 188.613 469.944 188.159 471.427 187.39L558.447 239.58C557.482 240.479 556.92 241.573 556.92 242.75C556.92 245.837 560.808 248.34 565.603 248.34C570.398 248.34 574.286 245.837 574.286 242.75C574.286 241.656 573.797 240.637 572.947 239.775L709.286 164.539C710.813 165.392 712.8 165.911 714.974 165.911C719.77 165.911 723.658 163.408 723.658 160.321C723.658 159.144 723.096 158.059 722.131 157.16L802.685 108.947C804.168 109.716 806.055 110.171 808.099 110.171C812.895 110.171 816.782 107.668 816.782 104.581C816.782 104.358 816.754 104.145 816.725 103.932L1010.28 67.6491C1011.69 69.5124 1014.64 70.8009 1018.08 70.8009C1020.63 70.8009 1022.9 70.0964 1024.49 68.9748L1140.8 117.262C1140.26 117.995 1139.95 118.801 1139.95 119.663C1139.95 122.75 1143.84 125.253 1148.63 125.253C1153.3 125.253 1157.1 122.88 1157.3 119.913L1316.82 99.0652C1318.2 100.965 1321.2 102.282 1324.67 102.282C1329.47 102.282 1333.35 99.779 1333.35 96.6921C1333.35 94.4024 1331.22 92.4371 1328.16 91.575L1347.05 12.6873C1351.81 12.6595 1355.63 10.1751 1355.63 7.10674ZM466.027 177.452C464.89 177.452 463.795 177.601 462.802 177.86L400.075 108.789L471.83 167.441L467.237 177.517C466.834 177.471 466.43 177.452 466.027 177.452ZM160.718 191.969L112.133 149.559L169.546 132.215C170.698 133.327 172.454 134.161 174.514 134.514L164.275 191.163C162.994 191.255 161.784 191.543 160.718 191.969ZM-31.8672 201.285C-33.5808 201.285 -35.1792 201.61 -36.5328 202.166L-122.717 138.342C-122.04 137.832 -121.507 137.239 -121.147 136.59L-2.17441 151.793L-30.1248 201.397C-30.7008 201.323 -31.2768 201.285 -31.8672 201.285ZM1074.87 -101.732C1076.43 -100.815 1078.49 -100.24 1080.76 -100.24C1082.75 -100.24 1084.58 -100.676 1086.05 -101.399L1205.88 -26.7473C1205.63 -26.5155 1205.4 -26.2652 1205.19 -26.0057L1009.07 -67.6743L1074.87 -101.732ZM1153.41 115.01L1211.83 -17.95C1212.19 -17.9222 1212.57 -17.9037 1212.94 -17.9037C1214.12 -17.9037 1215.24 -18.0613 1216.27 -18.3301L1276.89 46.5877L1155.12 115.964C1154.62 115.594 1154.04 115.278 1153.41 115.01ZM1220.1 -26.6453L1238.43 -37.5561L1337.33 4.65022L1221.44 -22.3904C1221.55 -22.7519 1221.61 -23.1227 1221.61 -23.5028C1221.61 -24.6615 1221.06 -25.7461 1220.1 -26.6453ZM1218.37 -27.8504C1216.89 -28.6198 1214.99 -29.0833 1212.93 -29.0833C1210.94 -29.0833 1209.11 -28.6476 1207.64 -27.9246L1091.61 -100.212L1236.24 -38.4831L1218.37 -27.8504ZM1193.92 -26.6731L986.213 -52.2027C986.213 -52.2769 986.227 -52.351 986.227 -52.4344C986.227 -53.4634 985.781 -54.4275 985.032 -55.2525L1006.68 -66.4507L1193.92 -26.6731ZM983.434 -56.5318C981.878 -57.4495 979.819 -58.0242 977.544 -58.0242C976.694 -58.0242 975.874 -57.9408 975.096 -57.7925L964.426 -72.6338C965.693 -73.1714 966.73 -73.913 967.406 -74.7937L1003.78 -67.0625L983.434 -56.5318ZM959.659 -71.7068C960.509 -71.7068 961.33 -71.7902 962.107 -71.9385L972.778 -57.0972C970.416 -56.0961 968.861 -54.3811 968.861 -52.4252C968.861 -51.7855 969.034 -51.1737 969.35 -50.599L868.09 -16.6244C868.061 -16.643 868.047 -16.6615 868.018 -16.6893L954.518 -72.8006C955.958 -72.1146 957.73 -71.7068 959.659 -71.7068ZM707.746 157.244L633.816 134.912L676.627 65.8322C677.275 65.9249 677.938 65.9899 678.629 65.9899C678.874 65.9899 679.104 65.9806 679.349 65.962L711.792 155.139C710.122 155.566 708.725 156.298 707.746 157.244ZM-123.826 130.379L-30.4704 29.6421L30.5279 81.2204C29.0015 82.2308 28.0656 83.6028 28.0656 85.123C28.0656 85.67 28.1952 86.1984 28.4256 86.7083L-122.069 131.649C-122.558 131.167 -123.149 130.741 -123.826 130.379ZM-119.549 -48.7728L-11.4335 -3.34979C-11.9375 -2.636 -12.2256 -1.84802 -12.2256 -1.01373C-12.2256 0.729034 -10.9872 2.28638 -9.04324 3.31534L-30.7296 26.7128L-119.794 -48.5967C-119.707 -48.6523 -119.621 -48.7172 -119.549 -48.7728ZM77.904 58.991L42.4512 80.9145C40.9248 80.0617 38.9376 79.5333 36.7488 79.5333C36.3168 79.5333 35.9136 79.5611 35.496 79.5982L0.158386 4.04765C0.532776 3.93642 0.892761 3.80666 1.22397 3.6676L77.904 58.991ZM171.49 3.39874C172.642 3.97348 174.01 4.36282 175.522 4.50188V123.594C174.254 123.714 173.059 124.011 172.037 124.446L81.4465 59.0744L171.49 3.39874ZM853.114 -11.0995L733.594 37.2065L647.568 -38.3904C648.475 -38.9651 649.166 -39.6697 649.613 -40.4483L852.408 -13.658C852.394 -13.5561 852.379 -13.4541 852.379 -13.3522C852.379 -12.5457 852.653 -11.7855 853.114 -11.0995ZM398.059 97.5449C397.699 96.6457 397.008 95.83 396.058 95.1625L447.206 59.0744L500.04 92.5483C498.182 93.4568 496.901 94.838 496.656 96.4139L398.059 97.5449ZM641.462 -36.7681C641.693 -36.7681 641.938 -36.7774 642.168 -36.7867L674.827 53.5031L675.447 55.2088C673.459 55.7187 671.832 56.6827 670.882 57.897L568.339 36.2331L638.078 -37.2038C639.115 -36.9257 640.267 -36.7681 641.462 -36.7681ZM670.075 59.4545C669.989 59.7604 669.946 60.0756 669.946 60.4C669.946 60.7337 670.003 61.0581 670.09 61.3826L513.533 95.2645C513.389 94.9957 513.216 94.7268 513.029 94.4765L566.971 37.67L670.075 59.4545ZM511.402 93.0304C510.854 92.6874 510.235 92.3815 509.573 92.1405L503.698 53.021L499.853 27.4822C502.286 27.0929 504.317 26.0546 505.454 24.6641L564.48 37.1323L511.402 93.0304ZM493.027 26.7406C494.266 27.2597 495.734 27.5842 497.304 27.6306L501.192 53.4661L506.909 91.5008C506.376 91.4359 505.843 91.3988 505.282 91.3988C504.259 91.3988 503.294 91.5193 502.387 91.7233L448.934 57.8508L493.027 26.7406ZM678.629 54.8009C678.398 54.8009 678.154 54.8102 677.923 54.8195L644.659 -37.1667C644.947 -37.2409 645.235 -37.3243 645.509 -37.417L731.419 38.0778L685.21 56.7569C683.626 55.561 681.264 54.8009 678.629 54.8009ZM635.89 -38.0752L565.834 35.6954L506.29 23.1161C506.39 22.7731 506.448 22.4208 506.448 22.0593C506.448 21.1972 506.131 20.3906 505.598 19.6583L635.155 -38.5294C635.386 -38.3626 635.63 -38.2143 635.89 -38.0752ZM491.112 25.6561L447.106 56.7106L325.714 -20.2026C325.886 -20.3602 326.059 -20.5271 326.218 -20.694L489.283 20.9006C489.154 21.2806 489.096 21.67 489.096 22.0686C489.082 23.4313 489.845 24.6827 491.112 25.6561ZM445.378 57.9249L394.056 94.1336C392.76 93.6423 391.248 93.3455 389.635 93.3455C389.102 93.3455 388.584 93.3827 388.08 93.4383L322.891 -18.6082C323.251 -18.738 323.582 -18.877 323.899 -19.0346L445.378 57.9249ZM-3.54234 4.57605C-3.12474 4.57605 -2.70715 4.54823 -2.28955 4.51115L24.4368 61.7534L32.9904 80.0802C32.8465 80.1266 32.688 80.1729 32.544 80.2193L-29.0736 28.1218L-6.86882 4.15889C-5.81763 4.42772 -4.70874 4.57605 -3.54234 4.57605ZM170.122 125.54C169.949 125.67 169.79 125.809 169.632 125.957L45.0288 86.8102C45.288 86.2818 45.4321 85.707 45.4321 85.123C45.4321 84.0385 44.9424 83.0188 44.1072 82.166L79.6032 60.2238L170.122 125.54ZM398.318 99.1857L496.757 98.0547C497.29 99.8346 499.147 101.318 501.638 102.059L472.709 165.494L395.971 102.764C397.339 101.828 398.218 100.576 398.318 99.1857ZM504.086 102.532C504.475 102.569 504.878 102.588 505.282 102.588C505.613 102.588 505.944 102.569 506.261 102.551L562.162 237.633C561.859 237.717 561.571 237.809 561.298 237.911L474.638 167.079L504.086 102.532ZM513.965 96.896L670.91 62.9307C671.674 63.8855 672.84 64.6827 674.28 65.2204L631.526 134.208L513.619 98.5924C513.85 98.0825 513.979 97.5449 513.979 96.9887C513.965 96.9609 513.965 96.9331 513.965 96.896ZM686.578 58.1474L732.931 39.4127L802.354 100.419C801.965 100.641 801.605 100.882 801.274 101.151L686.808 62.254C687.125 61.67 687.312 61.0489 687.312 60.4C687.312 59.5935 687.053 58.8333 686.578 58.1474ZM808.114 99.0096C806.832 99.0096 805.608 99.1949 804.499 99.5194L735.106 38.5413L854.482 -9.709C855.302 -9.08791 856.325 -8.59665 857.491 -8.25365L809.813 99.1208C809.251 99.0467 808.69 99.0096 808.114 99.0096ZM852.912 -15.2618L650.117 -42.052C650.131 -42.154 650.146 -42.256 650.146 -42.358C650.146 -45.2687 646.69 -47.6604 642.269 -47.92L634.507 -140.175C635.933 -140.36 637.229 -140.768 638.294 -141.343L853.819 -16.439C853.459 -16.0682 853.157 -15.6789 852.912 -15.2618ZM631.973 -140.092L639.734 -47.8365C635.918 -47.3359 633.024 -45.2317 632.808 -42.6639L547.171 -37.519L629.957 -140.37C630.605 -140.231 631.267 -140.129 631.973 -140.092ZM633.038 -41.0231C633.197 -40.6152 633.413 -40.2351 633.701 -39.8643L504.187 18.3049C503.784 18.0268 503.338 17.7673 502.862 17.5448L545.789 -35.7762L633.038 -41.0231ZM500.587 16.7753C499.709 16.5807 498.758 16.4695 497.765 16.4695C494.496 16.4695 491.645 17.6375 490.162 19.3524L327.139 -22.2328C327.197 -22.3811 327.226 -22.5202 327.269 -22.6685L542.75 -35.6094L500.587 16.7753ZM318.701 -17.9037C319.32 -17.9037 319.925 -17.9501 320.515 -18.0242L385.675 93.9759C385.027 94.1891 384.437 94.4579 383.89 94.7639L262.829 38.189L315.374 -18.3209C316.397 -18.0613 317.52 -17.9037 318.701 -17.9037ZM382.248 96.0246C381.456 96.8589 380.981 97.8323 380.966 98.8798L189.36 126.467L184.882 127.107C184.334 126.198 183.442 125.401 182.29 124.789L261.504 39.5888L382.248 96.0246ZM180.101 123.955C179.453 123.788 178.776 123.668 178.056 123.594V4.50188C179.971 4.31647 181.685 3.74174 182.981 2.8889L259.43 38.6248L180.101 123.955ZM169.718 2.2215L79.7472 57.8508L3.13928 2.56448C4.13287 1.79506 4.80962 0.849503 5.05441 -0.188736H168.221C168.422 0.69191 168.941 1.51697 169.718 2.2215ZM-121.795 -47.5863L-32.1408 28.2238L-126.029 129.536C-126.634 129.378 -127.282 129.258 -127.958 129.193L-124.747 -46.9188C-123.682 -47.0208 -122.688 -47.2525 -121.795 -47.5863ZM-120.658 134.977C-120.658 134.884 -120.643 134.801 -120.643 134.708C-120.643 134.161 -120.773 133.633 -121.003 133.123L29.4912 88.1822C30.2832 88.9516 31.3488 89.5912 32.616 90.0269L-1.31046 150.217L-120.658 134.977ZM35.0207 90.6016C35.5823 90.6758 36.1584 90.7129 36.7488 90.7129C36.8064 90.7129 36.8784 90.7036 36.936 90.7036L67.9249 155.167C65.6641 155.77 63.8785 156.966 63.0577 158.458L1.23837 150.56L35.0207 90.6016ZM71.2224 154.741C70.9487 154.741 70.6752 154.75 70.4016 154.769L39.4705 90.4256C39.9312 90.3236 40.392 90.2031 40.8096 90.0547L108.23 148.919L78.9265 157.772C77.4865 155.974 74.5775 154.741 71.2224 154.741ZM42.8688 89.0813C43.1424 88.9052 43.3873 88.7198 43.6177 88.5252L168.494 127.45C168.235 127.978 168.106 128.535 168.106 129.119C168.106 129.675 168.235 130.212 168.48 130.722L110.606 148.205L42.8688 89.0813ZM171.403 192.729C170.179 191.951 168.61 191.413 166.853 191.209L177.077 134.699C181.742 134.606 185.486 132.141 185.486 129.119C185.486 128.979 185.472 128.85 185.458 128.711L233.294 121.823L381.326 100.502C381.398 100.669 381.485 100.826 381.586 100.993L171.403 192.729ZM469.67 177.971L473.76 169.017L554.342 234.889L473.184 186.212C474.149 185.313 474.71 184.219 474.71 183.042C474.71 180.789 472.651 178.861 469.67 177.971ZM565.618 237.17C565.286 237.17 564.955 237.188 564.638 237.207L508.723 102.124C510.278 101.689 511.589 100.984 512.51 100.085L630.562 135.737L567.605 237.318C566.971 237.225 566.294 237.17 565.618 237.17ZM569.981 237.939L632.88 136.442L706.666 158.727C706.435 159.237 706.291 159.774 706.291 160.331C706.291 161.424 706.781 162.444 707.63 163.306L571.291 238.542C570.888 238.319 570.442 238.115 569.981 237.939ZM714.989 154.741C714.744 154.741 714.514 154.75 714.269 154.769L681.826 65.5912C683.352 65.2019 684.662 64.5437 685.613 63.7001L800.007 102.579C799.632 103.209 799.416 103.886 799.416 104.599C799.416 105.777 799.978 106.861 800.942 107.76L720.389 155.974C718.92 155.204 717.034 154.741 714.989 154.741ZM812.376 99.7326C812.318 99.714 812.275 99.6863 812.218 99.6677L859.939 -7.80865C860.314 -7.78085 860.688 -7.75304 861.077 -7.75304C863.395 -7.75304 865.512 -8.3463 867.067 -9.30112L907.718 11.0743L812.376 99.7326ZM868.622 -10.5989C869.342 -11.4147 869.746 -12.351 869.746 -13.3429C869.746 -13.9825 869.573 -14.5943 869.256 -15.169L970.517 -49.1436C970.834 -48.8562 971.208 -48.5966 971.597 -48.3556L909.158 9.72089L868.622 -10.5989ZM973.714 -47.4194C974.866 -47.0486 976.176 -46.8354 977.544 -46.8354C977.746 -46.8354 977.947 -46.8446 978.149 -46.8539L1012.87 53.9944L1014.94 60.0199C1013.83 60.298 1012.82 60.7151 1011.99 61.2528L911.189 10.7313L973.714 -47.4194ZM1018.09 59.6305C1017.88 59.6305 1017.66 59.6398 1017.45 59.6491L1015.5 54.0037L980.654 -47.2154C980.813 -47.2525 980.971 -47.2989 981.115 -47.3359L1069.33 40.97L1024.46 61.429C1022.88 60.3259 1020.61 59.6305 1018.09 59.6305ZM983.261 -48.2259C984.37 -48.8562 985.234 -49.6627 985.738 -50.5805L1204.26 -23.716C1204.26 -23.6418 1204.24 -23.5677 1204.24 -23.4843C1204.24 -22.5758 1204.59 -21.7229 1205.18 -20.9628L1071.42 40.0339L983.261 -48.2259ZM1206.66 -19.6279C1207.43 -19.1181 1208.35 -18.6916 1209.37 -18.395L1151.06 114.314C1150.3 114.175 1149.48 114.092 1148.64 114.092C1147.62 114.092 1146.66 114.212 1145.75 114.416L1072.81 41.4058L1206.66 -19.6279ZM1315.99 96.7013C1315.99 96.9701 1316.03 97.239 1316.09 97.4986L1157.04 118.282C1156.91 117.957 1156.74 117.651 1156.54 117.355L1278.23 48.0246L1319.5 92.2239C1317.37 93.2343 1315.99 94.8658 1315.99 96.7013ZM1218.46 -19.183C1219.32 -19.6372 1220.04 -20.2026 1220.57 -20.8423L1338.31 6.62474C1338.29 6.78233 1338.26 6.94916 1338.26 7.10674C1338.26 8.41382 1338.97 9.60966 1340.12 10.5552L1278.84 45.4753L1218.46 -19.183ZM1341.91 2.56448C1341.16 2.90747 1340.51 3.32457 1339.96 3.79735L1240.37 -38.7056L1286.65 -66.2375C1288.14 -65.4681 1290.04 -65.0046 1292.1 -65.0046C1292.92 -65.0046 1293.71 -65.0787 1294.46 -65.2178L1341.91 2.56448ZM1283.46 -71.1784C1283.43 -70.9837 1283.41 -70.7891 1283.41 -70.5851C1283.41 -69.4171 1283.98 -68.3325 1284.93 -67.4333L1238.18 -39.6326L1088.63 -103.466C1088.67 -103.531 1088.73 -103.586 1088.77 -103.651L1283.46 -71.1784ZM1073.13 -103.16C1073.17 -103.114 1073.23 -103.058 1073.28 -103.012L1006.16 -68.2861L968.213 -76.351C968.299 -76.6569 968.342 -76.9814 968.342 -77.3059C968.342 -77.6952 968.285 -78.066 968.17 -78.4368L1073.13 -103.16ZM626.155 -142.038C626.602 -141.695 627.12 -141.389 627.696 -141.13L544.147 -37.3429L332.654 -24.643L626.155 -142.038ZM310.666 -21.3799C311.213 -20.5178 312.091 -19.7577 313.2 -19.1737L260.77 37.2157L184.493 1.57259C185.126 0.803177 185.486 -0.0774536 185.486 -1.01373C185.486 -1.18987 185.472 -1.36604 185.443 -1.5329L310.666 -21.3799ZM-25.5744 203.028C-26.208 202.602 -26.928 202.24 -27.7344 201.953L0.345581 152.108L62.5535 160.062C62.5535 160.155 62.5393 160.238 62.5393 160.331C62.5393 161.23 62.8703 162.073 63.4607 162.834L-25.5744 203.028ZM79.1423 162.611C79.6319 161.916 79.9056 161.146 79.9056 160.331C79.9056 159.988 79.848 159.654 79.7616 159.329L109.786 150.263L158.774 193.026C158.63 193.128 158.501 193.23 158.386 193.341L79.1423 162.611ZM173.894 195.89L173.909 195.983C173.765 195.288 173.434 194.639 172.944 194.046L382.867 102.421C384.466 103.7 386.899 104.525 389.65 104.525C390.787 104.525 391.882 104.377 392.875 104.117L460.584 178.676C458.77 179.621 457.546 181.021 457.373 182.616L173.894 195.89ZM816.062 102.356C815.659 101.753 815.083 101.207 814.392 100.743L909.734 12.0755L1010.46 62.5506C1009.79 63.3478 1009.41 64.2563 1009.41 65.2204C1009.41 65.517 1009.45 65.8044 1009.53 66.0918L816.062 102.356ZM1025.93 67.6213C1026.46 66.8982 1026.78 66.0825 1026.78 65.2204C1026.78 64.349 1026.46 63.524 1025.9 62.7824L1070.71 42.3514L1143.48 115.186C1143.03 115.399 1142.61 115.64 1142.22 115.909L1025.93 67.6213ZM1324.67 91.1115C1323.65 91.1115 1322.67 91.232 1321.75 91.4452L1280.16 46.9214L1341.98 11.7047C1342.74 12.0477 1343.61 12.3165 1344.53 12.4834L1325.68 91.1578C1325.35 91.13 1325.02 91.1115 1324.67 91.1115Z" fill="white"/>
</svg>
