<svg width="1440" height="809" viewBox="0 0 1440 809" fill="none" xmlns="http://www.w3.org/2000/svg">
<g clip-path="url(#clip0_1_3)">
<rect width="1440" height="809" fill="white"/>
<rect width="1440" height="809" fill="url(#paint0_linear_1_3)"/>
<mask id="mask0_1_3" style="mask-type:luminance" maskUnits="userSpaceOnUse" x="0" y="-95" width="1440" height="867">
<path d="M1440 -95H0V772H1440V-95Z" fill="white"/>
</mask>
<g mask="url(#mask0_1_3)">
<g opacity="0.3">
<path d="M-6.16324 -69.3455L19.6272 31.3478C15.4512 32.4489 12.5423 34.9633 12.5423 37.8764C12.5423 41.8212 17.8559 45.0118 24.3935 45.0118C29.1311 45.0118 33.2208 43.3298 35.1072 40.9109L252.806 67.5191C253.08 71.3165 258.264 74.3423 264.629 74.3423C271.181 74.3423 276.48 71.1431 276.48 67.207C276.48 66.1059 276.062 65.0741 275.314 64.1464L434.03 2.50274C436.205 3.93331 439.315 4.83499 442.786 4.83499C447.48 4.83499 451.512 3.18767 453.442 0.81209L717.595 47.1272C717.538 47.396 717.509 47.6735 717.509 47.9596C717.509 51.9045 722.808 55.095 729.36 55.095C732.154 55.095 734.731 54.5054 736.747 53.5343L846.677 115.074C845.366 116.218 844.589 117.614 844.589 119.114C844.589 123.059 849.902 126.25 856.44 126.25C859.406 126.25 862.114 125.591 864.202 124.498L1050.26 220.536C1049.11 221.637 1048.44 222.937 1048.44 224.333C1048.44 228.278 1053.75 231.469 1060.29 231.469C1066.84 231.469 1072.14 228.278 1072.14 224.333C1072.14 222.833 1071.36 221.438 1070.05 220.293L1188.81 153.681C1190.84 154.653 1193.4 155.242 1196.19 155.242C1201.85 155.242 1206.58 152.858 1207.76 149.667L1594.64 166.6L1594.77 165.551C1594.77 169.496 1600.08 172.686 1606.62 172.686C1613.17 172.686 1618.47 169.496 1618.47 165.551C1618.47 164.692 1618.2 163.869 1617.74 163.106L1726.08 123.805C1728.26 125.305 1731.46 126.267 1735.03 126.267C1738.41 126.267 1741.45 125.409 1743.62 124.039L1865.13 175.348C1864.32 176.31 1863.86 177.394 1863.86 178.538C1863.86 182.483 1869.18 185.674 1875.72 185.674C1882.25 185.674 1887.57 182.475 1887.57 178.538C1887.57 176.77 1886.49 175.148 1884.72 173.9L2002.33 92.428C2004.18 93.1389 2006.35 93.5551 2008.7 93.5551C2015.25 93.5551 2020.55 90.3559 2020.55 86.4197C2020.55 82.8043 2016.09 79.8305 2010.3 79.3536L2005.92 -145.39C2011.69 -145.867 2016.14 -148.841 2016.14 -152.448C2016.14 -156.392 2010.85 -159.583 2004.29 -159.583C1997.74 -159.583 1992.44 -156.392 1992.44 -152.448C1992.44 -151.416 1992.82 -150.436 1993.48 -149.543L1845.89 -91.5494C1843.72 -93.0233 1840.56 -93.951 1837.04 -93.951C1831.09 -93.951 1826.17 -91.3066 1825.33 -87.8646H1602.65C1601.8 -91.3066 1596.89 -93.951 1590.94 -93.951C1585.99 -93.951 1581.75 -92.1216 1579.98 -89.5206L1409.08 -114.846C1409.11 -115.062 1409.14 -115.288 1409.14 -115.513C1409.14 -119.458 1403.84 -122.649 1397.29 -122.649C1391.41 -122.649 1386.55 -120.065 1385.61 -116.684L979.517 -268.599C980.136 -269.466 980.496 -270.429 980.496 -271.435C980.496 -275.379 975.183 -278.57 968.645 -278.57C962.093 -278.57 956.794 -275.371 956.794 -271.435C956.794 -269.978 957.528 -268.625 958.767 -267.49L664.632 -108.057C662.587 -109.08 659.952 -109.687 657.087 -109.687C654.466 -109.687 652.046 -109.167 650.074 -108.291L532.022 -179.914C533.506 -181.102 534.384 -182.576 534.384 -184.18C534.384 -188.125 529.07 -191.315 522.533 -191.315C518.04 -191.315 514.138 -189.806 512.122 -187.587L368.87 -219.154C369.029 -219.623 369.115 -220.099 369.115 -220.594C369.115 -224.539 363.802 -227.729 357.264 -227.729C350.712 -227.729 345.413 -224.53 345.413 -220.594C345.413 -220.342 345.442 -220.091 345.485 -219.839L79.7616 -178.388C77.9616 -180.946 73.7569 -182.74 68.8465 -182.74C62.2945 -182.74 56.9951 -179.55 56.9951 -175.605C56.9951 -173.082 59.1696 -170.871 62.4384 -169.605L-2.24648 -83.1915C-3.42728 -83.4343 -4.70888 -83.5643 -6.01928 -83.5643C-12.5713 -83.5643 -17.8704 -80.3738 -17.8704 -76.4289C-17.856 -72.5708 -12.6288 -69.3975 -6.16324 -69.3455ZM1194.6 141.015L1188.32 128.148L1286.24 53.2915L1200.63 141.457C1199.26 141.127 1197.78 140.937 1196.22 140.937C1195.68 140.945 1195.13 140.971 1194.6 141.015ZM1608.03 158.441L1594.05 86.1335C1596.86 85.674 1599.26 84.6163 1600.83 83.1944L1679.2 105.329L1612.9 159.464C1611.45 158.927 1609.8 158.563 1608.03 158.441ZM1873.37 171.507L1835.22 108.19L1997.58 88.7866C1998.07 89.6102 1998.81 90.3645 1999.73 91.0234L1882.11 172.487C1880.27 171.776 1878.09 171.36 1875.74 171.36C1874.92 171.368 1874.13 171.412 1873.37 171.507ZM455.155 -171.938L187.488 -118.756C187.214 -119.085 186.898 -119.397 186.538 -119.701L350.078 -214.993C352.08 -214.065 354.571 -213.51 357.278 -213.51C360.389 -213.51 363.197 -214.239 365.314 -215.409L455.155 -171.938ZM255.802 62.4558L89.6112 -26.0909L172.354 -108.959C173.75 -108.612 175.291 -108.413 176.904 -108.413C177.422 -108.413 177.912 -108.439 178.416 -108.473L258.134 61.242C257.27 61.5801 256.478 61.9963 255.802 62.4558ZM165.053 -115.548C165.053 -115.062 165.139 -114.586 165.283 -114.126L7.11352 -79.6108L142.085 -133.486L167.112 -119.562C165.816 -118.426 165.053 -117.039 165.053 -115.548ZM145.066 -134.683L342.447 -213.467L184.09 -121.201C182.088 -122.128 179.597 -122.683 176.89 -122.683C174.082 -122.683 171.504 -122.094 169.459 -121.105L145.066 -134.683ZM458.395 -170.368L487.93 -156.08C486.893 -155.022 486.302 -153.791 486.302 -152.482C486.302 -152.387 486.317 -152.291 486.331 -152.187L202.882 -119.597L458.395 -170.368ZM462.327 -171.157L511.963 -181.024C512.899 -179.905 514.31 -178.952 516.038 -178.267L501.466 -159.331C500.4 -159.522 499.291 -159.626 498.125 -159.626C495.015 -159.626 492.206 -158.898 490.09 -157.727L462.327 -171.157ZM529.56 -178.483L647.611 -106.861C647.582 -106.835 647.539 -106.809 647.511 -106.783L509.328 -150.15C509.746 -150.878 509.99 -151.659 509.99 -152.482C509.99 -154.979 507.859 -157.164 504.648 -158.447L519.207 -177.382C520.272 -177.192 521.381 -177.088 522.547 -177.088C525.182 -177.088 527.602 -177.608 529.56 -178.483ZM860.847 112.464L905.112 -1.36409C905.429 -1.34677 905.76 -1.33806 906.091 -1.33806C907.027 -1.33806 907.934 -1.40745 908.813 -1.53751L967.234 86.6364L866.347 115.135C865.008 113.947 863.093 113.002 860.847 112.464ZM1998.84 82.4661L1793.45 25.1054C1793.76 24.4638 1793.94 23.7876 1793.94 23.0853C1793.94 21.1519 1792.66 19.3919 1790.57 18.1087L1873.81 -47.7225L2001.23 80.8622C2000.3 81.3217 1999.5 81.8592 1998.84 82.4661ZM1995.71 -147.592L1874.16 -51.468L1844.57 -81.3362C1847.22 -82.6453 1848.92 -84.6307 1848.92 -86.8589C1848.92 -87.9254 1848.51 -88.9311 1847.82 -89.8327L1995.38 -147.809C1995.49 -147.74 1995.61 -147.662 1995.71 -147.592ZM1830.57 -80.894C1831.03 -80.7119 1831.52 -80.5472 1832.03 -80.4085L1783.8 16.0279C1783.24 15.9759 1782.68 15.9499 1782.09 15.9499C1779.11 15.9499 1776.38 16.6175 1774.31 17.7099L1725.93 -10.2682L1830.57 -80.894ZM1721.09 -10.1554L1597.46 73.2846C1596.05 72.7298 1594.44 72.3483 1592.71 72.2009V-79.8016C1594.77 -79.9836 1596.64 -80.4778 1598.21 -81.2148L1721.09 -10.1554ZM668.952 -102.595C668.952 -102.725 668.938 -102.855 668.923 -102.985L945.691 -137.18C946.296 -136.183 947.247 -135.281 948.485 -134.553L831.082 -38.0642L667.958 -99.7252C668.592 -100.61 668.952 -101.572 668.952 -102.595ZM1154.45 37.5122C1154.1 35.5008 1152.36 33.7408 1149.83 32.5703L1221.93 -10.1554L1291.74 35.917C1290.44 36.7666 1289.49 37.807 1289 38.9515L1154.45 37.5122ZM961.431 -133.053L1056.6 -39.3213L916.661 -11.664C915.365 -13.2247 913.147 -14.4558 910.426 -15.0973L911.261 -17.2735L955.829 -132.515C956.146 -132.498 956.462 -132.489 956.794 -132.489C958.45 -132.489 960.019 -132.689 961.431 -133.053ZM1058.47 -37.4833L1132.1 35.0239C1131.83 35.3447 1131.6 35.6829 1131.41 36.0297L917.755 -7.21635C917.87 -7.62382 917.942 -8.04 917.942 -8.4735C917.942 -8.881 917.87 -9.28844 917.755 -9.67858L1058.47 -37.4833ZM1061.87 -38.1509L1142.42 -54.069C1143.98 -52.2916 1146.74 -50.9651 1150.07 -50.4709L1144.83 -17.8717L1136.81 32.0587C1135.9 32.3709 1135.05 32.7524 1134.32 33.1946L1061.87 -38.1509ZM1219.56 -11.6987L1146.61 31.5299C1145.38 31.2611 1144.05 31.1137 1142.65 31.1137C1141.89 31.1137 1141.16 31.1571 1140.44 31.2438L1148.24 -17.3082L1153.54 -50.2802C1155.69 -50.3496 1157.69 -50.7571 1159.37 -51.4247L1219.56 -11.6987ZM897.091 -13.1119L834.034 -36.9544L951.293 -133.321C951.667 -133.2 952.056 -133.096 952.459 -133.001L907.056 -15.5828C906.739 -15.6002 906.422 -15.6089 906.091 -15.6089C902.491 -15.6089 899.266 -14.6378 897.091 -13.1119ZM965.419 -134.726L1142.22 -60.4588C1141.49 -59.5311 1141.07 -58.4907 1141.07 -57.3983C1141.07 -56.9388 1141.14 -56.4879 1141.29 -56.0544L1060.01 -39.9976L964.411 -134.154C964.757 -134.336 965.088 -134.527 965.419 -134.726ZM1164.76 -57.3983C1164.76 -57.9098 1164.67 -58.404 1164.5 -58.8808L1387.05 -111.976C1387.25 -111.759 1387.48 -111.551 1387.73 -111.352L1222.06 -13.1726L1161.99 -52.8118C1163.72 -54.0517 1164.76 -55.6556 1164.76 -57.3983ZM1390.18 -109.852C1390.62 -109.652 1391.07 -109.47 1391.56 -109.306L1302.6 33.7147C1301.9 33.6367 1301.2 33.5933 1300.46 33.5933C1298.26 33.5933 1296.2 33.9662 1294.43 34.5904L1224.4 -11.6293L1390.18 -109.852ZM1841.59 -80.2524L1871.9 -49.6646L1787.82 16.8342C1787.62 16.7735 1787.41 16.7129 1787.21 16.6522L1798.89 -6.74812L1835.37 -79.8102C1835.93 -79.7582 1836.49 -79.7322 1837.07 -79.7322C1838.66 -79.7148 1840.19 -79.9143 1841.59 -80.2524ZM1723.61 -8.69887L1772.05 19.3139C1770.91 20.4063 1770.24 21.6981 1770.24 23.094C1770.24 23.8483 1770.44 24.5679 1770.78 25.2441L1600.73 75.218C1600.52 75.0359 1600.3 74.8539 1600.07 74.6892L1723.61 -8.69887ZM1291.85 45.6186L1187.12 125.686L1147.64 44.7256C1151.04 43.7806 1153.57 41.8906 1154.29 39.6104L1288.64 41.0495C1288.77 42.8182 1289.97 44.4135 1291.85 45.6186ZM1184.47 127.706L1066.2 218.117C1065.83 217.987 1065.43 217.866 1065.02 217.762L1141.33 45.3412C1141.76 45.3673 1142.21 45.3932 1142.67 45.3932C1143.22 45.3932 1143.76 45.3586 1144.3 45.3152L1184.47 127.706ZM1130.8 38.2491C1130.8 38.9601 1130.98 39.645 1131.31 40.2952L970.387 85.7521L912.038 -2.3091C913.997 -2.99403 915.595 -4.00842 916.632 -5.23089L1130.82 38.119C1130.82 38.1624 1130.8 38.2058 1130.8 38.2491ZM894.24 -8.4735C894.24 -7.64118 894.485 -6.85218 894.917 -6.10657L738.691 43.5465C738.245 43.2083 737.755 42.8963 737.222 42.6102L831.96 -35.2551L895.234 -11.3346C894.6 -10.4589 894.24 -9.48789 894.24 -8.4735ZM727.056 40.9542L661.997 -96.1011C663.581 -96.5346 664.978 -97.1676 666.101 -97.9565L829.008 -36.3736L734.299 41.4571C732.802 41.0409 731.131 40.8069 729.374 40.8069C728.582 40.8155 727.805 40.8675 727.056 40.9542ZM666.979 -106.531L961.114 -265.964C962.582 -265.236 964.354 -264.707 966.283 -264.473L955.699 -146.725C949.68 -146.387 944.957 -143.335 944.957 -139.625C944.957 -139.494 944.971 -139.364 944.986 -139.234L668.218 -105.04C667.901 -105.569 667.483 -106.072 666.979 -106.531ZM972.504 -264.724L1085.5 -133.452L968.631 -140.015C968.343 -143.292 964.382 -145.98 959.184 -146.621L969.768 -264.368C970.718 -264.421 971.626 -264.542 972.504 -264.724ZM1087.4 -131.232L1145.98 -63.1725C1145.32 -62.8864 1144.71 -62.5569 1144.17 -62.2015L967.407 -136.451C967.795 -136.92 968.098 -137.414 968.299 -137.925L1087.4 -131.232ZM1091.52 -131.007L1385.6 -114.49C1385.64 -114.299 1385.7 -114.117 1385.77 -113.927L1163.29 -60.8489C1161.27 -63.0425 1157.39 -64.5337 1152.92 -64.5337C1151.57 -64.5337 1150.29 -64.395 1149.08 -64.1435L1091.52 -131.007ZM1401.83 -108.95L1473.54 -36.8157L1308.33 35.4054C1307.59 35.0152 1306.79 34.6771 1305.89 34.3997L1394.81 -108.56C1395.62 -108.456 1396.44 -108.404 1397.29 -108.404C1398.9 -108.413 1400.43 -108.603 1401.83 -108.95ZM1475.34 -35.0124L1583.45 73.7355C1581.88 74.5158 1580.66 75.5301 1579.91 76.6919L1573.8 75.8683L1312.3 40.6508C1312.27 39.3156 1311.64 38.0758 1310.56 37.0094L1475.34 -35.0124ZM1478.16 -36.2522L1582.5 -81.865C1584.27 -80.7813 1586.61 -80.0443 1589.21 -79.8102V72.1922C1588.25 72.2789 1587.31 72.4263 1586.43 72.6517L1478.16 -36.2522ZM1602.68 -85.8012H1825.36C1825.69 -84.4747 1826.6 -83.2695 1827.96 -82.2812L1723.41 -11.7161L1600.62 -82.7233C1601.68 -83.625 1602.4 -84.6654 1602.68 -85.8012ZM2002.48 -145.442L2006.86 79.345C2005.93 79.4316 2005.06 79.5791 2004.22 79.7871L1876.09 -49.5259L1998.45 -146.292C1999.67 -145.867 2001.04 -145.581 2002.48 -145.442ZM1834.03 106.196L1787.73 29.3624C1789.46 28.7988 1790.91 27.9839 1791.99 27.0042L1997.38 84.3649C1997.06 85.0065 1996.89 85.6827 1996.89 86.385C1996.89 86.4977 1996.91 86.6104 1996.92 86.7318L1834.03 106.196ZM1830.57 106.612L1746.2 116.695C1745.06 114.797 1742.64 113.262 1739.55 112.499L1781.84 30.2207C1781.93 30.2207 1782.01 30.2294 1782.1 30.2294C1782.91 30.2294 1783.7 30.1773 1784.46 30.0906L1830.57 106.612ZM1724.52 115.82L1684.51 104.523L1776.53 29.3884C1777.12 29.5792 1777.72 29.7353 1778.36 29.8566L1736.14 111.988C1735.78 111.97 1735.4 111.953 1735.03 111.953C1730.46 111.961 1726.49 113.531 1724.52 115.82ZM1681.3 103.612L1602.32 81.2957C1602.63 80.6455 1602.82 79.9605 1602.82 79.2496C1602.82 78.504 1602.63 77.793 1602.29 77.1167L1772.71 27.429C1773.03 27.6804 1773.37 27.9231 1773.75 28.1486L1681.3 103.612ZM1311.48 43.3558C1311.61 43.1564 1311.74 42.9483 1311.84 42.7315L1513.87 69.938L1579.16 78.7294C1579.15 78.9028 1579.12 79.0675 1579.12 79.2409C1579.12 83.1077 1584.23 86.2462 1590.6 86.3676L1604.55 158.502C1602.14 158.762 1600 159.456 1598.33 160.444L1311.48 43.3558ZM1184.37 148.081C1184.37 149.581 1185.15 150.976 1186.46 152.121L1075.69 214.25L1185.68 130.168L1191.25 141.604C1187.19 142.74 1184.37 145.211 1184.37 148.081ZM1057.61 217.371L971.698 87.7115L1132.8 42.2027C1134.07 43.3471 1135.86 44.2575 1137.97 44.8037L1061.67 217.224C1061.24 217.198 1060.79 217.172 1060.33 217.172C1059.38 217.172 1058.47 217.241 1057.61 217.371ZM1052.57 218.923L866.506 122.886C867.658 121.785 868.334 120.484 868.334 119.097C868.334 118.386 868.162 117.701 867.83 117.051L968.53 88.6045L1054.37 218.152C1053.72 218.368 1053.13 218.628 1052.57 218.923ZM849.082 113.522L739.152 51.9824C740.463 50.8379 741.24 49.4422 741.24 47.9422C741.24 47.0319 740.952 46.1649 740.434 45.3586L896.558 -4.25985C897.869 -3.19343 899.654 -2.34381 901.728 -1.84962L857.462 111.979C857.146 111.961 856.814 111.953 856.483 111.953C853.675 111.961 851.112 112.551 849.082 113.522ZM593.438 -71.4264L648.922 -97.4277C651.053 -96.2052 653.918 -95.4509 657.101 -95.4509C657.619 -95.4509 658.138 -95.4769 658.642 -95.5203L723.773 41.6652C723.701 41.6912 723.629 41.7172 723.557 41.7432L593.438 -71.4264ZM591.451 -73.1517L506.232 -147.28C506.779 -147.592 507.269 -147.93 507.715 -148.295L645.898 -104.927C645.48 -104.199 645.235 -103.41 645.235 -102.595C645.235 -101.321 645.797 -100.124 646.776 -99.0923L591.451 -73.1517ZM588.701 -71.8685L451.123 -7.38975C449.986 -8.066 448.603 -8.60354 447.091 -8.95903L449.928 -16.6493L497.304 -145.373C497.578 -145.364 497.851 -145.347 498.139 -145.347C500.026 -145.347 501.797 -145.616 503.367 -146.084L588.701 -71.8685ZM434.117 -7.14697L372.874 -33.261L493.272 -145.98C493.474 -145.919 493.69 -145.867 493.906 -145.824L446.357 -16.632L443.707 -9.41851C443.419 -9.43583 443.117 -9.44454 442.814 -9.44454C439.373 -9.44454 436.277 -8.5515 434.117 -7.14697ZM370.022 -34.4748L187.459 -112.323C188.28 -113.294 188.741 -114.386 188.741 -115.548C188.741 -115.643 188.726 -115.739 188.712 -115.843L486.95 -150.133C487.627 -148.962 488.808 -147.922 490.334 -147.124L370.022 -34.4748ZM368.136 -32.7148L268.603 60.4703C267.365 60.2016 266.04 60.0542 264.643 60.0542C263.491 60.0542 262.397 60.1582 261.346 60.3403L181.771 -109.054C183.168 -109.436 184.421 -109.964 185.458 -110.623L368.136 -32.7148ZM31.4496 32.1454L87.7824 -24.2702L253.872 64.2244C253.584 64.6059 253.354 64.9961 253.181 65.4036L36.1151 38.8733C36.1871 38.5439 36.2449 38.2058 36.2449 37.859C36.2449 35.5268 34.3584 33.4459 31.4496 32.1454ZM86.9616 -27.5041L3.31207 -72.0766C4.89607 -73.2904 5.84649 -74.8163 5.84649 -76.4809C5.84649 -76.689 5.81763 -76.8971 5.78883 -77.0965L166.464 -112.158C167.198 -111.343 168.178 -110.623 169.358 -110.043L86.9616 -27.5041ZM65.6351 -168.799C66.6575 -168.626 67.7375 -168.522 68.8607 -168.522C71.6687 -168.522 74.2464 -169.111 76.2912 -170.1L139.464 -134.96L3.54235 -80.7119C2.79355 -81.3188 1.90079 -81.8477 0.892794 -82.2898L65.6351 -168.799ZM346.363 -217.863C346.421 -217.785 346.493 -217.707 346.55 -217.629L142.43 -136.157L78.6384 -171.643C79.9344 -172.787 80.6977 -174.174 80.6977 -175.666C80.6977 -175.917 80.6688 -176.169 80.6256 -176.42L346.363 -217.863ZM510.941 -185.662C510.782 -185.194 510.696 -184.717 510.696 -184.223C510.696 -183.807 510.768 -183.408 510.883 -183.009L459.087 -172.718L367.488 -217.039C367.546 -217.1 367.618 -217.16 367.675 -217.23L510.941 -185.662ZM1378.25 -117.005L1089.62 -133.217L975.6 -265.695C976.378 -266.033 977.083 -266.423 977.702 -266.857L1378.25 -117.005ZM1579.18 -87.5179C1579.15 -87.3011 1579.12 -87.0757 1579.12 -86.8503C1579.12 -85.6625 1579.61 -84.544 1580.47 -83.5557L1476.39 -38.0555L1404.84 -110.025C1406.35 -110.771 1407.53 -111.733 1408.29 -112.834L1579.18 -87.5179ZM1745.64 122.287C1746.45 121.325 1746.91 120.241 1746.91 119.097C1746.91 118.984 1746.89 118.871 1746.88 118.75L1831.78 108.606L1870.11 172.227C1869 172.591 1868.01 173.05 1867.16 173.596L1745.64 122.287ZM1616.1 161.233C1615.92 161.094 1615.75 160.964 1615.56 160.834L1682.42 106.248L1723.41 117.822C1723.28 118.239 1723.2 118.663 1723.2 119.097C1723.2 120.137 1723.58 121.117 1724.24 122.001L1616.1 161.233ZM1208.03 147.543C1207.79 145.514 1206.13 143.72 1203.64 142.515L1296.06 47.344C1297.43 47.6734 1298.91 47.8641 1300.46 47.8641C1304.21 47.8641 1307.55 46.8151 1309.72 45.1765L1596.21 162.126C1595.53 162.88 1595.09 163.713 1594.9 164.597L1594.92 164.484L1208.03 147.543ZM454.507 -1.19937C454.608 -1.56349 454.666 -1.9276 454.666 -2.3091C454.666 -3.54024 454.147 -4.702 453.226 -5.7164L590.688 -70.1432L720.792 43.0263C719.842 43.6245 719.064 44.3182 718.517 45.0898L454.507 -1.19937ZM273.384 62.3951C272.866 62.0569 272.304 61.7448 271.685 61.4674L370.987 -31.501L432.158 -5.41296C431.395 -4.4766 430.963 -3.41885 430.963 -2.3091C430.963 -1.20799 431.381 -0.176302 432.115 0.751381L273.384 62.3951ZM23.0112 30.7843L-2.70721 -69.6317C-1.45441 -69.8484 -0.287956 -70.1865 0.763243 -70.6287L85.1184 -25.6748L28.3679 31.1571C27.1151 30.8884 25.7905 30.7322 24.3793 30.7322C23.9329 30.7322 23.472 30.7583 23.0112 30.7843Z" fill="#305EC7"/>
</g>
</g>
<mask id="mask1_1_3" style="mask-type:luminance" maskUnits="userSpaceOnUse" x="0" y="-95" width="1440" height="867">
<path d="M1440 -95H0V772H1440V-95Z" fill="white"/>
</mask>
<g mask="url(#mask1_1_3)">
<path d="M1355.63 6.10954C1355.63 3.22244 1351.74 0.881574 1346.95 0.881574C1345.98 0.881574 1345.05 0.976948 1344.18 1.15902L1296.79 -62.1667C1299.2 -63.0944 1300.78 -64.7157 1300.78 -66.5624C1300.78 -69.4495 1296.89 -71.7904 1292.1 -71.7904C1288.5 -71.7904 1285.42 -70.4725 1284.11 -68.5998L1089.4 -98.9708C1089.43 -99.1529 1089.45 -99.3349 1089.45 -99.5257C1089.45 -102.413 1085.56 -104.754 1080.76 -104.754C1075.97 -104.754 1072.08 -102.413 1072.08 -99.5257C1072.08 -99.1615 1072.14 -98.8148 1072.25 -98.468L967.291 -75.3364C965.822 -76.9664 962.957 -78.0674 959.659 -78.0674C954.864 -78.0674 950.976 -75.7266 950.976 -72.8395C950.976 -71.669 951.624 -70.5852 952.704 -69.7182L866.203 -17.2388C864.763 -17.8803 862.992 -18.2618 861.062 -18.2618C858.96 -18.2618 857.03 -17.811 855.533 -17.0653L640.008 -133.885C640.915 -134.709 641.462 -135.706 641.462 -136.772C641.462 -139.659 637.575 -142 632.779 -142C627.984 -142 624.096 -139.659 624.096 -136.772C624.096 -136.035 624.355 -135.333 624.816 -134.7L327.254 -23.3857C326.578 -25.8654 323.006 -27.7555 318.701 -27.7555C313.906 -27.7555 310.018 -25.4145 310.018 -22.5274C310.018 -22.3627 310.032 -22.198 310.061 -22.0419L184.838 -3.48814C183.542 -5.39554 180.432 -6.73072 176.803 -6.73072C172.44 -6.73072 168.84 -4.78863 168.221 -2.27432H5.03999C4.42081 -4.79729 0.820862 -6.73072 -3.54234 -6.73072C-6.11995 -6.73072 -8.43835 -6.04576 -10.0368 -4.97069L-118.181 -47.4624C-117.706 -48.1126 -117.432 -48.8322 -117.432 -49.5865C-117.432 -52.4736 -121.32 -54.8145 -126.115 -54.8145C-130.91 -54.8145 -134.798 -52.4736 -134.798 -49.5865C-134.798 -46.9422 -131.544 -44.766 -127.31 -44.4105L-130.507 120.267C-134.741 120.614 -138.01 122.799 -138.01 125.443C-138.01 128.331 -134.122 130.671 -129.326 130.671C-127.613 130.671 -126.014 130.368 -124.661 129.848L-38.4768 189.541C-39.7728 190.451 -40.5648 191.639 -40.5648 192.939C-40.5648 195.827 -36.6768 198.167 -31.8816 198.167C-27.0864 198.167 -23.1984 195.827 -23.1984 192.939C-23.1984 192.098 -23.5296 191.309 -24.12 190.598L64.9151 153.005C66.4991 154.011 68.7311 154.635 71.2079 154.635C73.8287 154.635 76.1616 153.933 77.76 152.832L157.147 181.634C156.802 182.197 156.614 182.796 156.614 183.428C156.614 186.316 160.502 188.656 165.298 188.656C170.093 188.656 173.981 186.316 173.981 183.428L174.067 184.191L457.546 171.785C458.41 174.125 461.866 175.868 466.013 175.868C468.058 175.868 469.944 175.443 471.427 174.724L558.447 223.536C557.482 224.377 556.92 225.4 556.92 226.501C556.92 229.388 560.808 231.729 565.603 231.729C570.398 231.729 574.286 229.388 574.286 226.501C574.286 225.478 573.797 224.524 572.947 223.718L709.286 153.352C710.813 154.15 712.8 154.635 714.974 154.635C719.77 154.635 723.658 152.294 723.658 149.407C723.658 148.306 723.096 147.292 722.131 146.451L802.685 101.358C804.168 102.078 806.055 102.503 808.099 102.503C812.895 102.503 816.782 100.162 816.782 97.2745C816.782 97.0665 816.754 96.8671 816.725 96.6677L1010.28 62.7333C1011.69 64.476 1014.64 65.6811 1018.08 65.6811C1020.63 65.6811 1022.9 65.0222 1024.49 63.9732L1140.8 109.135C1140.26 109.82 1139.95 110.574 1139.95 111.381C1139.95 114.268 1143.84 116.609 1148.63 116.609C1153.3 116.609 1157.1 114.389 1157.3 111.615L1316.82 92.116C1318.2 93.8933 1321.2 95.1244 1324.67 95.1244C1329.47 95.1244 1333.35 92.7836 1333.35 89.8965C1333.35 87.755 1331.22 85.9169 1328.16 85.1106L1347.05 11.3289C1351.81 11.3029 1355.63 8.97932 1355.63 6.10954ZM466.027 165.43C464.89 165.43 463.795 165.568 462.802 165.811L400.075 101.211L471.83 156.066L467.237 165.49C466.834 165.447 466.43 165.43 466.027 165.43ZM160.718 179.007L112.133 139.341L169.546 123.12C170.698 124.16 172.454 124.941 174.514 125.27L164.275 178.252C162.994 178.339 161.784 178.608 160.718 179.007ZM-31.8672 187.72C-33.5808 187.72 -35.1792 188.023 -36.5328 188.544L-122.717 128.851C-122.04 128.374 -121.507 127.819 -121.147 127.212L-2.17441 141.431L-30.1248 187.824C-30.7008 187.755 -31.2768 187.72 -31.8672 187.72ZM1074.87 -95.6849C1076.43 -94.8266 1078.49 -94.289 1080.76 -94.289C1082.75 -94.289 1084.58 -94.6965 1086.05 -95.3728L1205.88 -25.5533C1205.63 -25.3365 1205.4 -25.1024 1205.19 -24.8597L1009.07 -63.8313L1074.87 -95.6849ZM1153.41 107.028L1211.83 -17.3254C1212.19 -17.2994 1212.57 -17.2821 1212.94 -17.2821C1214.12 -17.2821 1215.24 -17.4295 1216.27 -17.6809L1276.89 43.0351L1155.12 107.921C1154.62 107.575 1154.04 107.28 1153.41 107.028ZM1220.1 -25.4579L1238.43 -35.6625L1337.33 3.81203L1221.44 -21.4784C1221.55 -21.8165 1221.61 -22.1633 1221.61 -22.5188C1221.61 -23.6025 1221.06 -24.6169 1220.1 -25.4579ZM1218.37 -26.585C1216.89 -27.3046 1214.99 -27.7381 1212.93 -27.7381C1210.94 -27.7381 1209.11 -27.3306 1207.64 -26.6544L1091.61 -94.263L1236.24 -36.5295L1218.37 -26.585ZM1193.92 -25.4839L986.213 -49.3611C986.213 -49.4304 986.227 -49.4998 986.227 -49.5778C986.227 -50.5402 985.781 -51.4419 985.032 -52.2135L1006.68 -62.6869L1193.92 -25.4839ZM983.434 -53.41C981.878 -54.2683 979.819 -54.8058 977.544 -54.8058C976.694 -54.8058 975.874 -54.7278 975.096 -54.5891L964.426 -68.4697C965.693 -68.9726 966.73 -69.6662 967.406 -70.4899L1003.78 -63.2591L983.434 -53.41ZM959.659 -67.6027C960.509 -67.6027 961.33 -67.6808 962.107 -67.8195L972.778 -53.9388C970.416 -53.0025 968.861 -51.3985 968.861 -49.5692C968.861 -48.9709 969.034 -48.3987 969.35 -47.8612L868.09 -16.0856C868.061 -16.103 868.047 -16.1203 868.018 -16.1463L954.518 -68.6258C955.958 -67.9842 957.73 -67.6027 959.659 -67.6027ZM707.746 146.529L633.816 125.643L676.627 61.034C677.275 61.1207 677.938 61.1814 678.629 61.1814C678.874 61.1814 679.104 61.1728 679.349 61.1554L711.792 144.561C710.122 144.96 708.725 145.645 707.746 146.529ZM-123.826 121.403L-30.4704 27.1863L30.5279 75.4262C29.0015 76.3712 28.0656 77.6544 28.0656 79.0762C28.0656 79.5878 28.1952 80.082 28.4256 80.5589L-122.069 122.591C-122.558 122.14 -123.149 121.741 -123.826 121.403ZM-119.549 -46.1532L-11.4335 -3.67018C-11.9375 -3.00259 -12.2256 -2.26562 -12.2256 -1.48533C-12.2256 0.14464 -10.9872 1.60118 -9.04324 2.56354L-30.7296 24.4466L-119.794 -45.9884C-119.707 -46.0405 -119.621 -46.1012 -119.549 -46.1532ZM77.904 54.6356L42.4512 75.1401C40.9248 74.3425 38.9376 73.8483 36.7488 73.8483C36.3168 73.8483 35.9136 73.8743 35.496 73.909L0.158386 3.24846C0.532776 3.14442 0.892761 3.02306 1.22397 2.89301L77.904 54.6356ZM171.49 2.64155C172.642 3.17909 174.01 3.54323 175.522 3.67328V115.057C174.254 115.169 173.059 115.447 172.037 115.854L81.4465 54.7136L171.49 2.64155ZM853.114 -10.9183L733.594 34.2611L647.568 -36.4428C648.475 -36.9803 649.166 -37.6392 649.613 -38.3675L852.408 -13.3112C852.394 -13.2159 852.379 -13.1205 852.379 -13.0251C852.379 -12.2709 852.653 -11.5599 853.114 -10.9183ZM398.059 90.6941C397.699 89.8531 397.008 89.0902 396.058 88.4659L447.206 54.7136L500.04 86.0209C498.182 86.8706 496.901 88.1624 496.656 89.6363L398.059 90.6941ZM641.462 -34.9255C641.693 -34.9255 641.938 -34.9342 642.168 -34.9429L674.827 49.5029L675.447 51.0982C673.459 51.5751 671.832 52.4767 670.882 53.6125L568.339 33.3507L638.078 -35.333C639.115 -35.0729 640.267 -34.9255 641.462 -34.9255ZM670.075 55.0691C669.989 55.3552 669.946 55.65 669.946 55.9534C669.946 56.2655 670.003 56.5689 670.09 56.8724L513.533 88.5613C513.389 88.3098 513.216 88.0584 513.029 87.8243L566.971 34.6946L670.075 55.0691ZM511.402 86.4718C510.854 86.151 510.235 85.8649 509.573 85.6395L503.698 49.052L499.853 25.1662C502.286 24.8021 504.317 23.831 505.454 22.5305L564.48 34.1917L511.402 86.4718ZM493.027 24.4726C494.266 24.9581 495.734 25.2616 497.304 25.305L501.192 49.4683L506.909 85.0412C506.376 84.9805 505.843 84.9458 505.282 84.9458C504.259 84.9458 503.294 85.0585 502.387 85.2493L448.934 53.5692L493.027 24.4726ZM678.629 50.7167C678.398 50.7167 678.154 50.7254 677.923 50.7341L644.659 -35.2983C644.947 -35.3677 645.235 -35.4457 645.509 -35.5324L731.419 35.076L685.21 52.5461C683.626 51.4276 681.264 50.7167 678.629 50.7167ZM635.89 -36.148L565.834 32.8479L506.29 21.0827C506.39 20.7619 506.448 20.4324 506.448 20.0943C506.448 19.288 506.131 18.5336 505.598 17.8487L635.155 -36.5728C635.386 -36.4168 635.63 -36.2781 635.89 -36.148ZM491.112 23.4583L447.106 52.5028L325.714 -19.4322C325.886 -19.5796 326.059 -19.7357 326.218 -19.8918L489.283 19.0106C489.154 19.366 489.096 19.7302 489.096 20.103C489.082 21.3775 489.845 22.5479 491.112 23.4583ZM445.378 53.6385L394.056 87.5036C392.76 87.0441 391.248 86.7665 389.635 86.7665C389.102 86.7665 388.584 86.8013 388.08 86.8533L322.891 -17.941C323.251 -18.0624 323.582 -18.1924 323.899 -18.3398L445.378 53.6385ZM-3.54234 3.74266C-3.12474 3.74266 -2.70715 3.71664 -2.28955 3.68196L24.4368 57.2192L32.9904 74.3598C32.8465 74.4032 32.688 74.4465 32.544 74.4899L-29.0736 25.7644L-6.86882 3.3525C-5.81763 3.60393 -4.70874 3.74266 -3.54234 3.74266ZM170.122 116.878C169.949 116.999 169.79 117.129 169.632 117.268L45.0288 80.6542C45.288 80.16 45.4321 79.6224 45.4321 79.0762C45.4321 78.0619 44.9424 77.1082 44.1072 76.3106L79.6032 55.7886L170.122 116.878ZM398.318 92.2287L496.757 91.1709C497.29 92.8356 499.147 94.2227 501.638 94.9163L472.709 154.245L395.971 95.5753C397.339 94.6996 398.218 93.5292 398.318 92.2287ZM504.086 95.3585C504.475 95.3932 504.878 95.4106 505.282 95.4106C505.613 95.4106 505.944 95.3932 506.261 95.3759L562.162 221.715C561.859 221.793 561.571 221.88 561.298 221.975L474.638 155.728L504.086 95.3585ZM513.965 90.0872L670.91 58.3203C671.674 59.2133 672.84 59.9589 674.28 60.4618L631.526 124.984L513.619 91.6738C513.85 91.1969 513.979 90.6941 513.979 90.1739C513.965 90.1479 513.965 90.1219 513.965 90.0872ZM686.578 53.8466L732.931 36.3245L802.354 93.3817C801.965 93.5898 801.605 93.8153 801.274 94.0667L686.808 57.6874C687.125 57.1412 687.312 56.5603 687.312 55.9534C687.312 55.1991 687.053 54.4881 686.578 53.8466ZM808.114 92.064C806.832 92.064 805.608 92.2373 804.499 92.5408L735.106 35.5095L854.482 -9.61779C855.302 -9.0369 856.325 -8.57744 857.491 -8.25664L809.813 92.168C809.251 92.0987 808.69 92.064 808.114 92.064ZM852.912 -14.8112L650.117 -39.8674C650.131 -39.9628 650.146 -40.0582 650.146 -40.1536C650.146 -42.8759 646.69 -45.1128 642.269 -45.3555L634.507 -131.639C635.933 -131.813 637.229 -132.194 638.294 -132.732L853.819 -15.9122C853.459 -15.5654 853.157 -15.2013 852.912 -14.8112ZM631.973 -131.561L639.734 -45.2775C635.918 -44.8093 633.024 -42.8413 632.808 -40.4397L547.171 -35.6278L629.957 -131.821C630.605 -131.691 631.267 -131.596 631.973 -131.561ZM633.038 -38.9051C633.197 -38.5236 633.413 -38.1681 633.701 -37.8213L504.187 16.5829C503.784 16.3228 503.338 16.0801 502.862 15.872L545.789 -33.9978L633.038 -38.9051ZM500.587 15.1524C499.709 14.9703 498.758 14.8663 497.765 14.8663C494.496 14.8663 491.645 15.9587 490.162 17.5626L327.139 -21.331C327.197 -21.4697 327.226 -21.5998 327.269 -21.7385L542.75 -33.8418L500.587 15.1524ZM318.701 -17.2821C319.32 -17.2821 319.925 -17.3254 320.515 -17.3948L385.675 87.3561C385.027 87.5555 384.437 87.8069 383.89 88.0931L262.829 35.18L315.374 -17.6723C316.397 -17.4295 317.52 -17.2821 318.701 -17.2821ZM382.248 89.2722C381.456 90.0525 380.981 90.9629 380.966 91.9426L189.36 117.745L184.882 118.343C184.334 117.493 183.442 116.747 182.29 116.175L261.504 36.4892L382.248 89.2722ZM180.101 115.395C179.453 115.239 178.776 115.126 178.056 115.057V3.67328C179.971 3.49988 181.685 2.96235 182.981 2.16471L259.43 35.5876L180.101 115.395ZM169.718 1.5405L79.7472 53.5692L3.13928 1.86129C4.13287 1.14167 4.80962 0.257311 5.05441 -0.713728H168.221C168.422 0.109918 168.941 0.881574 169.718 1.5405ZM-121.795 -45.0434L-32.1408 25.8598L-126.029 120.614C-126.634 120.467 -127.282 120.354 -127.958 120.293L-124.747 -44.4192C-123.682 -44.5145 -122.688 -44.7313 -121.795 -45.0434ZM-120.658 125.704C-120.658 125.617 -120.643 125.539 -120.643 125.452C-120.643 124.941 -120.773 124.446 -121.003 123.97L29.4912 81.9374C30.2832 82.657 31.3488 83.2552 32.616 83.6627L-1.31046 139.957L-120.658 125.704ZM35.0207 84.2002C35.5823 84.2696 36.1584 84.3043 36.7488 84.3043C36.8064 84.3043 36.8784 84.2956 36.936 84.2956L67.9249 144.587C65.6641 145.15 63.8785 146.269 63.0577 147.665L1.23837 140.278L35.0207 84.2002ZM71.2224 144.188C70.9487 144.188 70.6752 144.197 70.4016 144.214L39.4705 84.0356C39.9312 83.9402 40.392 83.8275 40.8096 83.6887L108.23 138.743L78.9265 147.023C77.4865 145.341 74.5775 144.188 71.2224 144.188ZM42.8688 82.7783C43.1424 82.6136 43.3873 82.4402 43.6177 82.2582L168.494 118.663C168.235 119.158 168.106 119.678 168.106 120.224C168.106 120.744 168.235 121.247 168.48 121.724L110.606 138.076L42.8688 82.7783ZM171.403 179.718C170.179 178.989 168.61 178.486 166.853 178.296L177.077 125.443C181.742 125.357 185.486 123.051 185.486 120.224C185.486 120.094 185.472 119.973 185.458 119.843L233.294 113.401L381.326 93.4598C381.398 93.6159 381.485 93.7632 381.586 93.9193L171.403 179.718ZM469.67 165.915L473.76 157.54L554.342 219.149L473.184 173.623C474.149 172.782 474.71 171.759 474.71 170.657C474.71 168.551 472.651 166.747 469.67 165.915ZM565.618 221.282C565.286 221.282 564.955 221.299 564.638 221.316L508.723 94.9771C510.278 94.5696 511.589 93.9106 512.51 93.0696L630.562 126.415L567.605 221.42C566.971 221.334 566.294 221.282 565.618 221.282ZM569.981 222.001L632.88 127.073L706.666 147.916C706.435 148.393 706.291 148.896 706.291 149.416C706.291 150.439 706.781 151.393 707.63 152.199L571.291 222.565C570.888 222.357 570.442 222.166 569.981 222.001ZM714.989 144.188C714.744 144.188 714.514 144.197 714.269 144.214L681.826 60.8086C683.352 60.4445 684.662 59.8289 685.613 59.0399L800.007 95.4019C799.632 95.9915 799.416 96.6243 799.416 97.2919C799.416 98.393 799.978 99.4074 800.942 100.248L720.389 145.341C718.92 144.621 717.034 144.188 714.989 144.188ZM812.376 92.7402C812.318 92.7228 812.275 92.6969 812.218 92.6795L859.939 -7.84045C860.314 -7.81445 860.688 -7.78843 861.077 -7.78843C863.395 -7.78843 865.512 -8.34329 867.067 -9.23631L907.718 9.82033L812.376 92.7402ZM868.622 -10.4501C869.342 -11.2131 869.746 -12.0888 869.746 -13.0165C869.746 -13.6147 869.573 -14.1869 869.256 -14.7244L970.517 -46.5C970.834 -46.2312 971.208 -45.9884 971.597 -45.763L909.158 8.55449L868.622 -10.4501ZM973.714 -44.8874C974.866 -44.5406 976.176 -44.3412 977.544 -44.3412C977.746 -44.3412 977.947 -44.3498 978.149 -44.3585L1012.87 49.9624L1014.94 55.5979C1013.83 55.858 1012.82 56.2481 1011.99 56.751L911.189 9.49954L973.714 -44.8874ZM1018.09 55.2337C1017.88 55.2337 1017.66 55.2424 1017.45 55.2511L1015.5 49.9711L980.654 -44.6966C980.813 -44.7313 980.971 -44.7747 981.115 -44.8093L1069.33 37.781L1024.46 56.9158C1022.88 55.8841 1020.61 55.2337 1018.09 55.2337ZM983.261 -45.6417C984.37 -46.2312 985.234 -46.9855 985.738 -47.8438L1204.26 -22.7182C1204.26 -22.6488 1204.24 -22.5795 1204.24 -22.5014C1204.24 -21.6518 1204.59 -20.8541 1205.18 -20.1432L1071.42 36.9055L983.261 -45.6417ZM1206.66 -18.8947C1207.43 -18.4178 1208.35 -18.019 1209.37 -17.7416L1151.06 106.378C1150.3 106.248 1149.48 106.17 1148.64 106.17C1147.62 106.17 1146.66 106.283 1145.75 106.474L1072.81 38.1886L1206.66 -18.8947ZM1315.99 89.9051C1315.99 90.1565 1316.03 90.408 1316.09 90.6508L1157.04 110.089C1156.91 109.785 1156.74 109.499 1156.54 109.222L1278.23 44.379L1319.5 85.7175C1317.37 86.6625 1315.99 88.1884 1315.99 89.9051ZM1218.46 -18.4786C1219.32 -18.9034 1220.04 -19.4322 1220.57 -20.0305L1338.31 5.65875C1338.29 5.80614 1338.26 5.96217 1338.26 6.10954C1338.26 7.33203 1338.97 8.45047 1340.12 9.33481L1278.84 41.9947L1218.46 -18.4786ZM1341.91 1.86129C1341.16 2.18208 1340.51 2.57218 1339.96 3.01436L1240.37 -36.7376L1286.65 -62.4875C1288.14 -61.7679 1290.04 -61.3343 1292.1 -61.3343C1292.92 -61.3343 1293.71 -61.4037 1294.46 -61.5337L1341.91 1.86129ZM1283.46 -67.1085C1283.43 -66.9265 1283.41 -66.7444 1283.41 -66.5537C1283.41 -65.4613 1283.98 -64.4469 1284.93 -63.6059L1238.18 -37.6046L1088.63 -97.3062C1088.67 -97.3669 1088.73 -97.4189 1088.77 -97.4796L1283.46 -67.1085ZM1073.13 -97.02C1073.17 -96.9767 1073.23 -96.9247 1073.28 -96.8813L1006.16 -64.4035L968.213 -71.9464C968.299 -72.2325 968.342 -72.536 968.342 -72.8395C968.342 -73.2036 968.285 -73.5504 968.17 -73.8972L1073.13 -97.02ZM626.155 -133.382C626.602 -133.061 627.12 -132.775 627.696 -132.532L544.147 -35.4631L332.654 -23.5852L626.155 -133.382ZM310.666 -20.5333C311.213 -19.727 312.091 -19.0161 313.2 -18.4699L260.77 34.2697L184.493 0.933592C185.126 0.213983 185.486 -0.609648 185.486 -1.48533C185.486 -1.65006 185.472 -1.81483 185.443 -1.97089L310.666 -20.5333ZM-25.5744 189.35C-26.208 188.951 -26.928 188.613 -27.7344 188.344L0.345581 141.726L62.5535 149.165C62.5535 149.251 62.5393 149.329 62.5393 149.416C62.5393 150.257 62.8703 151.046 63.4607 151.757L-25.5744 189.35ZM79.1423 151.549C79.6319 150.899 79.9056 150.179 79.9056 149.416C79.9056 149.095 79.848 148.783 79.7616 148.48L109.786 140L158.774 179.995C158.63 180.09 158.501 180.186 158.386 180.29L79.1423 151.549ZM173.894 182.674L173.909 182.761C173.765 182.111 173.434 181.504 172.944 180.949L382.867 95.2545C384.466 96.4509 386.899 97.2226 389.65 97.2226C390.787 97.2226 391.882 97.0838 392.875 96.8411L460.584 166.574C458.77 167.458 457.546 168.767 457.373 170.259L173.894 182.674ZM816.062 95.1938C815.659 94.6303 815.083 94.1188 814.392 93.6853L909.734 10.7567L1010.46 57.9648C1009.79 58.7104 1009.41 59.5601 1009.41 60.4618C1009.41 60.7392 1009.45 61.008 1009.53 61.2768L816.062 95.1938ZM1025.93 62.7073C1026.46 62.031 1026.78 61.2681 1026.78 60.4618C1026.78 59.6468 1026.46 58.8752 1025.9 58.1816L1070.71 39.073L1143.48 107.193C1143.03 107.392 1142.61 107.618 1142.22 107.869L1025.93 62.7073ZM1324.67 84.6771C1323.65 84.6771 1322.67 84.7898 1321.75 84.9892L1280.16 43.3472L1341.98 10.4099C1342.74 10.7307 1343.61 10.9821 1344.53 11.1382L1325.68 84.7204C1325.35 84.6944 1325.02 84.6771 1324.67 84.6771Z" fill="white"/>
</g>
</g>
<defs>
<linearGradient id="paint0_linear_1_3" x1="-4.45631e-06" y1="404" x2="1440" y2="404" gradientUnits="userSpaceOnUse">
<stop stop-color="#010101"/>
<stop offset="1" stop-color="#142651"/>
</linearGradient>
<clipPath id="clip0_1_3">
<rect width="1440" height="809" fill="white"/>
</clipPath>
</defs>
</svg>
