<svg width="432" height="432" viewBox="0 0 432 432" fill="none" xmlns="http://www.w3.org/2000/svg">
<path d="M315.675 281.029C311.3 278.182 307.126 275.497 302.983 272.758C301.294 271.64 302.543 270.49 303.161 269.479C310.598 257.243 315.374 244.05 317.318 229.861C318.175 223.619 318.73 217.308 317.99 211.059C317.496 206.908 319.078 206.067 322.773 205.966C330.597 205.743 338.405 205.002 346.228 204.686C349.067 204.57 349.646 203.652 349.075 200.905C345.426 183.345 337.378 168.13 325.134 155.076C320.536 150.176 321.701 143.742 327.557 141.72C330.905 140.563 333.521 141.852 335.828 144.282C348.35 157.46 358.179 172.389 364.984 189.263C366.705 193.529 368.927 197.287 372.908 199.864C376.981 202.494 381.395 203.521 386.14 202.857C388.809 202.487 389.866 203.405 389.974 206.067C390.414 216.614 390.121 227.122 388.763 237.599C388.593 238.911 387.907 239.652 387.035 240.439C375.747 250.615 372.098 262.79 377.514 277.28C378.108 278.869 377.853 280.235 377.236 281.724C366.303 308.226 349.908 330.74 328.035 349.264C324.663 352.119 320.459 352.134 317.542 349.442C314.371 346.51 314.093 342.606 317.141 338.74C326.5 326.859 334.231 314.028 339.809 299.963C341.699 295.195 343.258 290.296 344.785 285.396C347.239 277.55 343.281 269.85 335.573 267.18C328.135 264.603 319.934 268.584 317.141 276.169C316.632 277.588 316.269 279.07 315.675 281.029Z" fill="#F6A01E"/>
<path d="M222.195 104.972C221.871 113.189 221.864 113.135 213.84 113.475C194.297 114.315 176.119 119.593 159.77 130.51C157.394 132.099 156.298 132.007 154.755 129.523C150.558 122.756 145.929 116.26 141.755 109.478C139.841 106.369 138.53 106.091 135.76 108.66C122.906 120.55 113.748 134.7 108.733 151.48C107.884 154.327 106.712 156.874 103.741 157.861C100.917 158.802 98.1552 158.586 95.8637 156.31C93.6725 154.127 92.9704 151.697 93.8577 148.603C99.0733 130.502 107.475 114.053 119.079 99.2165C125.097 91.5165 125.352 83.045 119.573 75.0596C117.945 72.8144 118.13 71.8191 120.429 70.3609C129.117 64.829 138.098 59.8911 147.58 55.8406C149.115 55.1848 150.381 55.1539 151.955 55.694C165.935 60.4235 178.472 57.0442 188.055 45.772C189.845 43.6657 191.997 43.5345 194.204 43.2491C214.665 40.5795 234.957 41.7291 255.055 46.3198C261.444 47.778 267.724 49.622 273.912 51.79C279.544 53.7651 281.851 57.1676 280.655 61.7274C279.582 65.8243 275.632 67.622 269.969 66.7887C250.156 63.8723 230.528 64.8367 211.093 69.7206C205.561 71.1093 202.043 74.6815 200.708 80.0283C199.304 85.6297 200.608 90.7527 205.106 94.7493C209.056 98.2675 213.662 99.5019 218.7 97.9434C221.686 97.0176 222.651 97.658 222.211 100.736C222.026 102.125 222.195 103.56 222.195 104.972Z" fill="#D824F5"/>
<path d="M109.674 269.912C114.234 267.574 118.562 265.399 122.852 263.146C125.39 261.819 125.645 264.141 126.332 265.375C134.734 280.513 146.199 292.765 160.766 302.101C163.682 303.968 166.66 305.789 169.793 307.247C172.416 308.466 173.133 309.523 171.59 312.37C167.679 319.591 164.245 327.075 160.449 334.366C159.153 336.859 159.639 337.877 162.278 338.757C179.298 344.389 196.495 345.037 213.917 340.994C220.143 339.551 224.68 342.707 224.495 348.424C224.363 352.32 222.165 354.565 218.538 355.453C200.369 359.897 181.998 360.784 163.497 358.199C154.092 356.888 145.643 361.255 142.048 370.058C140.999 372.619 140.065 372.681 137.874 371.57C128.677 366.918 119.982 361.478 111.68 355.383C110.384 354.434 109.651 353.354 109.288 351.687C106.087 337.028 97.3528 327.893 82.3309 325.239C80.5487 324.923 79.3914 323.958 78.3112 322.562C61.1908 300.403 50.1809 275.513 44.8496 248.078C44.4329 245.948 43.97 243.726 44.8804 241.62C46.1612 238.657 48.4527 236.852 51.7317 236.859C55.3116 236.867 57.7806 238.757 59.0536 242.098C63.4205 253.556 69.1608 264.288 76.1432 274.356C80.6953 280.914 85.7411 287.079 91.2808 292.811C97.4068 299.146 106.534 299.331 112.56 293.344C118.462 287.48 118.184 277.982 111.927 271.972C111.294 271.363 110.639 270.792 109.674 269.912Z" fill="#1AA1C2"/>
<path d="M116.363 151.226C120.213 153.702 123.732 156.048 127.342 158.247C129.364 159.481 129.781 160.484 128.384 162.776C117.999 179.896 113.239 198.575 113.424 218.558C113.486 225.602 113.462 225.548 106.249 225.887C99.4513 226.204 92.6695 226.79 85.8723 226.998C82.5778 227.099 82.0994 228.426 82.7321 231.327C86.5049 248.833 94.4286 264.133 106.812 277.087C109.389 279.787 110.438 282.719 108.779 286.175C106.272 291.399 100.339 291.947 96.0334 287.348C87.3999 278.121 79.8928 268.052 73.8671 256.919C71.051 251.719 68.2889 246.464 66.3909 240.863C64.1071 234.104 55.3733 227.346 45.76 228.873C43.2679 229.267 42.2726 228.673 42.2649 226.003C42.2649 215.603 41.8483 205.195 43.237 194.833C43.4222 193.437 43.9391 192.534 44.973 191.616C56.4689 181.37 59.9023 169.002 54.5092 154.428C54.0077 153.077 54.1543 152.02 54.6635 150.77C65.5422 124.098 81.9991 101.477 103.973 82.8673C107.514 79.8738 111.418 79.8815 114.35 82.7285C117.251 85.5446 117.444 89.4794 114.581 93.1211C102.368 108.621 93.171 125.68 87.477 144.614C84.4912 154.528 88.2794 162.745 97.1599 165.144C106.048 167.544 113.486 162.436 115.87 152.283C115.931 152.051 116.078 151.843 116.363 151.226Z" fill="#0BA808"/>
<path d="M239.246 88.0911C232.187 88.5 225.027 88.9167 218.021 90.7992C212.937 92.1648 208.632 89.8656 207.629 85.599C206.572 81.101 209.141 77.7062 214.565 76.3946C232.357 72.1125 250.303 71.2484 268.426 73.8485C278.325 75.2681 286.133 70.9861 290.075 61.7199C291.048 59.4439 291.804 59.2587 293.879 60.3543C303.091 65.2227 311.995 70.554 320.351 76.8112C321.724 77.8451 322.256 78.9947 322.596 80.5686C325.736 95.359 334.886 104.116 349.654 106.948C351.39 107.279 352.369 108.035 353.334 109.278C370.709 131.714 381.896 156.928 387.15 184.78C388.169 190.181 386.209 193.537 381.757 194.787C378.1 195.813 374.451 193.56 372.684 188.931C365.671 170.576 355.062 154.505 341.884 140.023C337.44 135.147 332.248 132.871 325.705 134.761C319.309 136.605 315.876 141.142 315.081 147.554C314.464 152.561 316.207 156.974 320.111 160.215C321.94 161.734 321.824 162.321 319.795 163.27C316.539 164.79 313.276 166.333 310.174 168.131C307.906 169.442 306.988 168.732 305.815 166.626C297.968 152.468 287.406 140.725 274.058 131.513C270.247 128.882 266.351 126.336 262.076 124.6C259.029 123.366 259.206 121.969 260.51 119.477C264.337 112.202 267.847 104.772 271.674 97.4962C272.94 95.0812 272.739 94.0397 269.985 93.1061C260.039 89.7268 249.801 88.2994 239.246 88.0911Z" fill="#0A5D8B"/>
<path d="M209.643 334.629C209.943 329.49 210.229 324.892 210.484 320.293C210.622 317.74 212.551 318.465 213.925 318.496C226.91 318.797 239.455 316.521 251.637 312.138C259.036 309.476 266.027 305.92 272.523 301.506C274.475 300.179 275.401 300.21 276.712 302.278C281.187 309.322 285.955 316.173 290.407 323.233C292.097 325.918 293.385 326.072 295.731 323.974C309.078 312.03 318.36 297.541 323.398 280.351C324.617 276.185 327.248 273.692 330.844 273.746C334.447 273.808 336.831 275.652 338.05 279.062C338.868 281.338 337.849 283.36 337.224 285.397C331.962 302.502 323.877 318.141 312.813 332.245C306.501 340.292 306.347 348.948 312.435 357.35C313.854 359.318 313.276 360.105 311.632 361.154C303.068 366.624 294.211 371.524 284.868 375.559C282.962 376.384 281.303 376.377 279.328 375.767C265.564 371.516 253.759 374.779 244.099 385.458C242.641 387.07 241.206 387.911 238.976 388.235C211.24 392.301 184.29 388.86 157.926 379.879C151.569 377.711 149.416 373.02 152.356 368.484C154.115 365.768 156.661 364.51 159.925 365.035C180.193 368.306 200.291 367.496 220.205 362.481C229.224 360.205 233.661 352.698 231.323 343.74C229.324 336.087 220.922 331.573 212.76 333.764C211.911 334.004 211.054 334.243 209.643 334.629Z" fill="#E01B27"/>
<path d="M407.11 240.477C421.183 240.492 432.023 251.348 432 265.382C431.977 279.147 420.658 290.488 406.979 290.465C393.377 290.442 381.919 278.869 382.02 265.267C382.128 251.248 393.037 240.462 407.11 240.477Z" fill="#F6A01E"/>
<path d="M188.163 25.982C188.101 39.5997 176.636 50.895 162.972 50.8102C149.239 50.7176 138.136 39.4145 138.229 25.6117C138.321 11.886 149.725 0.613859 163.358 0.768167C177.068 0.922475 188.232 12.2641 188.163 25.982Z" fill="#D824F5"/>
<path d="M102.63 356.625C102.669 370.451 91.5431 381.716 77.8251 381.746C64.0146 381.77 52.7964 370.69 52.6884 356.911C52.5727 343.239 63.8371 331.805 77.5396 331.697C91.1033 331.581 102.592 342.992 102.63 356.625Z" fill="#1BA1C2"/>
<path d="M379.088 75.2373C379.034 88.9167 367.538 100.305 354.005 100.104C340.557 99.9034 329.293 88.4846 329.339 75.0984C329.385 61.4653 340.843 50.1546 354.507 50.2471C367.924 50.3397 379.142 61.7431 379.088 75.2373Z" fill="#0A5D8B"/>
<path d="M49.5251 166.572C49.5328 180.722 38.9242 191.284 24.7201 191.284C11.033 191.276 0.023182 180.305 3.58029e-05 166.649C-0.0231104 153.139 11.1796 141.813 24.643 141.751C38.5307 141.682 49.5251 152.645 49.5251 166.572Z" fill="#0BA808"/>
<path d="M269.005 381.607C282.684 381.607 293.655 392.609 293.624 406.289C293.594 419.613 282.067 431.071 268.742 431.032C255.433 430.993 243.922 419.752 243.968 406.173C244.015 390.341 257.686 380.488 269.005 381.607Z" fill="#E01B27"/>
</svg>
