<svg width="579" height="332" viewBox="0 0 579 332" fill="none" xmlns="http://www.w3.org/2000/svg">
<circle cx="7.5" cy="7.5" r="7" transform="matrix(-1 0 0 1 52 28)" fill="#98C447" stroke="#98C447"/>
<path d="M578.5 32.5H86.0275L0.593628 166L86.0275 299.5H578.5V32.5Z" stroke="#98C447"/>
<path d="M559 53.2114H99.8296L20 166.211L99.8296 279.211H559V53.2114Z" fill="#98C447"/>
<path d="M311 33L288.712 1H66.8033L45 33" stroke="#98C447"/>
<path d="M310.555 299.233L288.345 331.099H67.216L45.4893 299.233" stroke="#98C447"/>
<circle cx="44.2659" cy="297.044" r="7" transform="rotate(180 44.2659 297.044)" fill="#98C447" stroke="#98C447"/>
<path d="M196.49 108.211V87.2114H206.03C208.31 87.2114 210.32 87.6514 212.06 88.5314C213.8 89.3914 215.16 90.6014 216.14 92.1614C217.12 93.7214 217.61 95.5714 217.61 97.7114C217.61 99.8314 217.12 101.681 216.14 103.261C215.16 104.821 213.8 106.041 212.06 106.921C210.32 107.781 208.31 108.211 206.03 108.211H196.49ZM201.35 104.221H205.79C207.19 104.221 208.4 103.961 209.42 103.441C210.46 102.901 211.26 102.141 211.82 101.161C212.4 100.181 212.69 99.0314 212.69 97.7114C212.69 96.3714 212.4 95.2214 211.82 94.2614C211.26 93.2814 210.46 92.5314 209.42 92.0114C208.4 91.4714 207.19 91.2014 205.79 91.2014H201.35V104.221ZM228.955 108.451C227.115 108.451 225.495 108.091 224.095 107.371C222.715 106.651 221.645 105.671 220.885 104.431C220.125 103.171 219.745 101.741 219.745 100.141C219.745 98.5214 220.115 97.0914 220.855 95.8514C221.615 94.5914 222.645 93.6114 223.945 92.9114C225.245 92.1914 226.715 91.8314 228.355 91.8314C229.935 91.8314 231.355 92.1714 232.615 92.8514C233.895 93.5114 234.905 94.4714 235.645 95.7314C236.385 96.9714 236.755 98.4614 236.755 100.201C236.755 100.381 236.745 100.591 236.725 100.831C236.705 101.051 236.685 101.261 236.665 101.461H223.555V98.7314H234.205L232.405 99.5414C232.405 98.7014 232.235 97.9714 231.895 97.3514C231.555 96.7314 231.085 96.2514 230.485 95.9114C229.885 95.5514 229.185 95.3714 228.385 95.3714C227.585 95.3714 226.875 95.5514 226.255 95.9114C225.655 96.2514 225.185 96.7414 224.845 97.3814C224.505 98.0014 224.335 98.7414 224.335 99.6014V100.321C224.335 101.201 224.525 101.981 224.905 102.661C225.305 103.321 225.855 103.831 226.555 104.191C227.275 104.531 228.115 104.701 229.075 104.701C229.935 104.701 230.685 104.571 231.325 104.311C231.985 104.051 232.585 103.661 233.125 103.141L235.615 105.841C234.875 106.681 233.945 107.331 232.825 107.791C231.705 108.231 230.415 108.451 228.955 108.451ZM243.958 108.211L237.178 92.0714H242.008L247.648 105.961H245.248L251.098 92.0714H255.598L248.788 108.211H243.958ZM265.078 108.451C263.238 108.451 261.618 108.091 260.218 107.371C258.838 106.651 257.768 105.671 257.008 104.431C256.248 103.171 255.868 101.741 255.868 100.141C255.868 98.5214 256.238 97.0914 256.978 95.8514C257.738 94.5914 258.768 93.6114 260.068 92.9114C261.368 92.1914 262.838 91.8314 264.478 91.8314C266.058 91.8314 267.478 92.1714 268.738 92.8514C270.018 93.5114 271.028 94.4714 271.768 95.7314C272.508 96.9714 272.878 98.4614 272.878 100.201C272.878 100.381 272.868 100.591 272.848 100.831C272.828 101.051 272.808 101.261 272.788 101.461H259.678V98.7314H270.328L268.528 99.5414C268.528 98.7014 268.358 97.9714 268.018 97.3514C267.678 96.7314 267.208 96.2514 266.608 95.9114C266.008 95.5514 265.308 95.3714 264.508 95.3714C263.708 95.3714 262.998 95.5514 262.378 95.9114C261.778 96.2514 261.308 96.7414 260.968 97.3814C260.628 98.0014 260.458 98.7414 260.458 99.6014V100.321C260.458 101.201 260.648 101.981 261.028 102.661C261.428 103.321 261.978 103.831 262.678 104.191C263.398 104.531 264.238 104.701 265.198 104.701C266.058 104.701 266.808 104.571 267.448 104.311C268.108 104.051 268.708 103.661 269.248 103.141L271.738 105.841C270.998 106.681 270.068 107.331 268.948 107.791C267.828 108.231 266.538 108.451 265.078 108.451ZM275.994 108.211V85.9514H280.674V108.211H275.994ZM292.697 108.451C290.977 108.451 289.447 108.091 288.107 107.371C286.787 106.651 285.737 105.671 284.957 104.431C284.197 103.171 283.817 101.741 283.817 100.141C283.817 98.5214 284.197 97.0914 284.957 95.8514C285.737 94.5914 286.787 93.6114 288.107 92.9114C289.447 92.1914 290.977 91.8314 292.697 91.8314C294.397 91.8314 295.917 92.1914 297.257 92.9114C298.597 93.6114 299.647 94.5814 300.407 95.8214C301.167 97.0614 301.547 98.5014 301.547 100.141C301.547 101.741 301.167 103.171 300.407 104.431C299.647 105.671 298.597 106.651 297.257 107.371C295.917 108.091 294.397 108.451 292.697 108.451ZM292.697 104.611C293.477 104.611 294.177 104.431 294.797 104.071C295.417 103.711 295.907 103.201 296.267 102.541C296.627 101.861 296.807 101.061 296.807 100.141C296.807 99.2014 296.627 98.4014 296.267 97.7414C295.907 97.0814 295.417 96.5714 294.797 96.2114C294.177 95.8514 293.477 95.6714 292.697 95.6714C291.917 95.6714 291.217 95.8514 290.597 96.2114C289.977 96.5714 289.477 97.0814 289.097 97.7414C288.737 98.4014 288.557 99.2014 288.557 100.141C288.557 101.061 288.737 101.861 289.097 102.541C289.477 103.201 289.977 103.711 290.597 104.071C291.217 104.431 291.917 104.611 292.697 104.611ZM314.215 108.451C312.855 108.451 311.665 108.151 310.645 107.551C309.625 106.951 308.825 106.041 308.245 104.821C307.685 103.581 307.405 102.021 307.405 100.141C307.405 98.2414 307.675 96.6814 308.215 95.4614C308.755 94.2414 309.535 93.3314 310.555 92.7314C311.575 92.1314 312.795 91.8314 314.215 91.8314C315.735 91.8314 317.095 92.1814 318.295 92.8814C319.515 93.5614 320.475 94.5214 321.175 95.7614C321.895 97.0014 322.255 98.4614 322.255 100.141C322.255 101.841 321.895 103.311 321.175 104.551C320.475 105.791 319.515 106.751 318.295 107.431C317.095 108.111 315.735 108.451 314.215 108.451ZM304.675 114.031V92.0714H309.145V95.3714L309.055 100.171L309.355 104.941V114.031H304.675ZM313.405 104.611C314.185 104.611 314.875 104.431 315.475 104.071C316.095 103.711 316.585 103.201 316.945 102.541C317.325 101.861 317.515 101.061 317.515 100.141C317.515 99.2014 317.325 98.4014 316.945 97.7414C316.585 97.0814 316.095 96.5714 315.475 96.2114C314.875 95.8514 314.185 95.6714 313.405 95.6714C312.625 95.6714 311.925 95.8514 311.305 96.2114C310.685 96.5714 310.195 97.0814 309.835 97.7414C309.475 98.4014 309.295 99.2014 309.295 100.141C309.295 101.061 309.475 101.861 309.835 102.541C310.195 103.201 310.685 103.711 311.305 104.071C311.925 104.431 312.625 104.611 313.405 104.611ZM346.058 91.8314C347.338 91.8314 348.468 92.0914 349.448 92.6114C350.448 93.1114 351.228 93.8914 351.788 94.9514C352.368 95.9914 352.658 97.3314 352.658 98.9714V108.211H347.978V99.6914C347.978 98.3914 347.708 97.4314 347.168 96.8114C346.628 96.1914 345.868 95.8814 344.888 95.8814C344.208 95.8814 343.598 96.0414 343.058 96.3614C342.518 96.6614 342.098 97.1214 341.798 97.7414C341.498 98.3614 341.348 99.1514 341.348 100.111V108.211H336.668V99.6914C336.668 98.3914 336.398 97.4314 335.858 96.8114C335.338 96.1914 334.588 95.8814 333.608 95.8814C332.928 95.8814 332.318 96.0414 331.778 96.3614C331.238 96.6614 330.818 97.1214 330.518 97.7414C330.218 98.3614 330.068 99.1514 330.068 100.111V108.211H325.388V92.0714H329.858V96.4814L329.018 95.1914C329.578 94.0914 330.368 93.2614 331.388 92.7014C332.428 92.1214 333.608 91.8314 334.928 91.8314C336.408 91.8314 337.698 92.2114 338.798 92.9714C339.918 93.7114 340.658 94.8514 341.018 96.3914L339.368 95.9414C339.908 94.6814 340.768 93.6814 341.948 92.9414C343.148 92.2014 344.518 91.8314 346.058 91.8314ZM364.98 108.451C363.14 108.451 361.52 108.091 360.12 107.371C358.74 106.651 357.67 105.671 356.91 104.431C356.15 103.171 355.77 101.741 355.77 100.141C355.77 98.5214 356.14 97.0914 356.88 95.8514C357.64 94.5914 358.67 93.6114 359.97 92.9114C361.27 92.1914 362.74 91.8314 364.38 91.8314C365.96 91.8314 367.38 92.1714 368.64 92.8514C369.92 93.5114 370.93 94.4714 371.67 95.7314C372.41 96.9714 372.78 98.4614 372.78 100.201C372.78 100.381 372.77 100.591 372.75 100.831C372.73 101.051 372.71 101.261 372.69 101.461H359.58V98.7314H370.23L368.43 99.5414C368.43 98.7014 368.26 97.9714 367.92 97.3514C367.58 96.7314 367.11 96.2514 366.51 95.9114C365.91 95.5514 365.21 95.3714 364.41 95.3714C363.61 95.3714 362.9 95.5514 362.28 95.9114C361.68 96.2514 361.21 96.7414 360.87 97.3814C360.53 98.0014 360.36 98.7414 360.36 99.6014V100.321C360.36 101.201 360.55 101.981 360.93 102.661C361.33 103.321 361.88 103.831 362.58 104.191C363.3 104.531 364.14 104.701 365.1 104.701C365.96 104.701 366.71 104.571 367.35 104.311C368.01 104.051 368.61 103.661 369.15 103.141L371.64 105.841C370.9 106.681 369.97 107.331 368.85 107.791C367.73 108.231 366.44 108.451 364.98 108.451ZM385.706 91.8314C386.986 91.8314 388.126 92.0914 389.126 92.6114C390.146 93.1114 390.946 93.8914 391.526 94.9514C392.106 95.9914 392.396 97.3314 392.396 98.9714V108.211H387.716V99.6914C387.716 98.3914 387.426 97.4314 386.846 96.8114C386.286 96.1914 385.486 95.8814 384.446 95.8814C383.706 95.8814 383.036 96.0414 382.436 96.3614C381.856 96.6614 381.396 97.1314 381.056 97.7714C380.736 98.4114 380.576 99.2314 380.576 100.231V108.211H375.896V92.0714H380.366V96.5414L379.526 95.1914C380.106 94.1114 380.936 93.2814 382.016 92.7014C383.096 92.1214 384.326 91.8314 385.706 91.8314ZM403.238 108.451C401.338 108.451 399.858 107.971 398.798 107.011C397.738 106.031 397.208 104.581 397.208 102.661V88.5014H401.888V102.601C401.888 103.281 402.068 103.811 402.428 104.191C402.788 104.551 403.278 104.731 403.898 104.731C404.638 104.731 405.268 104.531 405.788 104.131L407.048 107.431C406.568 107.771 405.988 108.031 405.308 108.211C404.648 108.371 403.958 108.451 403.238 108.451ZM394.718 96.0314V92.4314H405.908V96.0314H394.718Z" fill="white"/>
<line x1="226.5" y1="119.211" x2="226.5" y2="244.211" stroke="white"/>
<path d="M259.245 151.211V138.611H261.171L266.679 147.809H265.671L271.089 138.611H273.015L273.033 151.211H270.819L270.801 142.085H271.269L266.661 149.771H265.617L260.937 142.085H261.477V151.211H259.245ZM276.22 151.211V141.599H278.47V151.211H276.22ZM277.354 140.015C276.934 140.015 276.586 139.883 276.31 139.619C276.046 139.355 275.914 139.037 275.914 138.665C275.914 138.281 276.046 137.963 276.31 137.711C276.586 137.447 276.934 137.315 277.354 137.315C277.774 137.315 278.116 137.441 278.38 137.693C278.656 137.933 278.794 138.239 278.794 138.611C278.794 139.007 278.662 139.343 278.398 139.619C278.134 139.883 277.786 140.015 277.354 140.015ZM286.877 141.491C287.645 141.491 288.329 141.641 288.929 141.941C289.541 142.241 290.021 142.703 290.369 143.327C290.717 143.939 290.891 144.731 290.891 145.703V151.211H288.641V145.991C288.641 145.139 288.437 144.503 288.029 144.083C287.633 143.663 287.075 143.453 286.355 143.453C285.827 143.453 285.359 143.561 284.951 143.777C284.543 143.993 284.225 144.317 283.997 144.749C283.781 145.169 283.673 145.703 283.673 146.351V151.211H281.423V141.599H283.565V144.191L283.187 143.399C283.523 142.787 284.009 142.319 284.645 141.995C285.293 141.659 286.037 141.491 286.877 141.491ZM293.746 151.211V141.599H295.996V151.211H293.746ZM294.88 140.015C294.46 140.015 294.112 139.883 293.836 139.619C293.572 139.355 293.44 139.037 293.44 138.665C293.44 138.281 293.572 137.963 293.836 137.711C294.112 137.447 294.46 137.315 294.88 137.315C295.3 137.315 295.642 137.441 295.906 137.693C296.182 137.933 296.32 138.239 296.32 138.611C296.32 139.007 296.188 139.343 295.924 139.619C295.66 139.883 295.312 140.015 294.88 140.015ZM311.081 141.491C311.849 141.491 312.527 141.641 313.115 141.941C313.715 142.241 314.183 142.703 314.519 143.327C314.855 143.939 315.023 144.731 315.023 145.703V151.211H312.773V145.991C312.773 145.139 312.587 144.503 312.215 144.083C311.843 143.663 311.309 143.453 310.613 143.453C310.121 143.453 309.683 143.561 309.299 143.777C308.927 143.993 308.633 144.311 308.417 144.731C308.213 145.151 308.111 145.685 308.111 146.333V151.211H305.861V145.991C305.861 145.139 305.675 144.503 305.303 144.083C304.931 143.663 304.397 143.453 303.701 143.453C303.209 143.453 302.771 143.561 302.387 143.777C302.015 143.993 301.721 144.311 301.505 144.731C301.301 145.151 301.199 145.685 301.199 146.333V151.211H298.949V141.599H301.091V144.155L300.713 143.399C301.037 142.775 301.505 142.301 302.117 141.977C302.741 141.653 303.449 141.491 304.241 141.491C305.141 141.491 305.921 141.713 306.581 142.157C307.253 142.601 307.697 143.273 307.913 144.173L307.031 143.867C307.343 143.147 307.859 142.571 308.579 142.139C309.299 141.707 310.133 141.491 311.081 141.491ZM321.966 151.337C321.15 151.337 320.43 151.187 319.806 150.887C319.182 150.575 318.696 150.107 318.348 149.483C318 148.847 317.826 148.049 317.826 147.089V141.599H320.076V146.783C320.076 147.647 320.268 148.295 320.652 148.727C321.048 149.147 321.606 149.357 322.326 149.357C322.854 149.357 323.31 149.249 323.694 149.033C324.09 148.817 324.396 148.493 324.612 148.061C324.84 147.629 324.954 147.095 324.954 146.459V141.599H327.204V151.211H325.062V148.619L325.44 149.411C325.116 150.035 324.642 150.515 324.018 150.851C323.394 151.175 322.71 151.337 321.966 151.337ZM342.282 141.491C343.05 141.491 343.728 141.641 344.316 141.941C344.916 142.241 345.384 142.703 345.72 143.327C346.056 143.939 346.224 144.731 346.224 145.703V151.211H343.974V145.991C343.974 145.139 343.788 144.503 343.416 144.083C343.044 143.663 342.51 143.453 341.814 143.453C341.322 143.453 340.884 143.561 340.5 143.777C340.128 143.993 339.834 144.311 339.618 144.731C339.414 145.151 339.312 145.685 339.312 146.333V151.211H337.062V145.991C337.062 145.139 336.876 144.503 336.504 144.083C336.132 143.663 335.598 143.453 334.902 143.453C334.41 143.453 333.972 143.561 333.588 143.777C333.216 143.993 332.922 144.311 332.706 144.731C332.502 145.151 332.4 145.685 332.4 146.333V151.211H330.15V141.599H332.292V144.155L331.914 143.399C332.238 142.775 332.706 142.301 333.318 141.977C333.942 141.653 334.65 141.491 335.442 141.491C336.342 141.491 337.122 141.713 337.782 142.157C338.454 142.601 338.898 143.273 339.114 144.173L338.232 143.867C338.544 143.147 339.06 142.571 339.78 142.139C340.5 141.707 341.334 141.491 342.282 141.491ZM356.63 151.211L352.508 141.599H354.848L358.394 150.077H357.242L360.914 141.599H363.074L358.952 151.211H356.63ZM364.48 151.211V141.599H366.73V151.211H364.48ZM365.614 140.015C365.194 140.015 364.846 139.883 364.57 139.619C364.306 139.355 364.174 139.037 364.174 138.665C364.174 138.281 364.306 137.963 364.57 137.711C364.846 137.447 365.194 137.315 365.614 137.315C366.034 137.315 366.376 137.441 366.64 137.693C366.916 137.933 367.054 138.239 367.054 138.611C367.054 139.007 366.922 139.343 366.658 139.619C366.394 139.883 366.046 140.015 365.614 140.015ZM375.605 151.211V149.267L375.479 148.853V145.451C375.479 144.791 375.281 144.281 374.885 143.921C374.489 143.549 373.889 143.363 373.085 143.363C372.545 143.363 372.011 143.447 371.483 143.615C370.967 143.783 370.529 144.017 370.169 144.317L369.287 142.679C369.803 142.283 370.415 141.989 371.123 141.797C371.843 141.593 372.587 141.491 373.355 141.491C374.747 141.491 375.821 141.827 376.577 142.499C377.345 143.159 377.729 144.185 377.729 145.577V151.211H375.605ZM372.581 151.337C371.861 151.337 371.231 151.217 370.691 150.977C370.151 150.725 369.731 150.383 369.431 149.951C369.143 149.507 368.999 149.009 368.999 148.457C368.999 147.917 369.125 147.431 369.377 146.999C369.641 146.567 370.067 146.225 370.655 145.973C371.243 145.721 372.023 145.595 372.995 145.595H375.785V147.089H373.157C372.389 147.089 371.873 147.215 371.609 147.467C371.345 147.707 371.213 148.007 371.213 148.367C371.213 148.775 371.375 149.099 371.699 149.339C372.023 149.579 372.473 149.699 373.049 149.699C373.601 149.699 374.093 149.573 374.525 149.321C374.969 149.069 375.287 148.697 375.479 148.205L375.857 149.555C375.641 150.119 375.251 150.557 374.687 150.869C374.135 151.181 373.433 151.337 372.581 151.337ZM385.945 151.337C385.129 151.337 384.403 151.157 383.767 150.797C383.131 150.437 382.627 149.897 382.255 149.177C381.895 148.445 381.715 147.521 381.715 146.405C381.715 145.277 381.901 144.353 382.273 143.633C382.657 142.913 383.167 142.379 383.803 142.031C384.451 141.671 385.165 141.491 385.945 141.491C386.893 141.491 387.727 141.695 388.447 142.103C389.179 142.511 389.755 143.081 390.175 143.813C390.607 144.545 390.823 145.409 390.823 146.405C390.823 147.401 390.607 148.265 390.175 148.997C389.755 149.729 389.179 150.305 388.447 150.725C387.727 151.133 386.893 151.337 385.945 151.337ZM380.617 151.211V137.855H382.867V143.831L382.687 146.387L382.759 148.943V151.211H380.617ZM385.693 149.411C386.233 149.411 386.713 149.291 387.133 149.051C387.565 148.811 387.907 148.463 388.159 148.007C388.411 147.551 388.537 147.017 388.537 146.405C388.537 145.781 388.411 145.247 388.159 144.803C387.907 144.347 387.565 143.999 387.133 143.759C386.713 143.519 386.233 143.399 385.693 143.399C385.153 143.399 384.667 143.519 384.235 143.759C383.803 143.999 383.461 144.347 383.209 144.803C382.957 145.247 382.831 145.781 382.831 146.405C382.831 147.017 382.957 147.551 383.209 148.007C383.461 148.463 383.803 148.811 384.235 149.051C384.667 149.291 385.153 149.411 385.693 149.411ZM392.956 151.211V137.855H395.206V151.211H392.956ZM402.678 151.337C401.61 151.337 400.674 151.127 399.87 150.707C399.078 150.275 398.46 149.687 398.016 148.943C397.584 148.199 397.368 147.353 397.368 146.405C397.368 145.445 397.578 144.599 397.998 143.867C398.43 143.123 399.018 142.541 399.762 142.121C400.518 141.701 401.376 141.491 402.336 141.491C403.272 141.491 404.106 141.695 404.838 142.103C405.57 142.511 406.146 143.087 406.566 143.831C406.986 144.575 407.196 145.451 407.196 146.459C407.196 146.555 407.19 146.663 407.178 146.783C407.178 146.903 407.172 147.017 407.16 147.125H399.15V145.631H405.972L405.09 146.099C405.102 145.547 404.988 145.061 404.748 144.641C404.508 144.221 404.178 143.891 403.758 143.651C403.35 143.411 402.876 143.291 402.336 143.291C401.784 143.291 401.298 143.411 400.878 143.651C400.47 143.891 400.146 144.227 399.906 144.659C399.678 145.079 399.564 145.577 399.564 146.153V146.513C399.564 147.089 399.696 147.599 399.96 148.043C400.224 148.487 400.596 148.829 401.076 149.069C401.556 149.309 402.108 149.429 402.732 149.429C403.272 149.429 403.758 149.345 404.19 149.177C404.622 149.009 405.006 148.745 405.342 148.385L406.548 149.771C406.116 150.275 405.57 150.665 404.91 150.941C404.262 151.205 403.518 151.337 402.678 151.337ZM419.659 151.337C418.879 151.337 418.165 151.157 417.517 150.797C416.881 150.437 416.371 149.897 415.987 149.177C415.615 148.445 415.429 147.521 415.429 146.405C415.429 145.277 415.609 144.353 415.969 143.633C416.341 142.913 416.845 142.379 417.481 142.031C418.117 141.671 418.843 141.491 419.659 141.491C420.607 141.491 421.441 141.695 422.161 142.103C422.893 142.511 423.469 143.081 423.889 143.813C424.321 144.545 424.537 145.409 424.537 146.405C424.537 147.401 424.321 148.271 423.889 149.015C423.469 149.747 422.893 150.317 422.161 150.725C421.441 151.133 420.607 151.337 419.659 151.337ZM414.331 154.703V141.599H416.473V143.867L416.401 146.423L416.581 148.979V154.703H414.331ZM419.407 149.411C419.947 149.411 420.427 149.291 420.847 149.051C421.279 148.811 421.621 148.463 421.873 148.007C422.125 147.551 422.251 147.017 422.251 146.405C422.251 145.781 422.125 145.247 421.873 144.803C421.621 144.347 421.279 143.999 420.847 143.759C420.427 143.519 419.947 143.399 419.407 143.399C418.867 143.399 418.381 143.519 417.949 143.759C417.517 143.999 417.175 144.347 416.923 144.803C416.671 145.247 416.545 145.781 416.545 146.405C416.545 147.017 416.671 147.551 416.923 148.007C417.175 148.463 417.517 148.811 417.949 149.051C418.381 149.291 418.867 149.411 419.407 149.411ZM426.671 151.211V141.599H428.813V144.245L428.561 143.471C428.849 142.823 429.299 142.331 429.911 141.995C430.535 141.659 431.309 141.491 432.233 141.491V143.633C432.137 143.609 432.047 143.597 431.963 143.597C431.879 143.585 431.795 143.579 431.711 143.579C430.859 143.579 430.181 143.831 429.677 144.335C429.173 144.827 428.921 145.565 428.921 146.549V151.211H426.671ZM438.374 151.337C437.39 151.337 436.514 151.127 435.746 150.707C434.978 150.275 434.372 149.687 433.928 148.943C433.484 148.199 433.262 147.353 433.262 146.405C433.262 145.445 433.484 144.599 433.928 143.867C434.372 143.123 434.978 142.541 435.746 142.121C436.514 141.701 437.39 141.491 438.374 141.491C439.37 141.491 440.252 141.701 441.02 142.121C441.8 142.541 442.406 143.117 442.838 143.849C443.282 144.581 443.504 145.433 443.504 146.405C443.504 147.353 443.282 148.199 442.838 148.943C442.406 149.687 441.8 150.275 441.02 150.707C440.252 151.127 439.37 151.337 438.374 151.337ZM438.374 149.411C438.926 149.411 439.418 149.291 439.85 149.051C440.282 148.811 440.618 148.463 440.858 148.007C441.11 147.551 441.236 147.017 441.236 146.405C441.236 145.781 441.11 145.247 440.858 144.803C440.618 144.347 440.282 143.999 439.85 143.759C439.418 143.519 438.932 143.399 438.392 143.399C437.84 143.399 437.348 143.519 436.916 143.759C436.496 143.999 436.16 144.347 435.908 144.803C435.656 145.247 435.53 145.781 435.53 146.405C435.53 147.017 435.656 147.551 435.908 148.007C436.16 148.463 436.496 148.811 436.916 149.051C437.348 149.291 437.834 149.411 438.374 149.411ZM449.724 151.337C448.8 151.337 447.966 151.133 447.222 150.725C446.49 150.305 445.914 149.729 445.494 148.997C445.074 148.265 444.864 147.401 444.864 146.405C444.864 145.409 445.074 144.545 445.494 143.813C445.914 143.081 446.49 142.511 447.222 142.103C447.966 141.695 448.8 141.491 449.724 141.491C450.528 141.491 451.248 141.671 451.884 142.031C452.52 142.379 453.024 142.913 453.396 143.633C453.768 144.353 453.954 145.277 453.954 146.405C453.954 147.521 453.774 148.445 453.414 149.177C453.054 149.897 452.556 150.437 451.92 150.797C451.284 151.157 450.552 151.337 449.724 151.337ZM449.994 149.411C450.534 149.411 451.014 149.291 451.434 149.051C451.866 148.811 452.208 148.463 452.46 148.007C452.724 147.551 452.856 147.017 452.856 146.405C452.856 145.781 452.724 145.247 452.46 144.803C452.208 144.347 451.866 143.999 451.434 143.759C451.014 143.519 450.534 143.399 449.994 143.399C449.454 143.399 448.968 143.519 448.536 143.759C448.116 143.999 447.774 144.347 447.51 144.803C447.258 145.247 447.132 145.781 447.132 146.405C447.132 147.017 447.258 147.551 447.51 148.007C447.774 148.463 448.116 148.811 448.536 149.051C448.968 149.291 449.454 149.411 449.994 149.411ZM452.91 151.211V148.943L453 146.387L452.82 143.831V137.855H455.052V151.211H452.91ZM462.081 151.337C461.265 151.337 460.545 151.187 459.921 150.887C459.297 150.575 458.811 150.107 458.463 149.483C458.115 148.847 457.941 148.049 457.941 147.089V141.599H460.191V146.783C460.191 147.647 460.383 148.295 460.767 148.727C461.163 149.147 461.721 149.357 462.441 149.357C462.969 149.357 463.425 149.249 463.809 149.033C464.205 148.817 464.511 148.493 464.727 148.061C464.955 147.629 465.069 147.095 465.069 146.459V141.599H467.319V151.211H465.177V148.619L465.555 149.411C465.231 150.035 464.757 150.515 464.133 150.851C463.509 151.175 462.825 151.337 462.081 151.337ZM474.675 151.337C473.667 151.337 472.767 151.127 471.975 150.707C471.195 150.275 470.583 149.687 470.139 148.943C469.695 148.199 469.473 147.353 469.473 146.405C469.473 145.445 469.695 144.599 470.139 143.867C470.583 143.123 471.195 142.541 471.975 142.121C472.767 141.701 473.667 141.491 474.675 141.491C475.611 141.491 476.433 141.683 477.141 142.067C477.861 142.439 478.407 142.991 478.779 143.723L477.051 144.731C476.763 144.275 476.409 143.939 475.989 143.723C475.581 143.507 475.137 143.399 474.657 143.399C474.105 143.399 473.607 143.519 473.163 143.759C472.719 143.999 472.371 144.347 472.119 144.803C471.867 145.247 471.741 145.781 471.741 146.405C471.741 147.029 471.867 147.569 472.119 148.025C472.371 148.469 472.719 148.811 473.163 149.051C473.607 149.291 474.105 149.411 474.657 149.411C475.137 149.411 475.581 149.303 475.989 149.087C476.409 148.871 476.763 148.535 477.051 148.079L478.779 149.087C478.407 149.807 477.861 150.365 477.141 150.761C476.433 151.145 475.611 151.337 474.675 151.337ZM484.465 151.337C483.409 151.337 482.593 151.067 482.017 150.527C481.441 149.975 481.153 149.165 481.153 148.097V139.475H483.403V148.043C483.403 148.499 483.517 148.853 483.745 149.105C483.985 149.357 484.315 149.483 484.735 149.483C485.239 149.483 485.659 149.351 485.995 149.087L486.625 150.689C486.361 150.905 486.037 151.067 485.653 151.175C485.269 151.283 484.873 151.337 484.465 151.337ZM479.569 143.471V141.671H485.977V143.471H479.569Z" fill="white"/>
<path d="M277.772 200.211V187.611H283.676C285.188 187.611 286.34 187.911 287.132 188.511C287.924 189.099 288.32 189.891 288.32 190.887C288.32 191.559 288.164 192.135 287.852 192.615C287.54 193.083 287.12 193.449 286.592 193.713C286.076 193.965 285.512 194.091 284.9 194.091L285.224 193.443C285.932 193.443 286.568 193.575 287.132 193.839C287.696 194.091 288.14 194.463 288.464 194.955C288.8 195.447 288.968 196.059 288.968 196.791C288.968 197.871 288.554 198.711 287.726 199.311C286.898 199.911 285.668 200.211 284.036 200.211H277.772ZM280.112 198.375H283.892C284.768 198.375 285.44 198.231 285.908 197.943C286.376 197.655 286.61 197.193 286.61 196.557C286.61 195.933 286.376 195.477 285.908 195.189C285.44 194.889 284.768 194.739 283.892 194.739H279.932V192.921H283.424C284.24 192.921 284.864 192.777 285.296 192.489C285.74 192.201 285.962 191.769 285.962 191.193C285.962 190.605 285.74 190.167 285.296 189.879C284.864 189.591 284.24 189.447 283.424 189.447H280.112V198.375ZM297.171 200.211V198.267L297.045 197.853V194.451C297.045 193.791 296.847 193.281 296.451 192.921C296.055 192.549 295.455 192.363 294.651 192.363C294.111 192.363 293.577 192.447 293.049 192.615C292.533 192.783 292.095 193.017 291.735 193.317L290.853 191.679C291.369 191.283 291.981 190.989 292.689 190.797C293.409 190.593 294.153 190.491 294.921 190.491C296.313 190.491 297.387 190.827 298.143 191.499C298.911 192.159 299.295 193.185 299.295 194.577V200.211H297.171ZM294.147 200.337C293.427 200.337 292.797 200.217 292.257 199.977C291.717 199.725 291.297 199.383 290.997 198.951C290.709 198.507 290.565 198.009 290.565 197.457C290.565 196.917 290.691 196.431 290.943 195.999C291.207 195.567 291.633 195.225 292.221 194.973C292.809 194.721 293.589 194.595 294.561 194.595H297.351V196.089H294.723C293.955 196.089 293.439 196.215 293.175 196.467C292.911 196.707 292.779 197.007 292.779 197.367C292.779 197.775 292.941 198.099 293.265 198.339C293.589 198.579 294.039 198.699 294.615 198.699C295.167 198.699 295.659 198.573 296.091 198.321C296.535 198.069 296.853 197.697 297.045 197.205L297.423 198.555C297.207 199.119 296.817 199.557 296.253 199.869C295.701 200.181 294.999 200.337 294.147 200.337ZM306.611 200.337C305.603 200.337 304.703 200.127 303.911 199.707C303.131 199.275 302.519 198.687 302.075 197.943C301.631 197.199 301.409 196.353 301.409 195.405C301.409 194.445 301.631 193.599 302.075 192.867C302.519 192.123 303.131 191.541 303.911 191.121C304.703 190.701 305.603 190.491 306.611 190.491C307.547 190.491 308.369 190.683 309.077 191.067C309.797 191.439 310.343 191.991 310.715 192.723L308.987 193.731C308.699 193.275 308.345 192.939 307.925 192.723C307.517 192.507 307.073 192.399 306.593 192.399C306.041 192.399 305.543 192.519 305.099 192.759C304.655 192.999 304.307 193.347 304.055 193.803C303.803 194.247 303.677 194.781 303.677 195.405C303.677 196.029 303.803 196.569 304.055 197.025C304.307 197.469 304.655 197.811 305.099 198.051C305.543 198.291 306.041 198.411 306.593 198.411C307.073 198.411 307.517 198.303 307.925 198.087C308.345 197.871 308.699 197.535 308.987 197.079L310.715 198.087C310.343 198.807 309.797 199.365 309.077 199.761C308.369 200.145 307.547 200.337 306.611 200.337ZM314.408 198.069L314.462 195.243L319.484 190.599H322.184L317.918 194.883L316.73 195.873L314.408 198.069ZM312.572 200.211V186.855H314.822V200.211H312.572ZM319.826 200.211L316.316 195.873L317.738 194.073L322.562 200.211H319.826ZM328.146 200.337C327.078 200.337 326.142 200.127 325.338 199.707C324.546 199.275 323.928 198.687 323.484 197.943C323.052 197.199 322.836 196.353 322.836 195.405C322.836 194.445 323.046 193.599 323.466 192.867C323.898 192.123 324.486 191.541 325.23 191.121C325.986 190.701 326.844 190.491 327.804 190.491C328.74 190.491 329.574 190.695 330.306 191.103C331.038 191.511 331.614 192.087 332.034 192.831C332.454 193.575 332.664 194.451 332.664 195.459C332.664 195.555 332.658 195.663 332.646 195.783C332.646 195.903 332.64 196.017 332.628 196.125H324.618V194.631H331.44L330.558 195.099C330.57 194.547 330.456 194.061 330.216 193.641C329.976 193.221 329.646 192.891 329.226 192.651C328.818 192.411 328.344 192.291 327.804 192.291C327.252 192.291 326.766 192.411 326.346 192.651C325.938 192.891 325.614 193.227 325.374 193.659C325.146 194.079 325.032 194.577 325.032 195.153V195.513C325.032 196.089 325.164 196.599 325.428 197.043C325.692 197.487 326.064 197.829 326.544 198.069C327.024 198.309 327.576 198.429 328.2 198.429C328.74 198.429 329.226 198.345 329.658 198.177C330.09 198.009 330.474 197.745 330.81 197.385L332.016 198.771C331.584 199.275 331.038 199.665 330.378 199.941C329.73 200.205 328.986 200.337 328.146 200.337ZM340.28 190.491C341.048 190.491 341.732 190.641 342.332 190.941C342.944 191.241 343.424 191.703 343.772 192.327C344.12 192.939 344.294 193.731 344.294 194.703V200.211H342.044V194.991C342.044 194.139 341.84 193.503 341.432 193.083C341.036 192.663 340.478 192.453 339.758 192.453C339.23 192.453 338.762 192.561 338.354 192.777C337.946 192.993 337.628 193.317 337.4 193.749C337.184 194.169 337.076 194.703 337.076 195.351V200.211H334.826V190.599H336.968V193.191L336.59 192.399C336.926 191.787 337.412 191.319 338.048 190.995C338.696 190.659 339.44 190.491 340.28 190.491ZM351.233 200.337C350.309 200.337 349.475 200.133 348.731 199.725C347.999 199.305 347.423 198.729 347.003 197.997C346.583 197.265 346.373 196.401 346.373 195.405C346.373 194.409 346.583 193.545 347.003 192.813C347.423 192.081 347.999 191.511 348.731 191.103C349.475 190.695 350.309 190.491 351.233 190.491C352.037 190.491 352.757 190.671 353.393 191.031C354.029 191.379 354.533 191.913 354.905 192.633C355.277 193.353 355.463 194.277 355.463 195.405C355.463 196.521 355.283 197.445 354.923 198.177C354.563 198.897 354.065 199.437 353.429 199.797C352.793 200.157 352.061 200.337 351.233 200.337ZM351.503 198.411C352.043 198.411 352.523 198.291 352.943 198.051C353.375 197.811 353.717 197.463 353.969 197.007C354.233 196.551 354.365 196.017 354.365 195.405C354.365 194.781 354.233 194.247 353.969 193.803C353.717 193.347 353.375 192.999 352.943 192.759C352.523 192.519 352.043 192.399 351.503 192.399C350.963 192.399 350.477 192.519 350.045 192.759C349.625 192.999 349.283 193.347 349.019 193.803C348.767 194.247 348.641 194.781 348.641 195.405C348.641 196.017 348.767 196.551 349.019 197.007C349.283 197.463 349.625 197.811 350.045 198.051C350.477 198.291 350.963 198.411 351.503 198.411ZM354.419 200.211V197.943L354.509 195.387L354.329 192.831V186.855H356.561V200.211H354.419ZM368.565 200.337C367.641 200.337 366.807 200.133 366.063 199.725C365.331 199.305 364.755 198.729 364.335 197.997C363.915 197.265 363.705 196.401 363.705 195.405C363.705 194.409 363.915 193.545 364.335 192.813C364.755 192.081 365.331 191.511 366.063 191.103C366.807 190.695 367.641 190.491 368.565 190.491C369.369 190.491 370.089 190.671 370.725 191.031C371.361 191.379 371.865 191.913 372.237 192.633C372.609 193.353 372.795 194.277 372.795 195.405C372.795 196.521 372.615 197.445 372.255 198.177C371.895 198.897 371.397 199.437 370.761 199.797C370.125 200.157 369.393 200.337 368.565 200.337ZM368.835 198.411C369.375 198.411 369.855 198.291 370.275 198.051C370.707 197.811 371.049 197.463 371.301 197.007C371.565 196.551 371.697 196.017 371.697 195.405C371.697 194.781 371.565 194.247 371.301 193.803C371.049 193.347 370.707 192.999 370.275 192.759C369.855 192.519 369.375 192.399 368.835 192.399C368.295 192.399 367.809 192.519 367.377 192.759C366.957 192.999 366.615 193.347 366.351 193.803C366.099 194.247 365.973 194.781 365.973 195.405C365.973 196.017 366.099 196.551 366.351 197.007C366.615 197.463 366.957 197.811 367.377 198.051C367.809 198.291 368.295 198.411 368.835 198.411ZM371.751 200.211V197.943L371.841 195.387L371.661 192.831V186.855H373.893V200.211H371.751ZM381.373 200.337C380.305 200.337 379.369 200.127 378.565 199.707C377.773 199.275 377.155 198.687 376.711 197.943C376.279 197.199 376.063 196.353 376.063 195.405C376.063 194.445 376.273 193.599 376.693 192.867C377.125 192.123 377.713 191.541 378.457 191.121C379.213 190.701 380.071 190.491 381.031 190.491C381.967 190.491 382.801 190.695 383.533 191.103C384.265 191.511 384.841 192.087 385.261 192.831C385.681 193.575 385.891 194.451 385.891 195.459C385.891 195.555 385.885 195.663 385.873 195.783C385.873 195.903 385.867 196.017 385.855 196.125H377.845V194.631H384.667L383.785 195.099C383.797 194.547 383.683 194.061 383.443 193.641C383.203 193.221 382.873 192.891 382.453 192.651C382.045 192.411 381.571 192.291 381.031 192.291C380.479 192.291 379.993 192.411 379.573 192.651C379.165 192.891 378.841 193.227 378.601 193.659C378.373 194.079 378.259 194.577 378.259 195.153V195.513C378.259 196.089 378.391 196.599 378.655 197.043C378.919 197.487 379.291 197.829 379.771 198.069C380.251 198.309 380.803 198.429 381.427 198.429C381.967 198.429 382.453 198.345 382.885 198.177C383.317 198.009 383.701 197.745 384.037 197.385L385.243 198.771C384.811 199.275 384.265 199.665 383.605 199.941C382.957 200.205 382.213 200.337 381.373 200.337ZM390.432 200.211L386.31 190.599H388.65L392.196 199.077H391.044L394.716 190.599H396.876L392.754 200.211H390.432ZM402.537 200.337C401.469 200.337 400.533 200.127 399.729 199.707C398.937 199.275 398.319 198.687 397.875 197.943C397.443 197.199 397.227 196.353 397.227 195.405C397.227 194.445 397.437 193.599 397.857 192.867C398.289 192.123 398.877 191.541 399.621 191.121C400.377 190.701 401.235 190.491 402.195 190.491C403.131 190.491 403.965 190.695 404.697 191.103C405.429 191.511 406.005 192.087 406.425 192.831C406.845 193.575 407.055 194.451 407.055 195.459C407.055 195.555 407.049 195.663 407.037 195.783C407.037 195.903 407.031 196.017 407.019 196.125H399.009V194.631H405.831L404.949 195.099C404.961 194.547 404.847 194.061 404.607 193.641C404.367 193.221 404.037 192.891 403.617 192.651C403.209 192.411 402.735 192.291 402.195 192.291C401.643 192.291 401.157 192.411 400.737 192.651C400.329 192.891 400.005 193.227 399.765 193.659C399.537 194.079 399.423 194.577 399.423 195.153V195.513C399.423 196.089 399.555 196.599 399.819 197.043C400.083 197.487 400.455 197.829 400.935 198.069C401.415 198.309 401.967 198.429 402.591 198.429C403.131 198.429 403.617 198.345 404.049 198.177C404.481 198.009 404.865 197.745 405.201 197.385L406.407 198.771C405.975 199.275 405.429 199.665 404.769 199.941C404.121 200.205 403.377 200.337 402.537 200.337ZM409.216 200.211V186.855H411.466V200.211H409.216ZM418.739 200.337C417.755 200.337 416.879 200.127 416.111 199.707C415.343 199.275 414.737 198.687 414.293 197.943C413.849 197.199 413.627 196.353 413.627 195.405C413.627 194.445 413.849 193.599 414.293 192.867C414.737 192.123 415.343 191.541 416.111 191.121C416.879 190.701 417.755 190.491 418.739 190.491C419.735 190.491 420.617 190.701 421.385 191.121C422.165 191.541 422.771 192.117 423.203 192.849C423.647 193.581 423.869 194.433 423.869 195.405C423.869 196.353 423.647 197.199 423.203 197.943C422.771 198.687 422.165 199.275 421.385 199.707C420.617 200.127 419.735 200.337 418.739 200.337ZM418.739 198.411C419.291 198.411 419.783 198.291 420.215 198.051C420.647 197.811 420.983 197.463 421.223 197.007C421.475 196.551 421.601 196.017 421.601 195.405C421.601 194.781 421.475 194.247 421.223 193.803C420.983 193.347 420.647 192.999 420.215 192.759C419.783 192.519 419.297 192.399 418.757 192.399C418.205 192.399 417.713 192.519 417.281 192.759C416.861 192.999 416.525 193.347 416.273 193.803C416.021 194.247 415.895 194.781 415.895 195.405C415.895 196.017 416.021 196.551 416.273 197.007C416.525 197.463 416.861 197.811 417.281 198.051C417.713 198.291 418.199 198.411 418.739 198.411ZM431.349 200.337C430.569 200.337 429.855 200.157 429.207 199.797C428.571 199.437 428.061 198.897 427.677 198.177C427.305 197.445 427.119 196.521 427.119 195.405C427.119 194.277 427.299 193.353 427.659 192.633C428.031 191.913 428.535 191.379 429.171 191.031C429.807 190.671 430.533 190.491 431.349 190.491C432.297 190.491 433.131 190.695 433.851 191.103C434.583 191.511 435.159 192.081 435.579 192.813C436.011 193.545 436.227 194.409 436.227 195.405C436.227 196.401 436.011 197.271 435.579 198.015C435.159 198.747 434.583 199.317 433.851 199.725C433.131 200.133 432.297 200.337 431.349 200.337ZM426.021 203.703V190.599H428.163V192.867L428.091 195.423L428.271 197.979V203.703H426.021ZM431.097 198.411C431.637 198.411 432.117 198.291 432.537 198.051C432.969 197.811 433.311 197.463 433.563 197.007C433.815 196.551 433.941 196.017 433.941 195.405C433.941 194.781 433.815 194.247 433.563 193.803C433.311 193.347 432.969 192.999 432.537 192.759C432.117 192.519 431.637 192.399 431.097 192.399C430.557 192.399 430.071 192.519 429.639 192.759C429.207 192.999 428.865 193.347 428.613 193.803C428.361 194.247 428.235 194.781 428.235 195.405C428.235 196.017 428.361 196.551 428.613 197.007C428.865 197.463 429.207 197.811 429.639 198.051C430.071 198.291 430.557 198.411 431.097 198.411ZM450.493 190.491C451.261 190.491 451.939 190.641 452.527 190.941C453.127 191.241 453.595 191.703 453.931 192.327C454.267 192.939 454.435 193.731 454.435 194.703V200.211H452.185V194.991C452.185 194.139 451.999 193.503 451.627 193.083C451.255 192.663 450.721 192.453 450.025 192.453C449.533 192.453 449.095 192.561 448.711 192.777C448.339 192.993 448.045 193.311 447.829 193.731C447.625 194.151 447.523 194.685 447.523 195.333V200.211H445.273V194.991C445.273 194.139 445.087 193.503 444.715 193.083C444.343 192.663 443.809 192.453 443.113 192.453C442.621 192.453 442.183 192.561 441.799 192.777C441.427 192.993 441.133 193.311 440.917 193.731C440.713 194.151 440.611 194.685 440.611 195.333V200.211H438.361V190.599H440.503V193.155L440.125 192.399C440.449 191.775 440.917 191.301 441.529 190.977C442.153 190.653 442.861 190.491 443.653 190.491C444.553 190.491 445.333 190.713 445.993 191.157C446.665 191.601 447.109 192.273 447.325 193.173L446.443 192.867C446.755 192.147 447.271 191.571 447.991 191.139C448.711 190.707 449.545 190.491 450.493 190.491ZM461.846 200.337C460.778 200.337 459.842 200.127 459.038 199.707C458.246 199.275 457.628 198.687 457.184 197.943C456.752 197.199 456.536 196.353 456.536 195.405C456.536 194.445 456.746 193.599 457.166 192.867C457.598 192.123 458.186 191.541 458.93 191.121C459.686 190.701 460.544 190.491 461.504 190.491C462.44 190.491 463.274 190.695 464.006 191.103C464.738 191.511 465.314 192.087 465.734 192.831C466.154 193.575 466.364 194.451 466.364 195.459C466.364 195.555 466.358 195.663 466.346 195.783C466.346 195.903 466.34 196.017 466.328 196.125H458.318V194.631H465.14L464.258 195.099C464.27 194.547 464.156 194.061 463.916 193.641C463.676 193.221 463.346 192.891 462.926 192.651C462.518 192.411 462.044 192.291 461.504 192.291C460.952 192.291 460.466 192.411 460.046 192.651C459.638 192.891 459.314 193.227 459.074 193.659C458.846 194.079 458.732 194.577 458.732 195.153V195.513C458.732 196.089 458.864 196.599 459.128 197.043C459.392 197.487 459.764 197.829 460.244 198.069C460.724 198.309 461.276 198.429 461.9 198.429C462.44 198.429 462.926 198.345 463.358 198.177C463.79 198.009 464.174 197.745 464.51 197.385L465.716 198.771C465.284 199.275 464.738 199.665 464.078 199.941C463.43 200.205 462.686 200.337 461.846 200.337ZM473.979 190.491C474.747 190.491 475.431 190.641 476.031 190.941C476.643 191.241 477.123 191.703 477.471 192.327C477.819 192.939 477.993 193.731 477.993 194.703V200.211H475.743V194.991C475.743 194.139 475.539 193.503 475.131 193.083C474.735 192.663 474.177 192.453 473.457 192.453C472.929 192.453 472.461 192.561 472.053 192.777C471.645 192.993 471.327 193.317 471.099 193.749C470.883 194.169 470.775 194.703 470.775 195.351V200.211H468.525V190.599H470.667V193.191L470.289 192.399C470.625 191.787 471.111 191.319 471.747 190.995C472.395 190.659 473.139 190.491 473.979 190.491ZM484.465 200.337C483.409 200.337 482.593 200.067 482.017 199.527C481.441 198.975 481.153 198.165 481.153 197.097V188.475H483.403V197.043C483.403 197.499 483.517 197.853 483.745 198.105C483.985 198.357 484.315 198.483 484.735 198.483C485.239 198.483 485.659 198.351 485.995 198.087L486.625 199.689C486.361 199.905 486.037 200.067 485.653 200.175C485.269 200.283 484.873 200.337 484.465 200.337ZM479.569 192.471V190.671H485.977V192.471H479.569Z" fill="white"/>
<path d="M276.082 243.407H282.364V245.387H276.082V243.407ZM276.28 250.211H273.94V237.611H283.138V239.573H276.28V250.211ZM285.009 250.211V240.599H287.151V243.245L286.899 242.471C287.187 241.823 287.637 241.331 288.249 240.995C288.873 240.659 289.647 240.491 290.571 240.491V242.633C290.475 242.609 290.385 242.597 290.301 242.597C290.217 242.585 290.133 242.579 290.049 242.579C289.197 242.579 288.519 242.831 288.015 243.335C287.511 243.827 287.259 244.565 287.259 245.549V250.211H285.009ZM296.712 250.337C295.728 250.337 294.852 250.127 294.084 249.707C293.316 249.275 292.71 248.687 292.266 247.943C291.822 247.199 291.6 246.353 291.6 245.405C291.6 244.445 291.822 243.599 292.266 242.867C292.71 242.123 293.316 241.541 294.084 241.121C294.852 240.701 295.728 240.491 296.712 240.491C297.708 240.491 298.59 240.701 299.358 241.121C300.138 241.541 300.744 242.117 301.176 242.849C301.62 243.581 301.842 244.433 301.842 245.405C301.842 246.353 301.62 247.199 301.176 247.943C300.744 248.687 300.138 249.275 299.358 249.707C298.59 250.127 297.708 250.337 296.712 250.337ZM296.712 248.411C297.264 248.411 297.756 248.291 298.188 248.051C298.62 247.811 298.956 247.463 299.196 247.007C299.448 246.551 299.574 246.017 299.574 245.405C299.574 244.781 299.448 244.247 299.196 243.803C298.956 243.347 298.62 242.999 298.188 242.759C297.756 242.519 297.27 242.399 296.73 242.399C296.178 242.399 295.686 242.519 295.254 242.759C294.834 242.999 294.498 243.347 294.246 243.803C293.994 244.247 293.868 244.781 293.868 245.405C293.868 246.017 293.994 246.551 294.246 247.007C294.498 247.463 294.834 247.811 295.254 248.051C295.686 248.291 296.172 248.411 296.712 248.411ZM309.448 240.491C310.216 240.491 310.9 240.641 311.5 240.941C312.112 241.241 312.592 241.703 312.94 242.327C313.288 242.939 313.462 243.731 313.462 244.703V250.211H311.212V244.991C311.212 244.139 311.008 243.503 310.6 243.083C310.204 242.663 309.646 242.453 308.926 242.453C308.398 242.453 307.93 242.561 307.522 242.777C307.114 242.993 306.796 243.317 306.568 243.749C306.352 244.169 306.244 244.703 306.244 245.351V250.211H303.994V240.599H306.136V243.191L305.758 242.399C306.094 241.787 306.58 241.319 307.216 240.995C307.864 240.659 308.608 240.491 309.448 240.491ZM319.934 250.337C318.878 250.337 318.062 250.067 317.486 249.527C316.91 248.975 316.622 248.165 316.622 247.097V238.475H318.872V247.043C318.872 247.499 318.986 247.853 319.214 248.105C319.454 248.357 319.784 248.483 320.204 248.483C320.708 248.483 321.128 248.351 321.464 248.087L322.094 249.689C321.83 249.905 321.506 250.067 321.122 250.175C320.738 250.283 320.342 250.337 319.934 250.337ZM315.038 242.471V240.671H321.446V242.471H315.038ZM328.146 250.337C327.078 250.337 326.142 250.127 325.338 249.707C324.546 249.275 323.928 248.687 323.484 247.943C323.052 247.199 322.836 246.353 322.836 245.405C322.836 244.445 323.046 243.599 323.466 242.867C323.898 242.123 324.486 241.541 325.23 241.121C325.986 240.701 326.844 240.491 327.804 240.491C328.74 240.491 329.574 240.695 330.306 241.103C331.038 241.511 331.614 242.087 332.034 242.831C332.454 243.575 332.664 244.451 332.664 245.459C332.664 245.555 332.658 245.663 332.646 245.783C332.646 245.903 332.64 246.017 332.628 246.125H324.618V244.631H331.44L330.558 245.099C330.57 244.547 330.456 244.061 330.216 243.641C329.976 243.221 329.646 242.891 329.226 242.651C328.818 242.411 328.344 242.291 327.804 242.291C327.252 242.291 326.766 242.411 326.346 242.651C325.938 242.891 325.614 243.227 325.374 243.659C325.146 244.079 325.032 244.577 325.032 245.153V245.513C325.032 246.089 325.164 246.599 325.428 247.043C325.692 247.487 326.064 247.829 326.544 248.069C327.024 248.309 327.576 248.429 328.2 248.429C328.74 248.429 329.226 248.345 329.658 248.177C330.09 248.009 330.474 247.745 330.81 247.385L332.016 248.771C331.584 249.275 331.038 249.665 330.378 249.941C329.73 250.205 328.986 250.337 328.146 250.337ZM340.28 240.491C341.048 240.491 341.732 240.641 342.332 240.941C342.944 241.241 343.424 241.703 343.772 242.327C344.12 242.939 344.294 243.731 344.294 244.703V250.211H342.044V244.991C342.044 244.139 341.84 243.503 341.432 243.083C341.036 242.663 340.478 242.453 339.758 242.453C339.23 242.453 338.762 242.561 338.354 242.777C337.946 242.993 337.628 243.317 337.4 243.749C337.184 244.169 337.076 244.703 337.076 245.351V250.211H334.826V240.599H336.968V243.191L336.59 242.399C336.926 241.787 337.412 241.319 338.048 240.995C338.696 240.659 339.44 240.491 340.28 240.491ZM351.233 250.337C350.309 250.337 349.475 250.133 348.731 249.725C347.999 249.305 347.423 248.729 347.003 247.997C346.583 247.265 346.373 246.401 346.373 245.405C346.373 244.409 346.583 243.545 347.003 242.813C347.423 242.081 347.999 241.511 348.731 241.103C349.475 240.695 350.309 240.491 351.233 240.491C352.037 240.491 352.757 240.671 353.393 241.031C354.029 241.379 354.533 241.913 354.905 242.633C355.277 243.353 355.463 244.277 355.463 245.405C355.463 246.521 355.283 247.445 354.923 248.177C354.563 248.897 354.065 249.437 353.429 249.797C352.793 250.157 352.061 250.337 351.233 250.337ZM351.503 248.411C352.043 248.411 352.523 248.291 352.943 248.051C353.375 247.811 353.717 247.463 353.969 247.007C354.233 246.551 354.365 246.017 354.365 245.405C354.365 244.781 354.233 244.247 353.969 243.803C353.717 243.347 353.375 242.999 352.943 242.759C352.523 242.519 352.043 242.399 351.503 242.399C350.963 242.399 350.477 242.519 350.045 242.759C349.625 242.999 349.283 243.347 349.019 243.803C348.767 244.247 348.641 244.781 348.641 245.405C348.641 246.017 348.767 246.551 349.019 247.007C349.283 247.463 349.625 247.811 350.045 248.051C350.477 248.291 350.963 248.411 351.503 248.411ZM354.419 250.211V247.943L354.509 245.387L354.329 242.831V236.855H356.561V250.211H354.419ZM368.565 250.337C367.641 250.337 366.807 250.133 366.063 249.725C365.331 249.305 364.755 248.729 364.335 247.997C363.915 247.265 363.705 246.401 363.705 245.405C363.705 244.409 363.915 243.545 364.335 242.813C364.755 242.081 365.331 241.511 366.063 241.103C366.807 240.695 367.641 240.491 368.565 240.491C369.369 240.491 370.089 240.671 370.725 241.031C371.361 241.379 371.865 241.913 372.237 242.633C372.609 243.353 372.795 244.277 372.795 245.405C372.795 246.521 372.615 247.445 372.255 248.177C371.895 248.897 371.397 249.437 370.761 249.797C370.125 250.157 369.393 250.337 368.565 250.337ZM368.835 248.411C369.375 248.411 369.855 248.291 370.275 248.051C370.707 247.811 371.049 247.463 371.301 247.007C371.565 246.551 371.697 246.017 371.697 245.405C371.697 244.781 371.565 244.247 371.301 243.803C371.049 243.347 370.707 242.999 370.275 242.759C369.855 242.519 369.375 242.399 368.835 242.399C368.295 242.399 367.809 242.519 367.377 242.759C366.957 242.999 366.615 243.347 366.351 243.803C366.099 244.247 365.973 244.781 365.973 245.405C365.973 246.017 366.099 246.551 366.351 247.007C366.615 247.463 366.957 247.811 367.377 248.051C367.809 248.291 368.295 248.411 368.835 248.411ZM371.751 250.211V247.943L371.841 245.387L371.661 242.831V236.855H373.893V250.211H371.751ZM381.373 250.337C380.305 250.337 379.369 250.127 378.565 249.707C377.773 249.275 377.155 248.687 376.711 247.943C376.279 247.199 376.063 246.353 376.063 245.405C376.063 244.445 376.273 243.599 376.693 242.867C377.125 242.123 377.713 241.541 378.457 241.121C379.213 240.701 380.071 240.491 381.031 240.491C381.967 240.491 382.801 240.695 383.533 241.103C384.265 241.511 384.841 242.087 385.261 242.831C385.681 243.575 385.891 244.451 385.891 245.459C385.891 245.555 385.885 245.663 385.873 245.783C385.873 245.903 385.867 246.017 385.855 246.125H377.845V244.631H384.667L383.785 245.099C383.797 244.547 383.683 244.061 383.443 243.641C383.203 243.221 382.873 242.891 382.453 242.651C382.045 242.411 381.571 242.291 381.031 242.291C380.479 242.291 379.993 242.411 379.573 242.651C379.165 242.891 378.841 243.227 378.601 243.659C378.373 244.079 378.259 244.577 378.259 245.153V245.513C378.259 246.089 378.391 246.599 378.655 247.043C378.919 247.487 379.291 247.829 379.771 248.069C380.251 248.309 380.803 248.429 381.427 248.429C381.967 248.429 382.453 248.345 382.885 248.177C383.317 248.009 383.701 247.745 384.037 247.385L385.243 248.771C384.811 249.275 384.265 249.665 383.605 249.941C382.957 250.205 382.213 250.337 381.373 250.337ZM390.432 250.211L386.31 240.599H388.65L392.196 249.077H391.044L394.716 240.599H396.876L392.754 250.211H390.432ZM402.537 250.337C401.469 250.337 400.533 250.127 399.729 249.707C398.937 249.275 398.319 248.687 397.875 247.943C397.443 247.199 397.227 246.353 397.227 245.405C397.227 244.445 397.437 243.599 397.857 242.867C398.289 242.123 398.877 241.541 399.621 241.121C400.377 240.701 401.235 240.491 402.195 240.491C403.131 240.491 403.965 240.695 404.697 241.103C405.429 241.511 406.005 242.087 406.425 242.831C406.845 243.575 407.055 244.451 407.055 245.459C407.055 245.555 407.049 245.663 407.037 245.783C407.037 245.903 407.031 246.017 407.019 246.125H399.009V244.631H405.831L404.949 245.099C404.961 244.547 404.847 244.061 404.607 243.641C404.367 243.221 404.037 242.891 403.617 242.651C403.209 242.411 402.735 242.291 402.195 242.291C401.643 242.291 401.157 242.411 400.737 242.651C400.329 242.891 400.005 243.227 399.765 243.659C399.537 244.079 399.423 244.577 399.423 245.153V245.513C399.423 246.089 399.555 246.599 399.819 247.043C400.083 247.487 400.455 247.829 400.935 248.069C401.415 248.309 401.967 248.429 402.591 248.429C403.131 248.429 403.617 248.345 404.049 248.177C404.481 248.009 404.865 247.745 405.201 247.385L406.407 248.771C405.975 249.275 405.429 249.665 404.769 249.941C404.121 250.205 403.377 250.337 402.537 250.337ZM409.216 250.211V236.855H411.466V250.211H409.216ZM418.739 250.337C417.755 250.337 416.879 250.127 416.111 249.707C415.343 249.275 414.737 248.687 414.293 247.943C413.849 247.199 413.627 246.353 413.627 245.405C413.627 244.445 413.849 243.599 414.293 242.867C414.737 242.123 415.343 241.541 416.111 241.121C416.879 240.701 417.755 240.491 418.739 240.491C419.735 240.491 420.617 240.701 421.385 241.121C422.165 241.541 422.771 242.117 423.203 242.849C423.647 243.581 423.869 244.433 423.869 245.405C423.869 246.353 423.647 247.199 423.203 247.943C422.771 248.687 422.165 249.275 421.385 249.707C420.617 250.127 419.735 250.337 418.739 250.337ZM418.739 248.411C419.291 248.411 419.783 248.291 420.215 248.051C420.647 247.811 420.983 247.463 421.223 247.007C421.475 246.551 421.601 246.017 421.601 245.405C421.601 244.781 421.475 244.247 421.223 243.803C420.983 243.347 420.647 242.999 420.215 242.759C419.783 242.519 419.297 242.399 418.757 242.399C418.205 242.399 417.713 242.519 417.281 242.759C416.861 242.999 416.525 243.347 416.273 243.803C416.021 244.247 415.895 244.781 415.895 245.405C415.895 246.017 416.021 246.551 416.273 247.007C416.525 247.463 416.861 247.811 417.281 248.051C417.713 248.291 418.199 248.411 418.739 248.411ZM431.349 250.337C430.569 250.337 429.855 250.157 429.207 249.797C428.571 249.437 428.061 248.897 427.677 248.177C427.305 247.445 427.119 246.521 427.119 245.405C427.119 244.277 427.299 243.353 427.659 242.633C428.031 241.913 428.535 241.379 429.171 241.031C429.807 240.671 430.533 240.491 431.349 240.491C432.297 240.491 433.131 240.695 433.851 241.103C434.583 241.511 435.159 242.081 435.579 242.813C436.011 243.545 436.227 244.409 436.227 245.405C436.227 246.401 436.011 247.271 435.579 248.015C435.159 248.747 434.583 249.317 433.851 249.725C433.131 250.133 432.297 250.337 431.349 250.337ZM426.021 253.703V240.599H428.163V242.867L428.091 245.423L428.271 247.979V253.703H426.021ZM431.097 248.411C431.637 248.411 432.117 248.291 432.537 248.051C432.969 247.811 433.311 247.463 433.563 247.007C433.815 246.551 433.941 246.017 433.941 245.405C433.941 244.781 433.815 244.247 433.563 243.803C433.311 243.347 432.969 242.999 432.537 242.759C432.117 242.519 431.637 242.399 431.097 242.399C430.557 242.399 430.071 242.519 429.639 242.759C429.207 242.999 428.865 243.347 428.613 243.803C428.361 244.247 428.235 244.781 428.235 245.405C428.235 246.017 428.361 246.551 428.613 247.007C428.865 247.463 429.207 247.811 429.639 248.051C430.071 248.291 430.557 248.411 431.097 248.411ZM450.493 240.491C451.261 240.491 451.939 240.641 452.527 240.941C453.127 241.241 453.595 241.703 453.931 242.327C454.267 242.939 454.435 243.731 454.435 244.703V250.211H452.185V244.991C452.185 244.139 451.999 243.503 451.627 243.083C451.255 242.663 450.721 242.453 450.025 242.453C449.533 242.453 449.095 242.561 448.711 242.777C448.339 242.993 448.045 243.311 447.829 243.731C447.625 244.151 447.523 244.685 447.523 245.333V250.211H445.273V244.991C445.273 244.139 445.087 243.503 444.715 243.083C444.343 242.663 443.809 242.453 443.113 242.453C442.621 242.453 442.183 242.561 441.799 242.777C441.427 242.993 441.133 243.311 440.917 243.731C440.713 244.151 440.611 244.685 440.611 245.333V250.211H438.361V240.599H440.503V243.155L440.125 242.399C440.449 241.775 440.917 241.301 441.529 240.977C442.153 240.653 442.861 240.491 443.653 240.491C444.553 240.491 445.333 240.713 445.993 241.157C446.665 241.601 447.109 242.273 447.325 243.173L446.443 242.867C446.755 242.147 447.271 241.571 447.991 241.139C448.711 240.707 449.545 240.491 450.493 240.491ZM461.846 250.337C460.778 250.337 459.842 250.127 459.038 249.707C458.246 249.275 457.628 248.687 457.184 247.943C456.752 247.199 456.536 246.353 456.536 245.405C456.536 244.445 456.746 243.599 457.166 242.867C457.598 242.123 458.186 241.541 458.93 241.121C459.686 240.701 460.544 240.491 461.504 240.491C462.44 240.491 463.274 240.695 464.006 241.103C464.738 241.511 465.314 242.087 465.734 242.831C466.154 243.575 466.364 244.451 466.364 245.459C466.364 245.555 466.358 245.663 466.346 245.783C466.346 245.903 466.34 246.017 466.328 246.125H458.318V244.631H465.14L464.258 245.099C464.27 244.547 464.156 244.061 463.916 243.641C463.676 243.221 463.346 242.891 462.926 242.651C462.518 242.411 462.044 242.291 461.504 242.291C460.952 242.291 460.466 242.411 460.046 242.651C459.638 242.891 459.314 243.227 459.074 243.659C458.846 244.079 458.732 244.577 458.732 245.153V245.513C458.732 246.089 458.864 246.599 459.128 247.043C459.392 247.487 459.764 247.829 460.244 248.069C460.724 248.309 461.276 248.429 461.9 248.429C462.44 248.429 462.926 248.345 463.358 248.177C463.79 248.009 464.174 247.745 464.51 247.385L465.716 248.771C465.284 249.275 464.738 249.665 464.078 249.941C463.43 250.205 462.686 250.337 461.846 250.337ZM473.979 240.491C474.747 240.491 475.431 240.641 476.031 240.941C476.643 241.241 477.123 241.703 477.471 242.327C477.819 242.939 477.993 243.731 477.993 244.703V250.211H475.743V244.991C475.743 244.139 475.539 243.503 475.131 243.083C474.735 242.663 474.177 242.453 473.457 242.453C472.929 242.453 472.461 242.561 472.053 242.777C471.645 242.993 471.327 243.317 471.099 243.749C470.883 244.169 470.775 244.703 470.775 245.351V250.211H468.525V240.599H470.667V243.191L470.289 242.399C470.625 241.787 471.111 241.319 471.747 240.995C472.395 240.659 473.139 240.491 473.979 240.491ZM484.465 250.337C483.409 250.337 482.593 250.067 482.017 249.527C481.441 248.975 481.153 248.165 481.153 247.097V238.475H483.403V247.043C483.403 247.499 483.517 247.853 483.745 248.105C483.985 248.357 484.315 248.483 484.735 248.483C485.239 248.483 485.659 248.351 485.995 248.087L486.625 249.689C486.361 249.905 486.037 250.067 485.653 250.175C485.269 250.283 484.873 250.337 484.465 250.337ZM479.569 242.471V240.671H485.977V242.471H479.569Z" fill="white"/>
<line x1="226" y1="144.711" x2="245" y2="144.711" stroke="white"/>
<line x1="226" y1="194.711" x2="258" y2="194.711" stroke="white"/>
<line x1="226" y1="244.711" x2="258" y2="244.711" stroke="white"/>
<circle cx="244.5" cy="144.711" r="7" fill="#98C447" stroke="white"/>
<circle cx="263.5" cy="194.711" r="7" fill="#98C447" stroke="white"/>
<circle cx="259.5" cy="244.711" r="7" fill="#98C447" stroke="white"/>
<path d="M186.241 109.703C187.27 111.086 187.212 111.771 185.957 113.027C185.707 113.278 185.466 113.545 185.186 113.759C184.539 114.256 183.762 114.395 183.14 113.887C182.571 113.424 182.114 113.492 181.628 113.83C181.361 114.015 181.076 114.315 181 114.613C180.761 115.558 180.148 116.151 179.18 116.194C178.663 116.217 178.142 116.218 177.624 116.192C176.664 116.145 176.002 115.535 175.842 114.585C175.706 113.782 174.587 113.322 173.908 113.791C173.818 113.853 173.727 113.912 173.63 113.961C172.614 114.474 171.728 114.085 170.406 112.549C169.78 111.821 169.661 110.87 170.283 110.16C170.848 109.518 170.304 109.094 170.113 108.638C170.024 108.429 169.57 108.267 169.279 108.262C167.449 108.229 165.619 108.245 163.789 108.244C163.598 108.244 163.407 108.245 163.216 108.24C162.695 108.227 162.28 108.042 162.259 107.459C162.236 106.831 162.657 106.592 163.214 106.587C164.715 106.574 166.215 106.582 167.845 106.582C167.845 106.027 167.832 105.521 167.849 105.015C167.885 103.896 168.456 103.254 169.557 103.068C170.206 102.959 170.707 101.792 170.332 101.266C169.651 100.31 169.706 99.471 170.516 98.6224C170.817 98.3062 171.123 97.9933 171.445 97.6984C172.195 97.012 173.076 96.9563 173.908 97.528C174.537 97.9589 175.673 97.492 175.812 96.7433C176.002 95.7244 176.625 95.1494 177.644 95.092C178.161 95.0625 178.684 95.0593 179.2 95.0986C180.003 95.1608 180.748 95.5524 180.833 96.3403C180.93 97.225 181.459 97.4379 182.098 97.6722C182.226 97.7197 182.348 97.7754 182.357 97.7803C183.027 97.4822 183.612 97.2233 184.285 96.9252C184.285 94.327 184.285 91.6141 184.285 88.8554C172.427 88.8554 160.609 88.8554 148.664 88.8554C148.664 89.1109 148.664 89.3698 148.664 89.6302C148.664 94.2451 148.654 98.8599 148.677 103.475C148.68 104.033 148.785 104.623 148.988 105.142C149.358 106.084 150.071 106.605 151.141 106.587C152.479 106.564 153.817 106.581 155.156 106.584C155.374 106.584 155.657 106.514 155.796 106.622C156.085 106.845 156.491 107.169 156.486 107.446C156.481 107.713 156.026 108.19 155.757 108.196C153.93 108.247 152.091 108.306 150.274 108.152C148.492 107.996 147.068 106.08 147.022 103.984C146.981 102.128 147.009 100.27 147.009 98.4143C147.009 92.5708 147.014 86.7273 147.006 80.8838C147.004 79.6371 147.317 78.5068 148.136 77.5501C148.865 76.6998 149.786 76.2166 150.923 76.2149C161.302 76.2133 171.68 76.2051 182.06 76.2215C184.285 76.2247 185.943 78.1365 185.989 80.7118C186.023 82.622 185.997 84.5354 185.997 86.4455C185.997 90.1315 185.984 93.8191 186.016 97.5051C186.02 97.9179 186.206 98.3914 186.455 98.7288C187.07 99.5643 187.127 100.333 186.511 101.207C186.118 101.764 186.618 102.957 187.293 103.072C188.351 103.25 188.934 103.899 188.968 104.957C188.985 105.449 188.985 105.94 188.967 106.432C188.936 107.215 188.547 107.783 187.835 108.094C186.7 108.588 186.693 108.574 186.241 109.703ZM184.324 87.0943C184.324 84.8352 184.386 82.676 184.305 80.5251C184.237 78.7165 183.22 77.8646 181.388 77.8646C171.474 77.8646 161.56 77.8646 151.645 77.8646C149.676 77.8646 148.683 78.8328 148.665 80.8085C148.649 82.7203 148.66 84.632 148.664 86.5438C148.664 86.724 148.703 86.9026 148.726 87.0959C160.598 87.0943 172.413 87.0943 184.324 87.0943ZM185.415 111.228C184.06 110.424 184.259 109.482 184.942 108.483C185.017 108.373 185.073 108.235 185.091 108.104C185.251 106.923 185.912 106.399 187.101 106.541C187.142 106.546 187.189 106.489 187.26 106.445C187.26 105.903 187.26 105.347 187.26 104.644C185.736 105.147 185.312 104.209 185.053 103.065C185.042 103.013 185.029 102.955 184.999 102.911C184.324 101.886 183.975 100.89 185.292 100.107C184.845 99.5938 184.465 99.1564 184.077 98.7125C183.861 98.8976 183.739 98.9713 183.657 99.0762C183.109 99.7757 182.514 99.8707 181.744 99.3678C181.298 99.0762 180.755 98.9091 180.232 98.7714C179.568 98.5962 179.233 98.2194 179.319 97.5411C179.408 96.858 179.097 96.6713 178.479 96.7384C178.166 96.7728 177.847 96.745 177.363 96.745C177.886 98.3996 176.851 98.7665 175.712 99.0467C175.686 99.0532 175.661 99.068 175.638 99.0827C174.616 99.7314 173.614 100.128 172.819 98.7452C172.331 99.2088 171.925 99.5955 171.425 100.069C172.889 100.926 172.278 101.892 171.833 103.014C171.394 104.122 171.064 105.075 169.495 104.676C169.495 105.198 169.511 105.598 169.49 105.998C169.469 106.409 169.62 106.633 170.05 106.579C170.992 106.461 171.486 106.884 171.623 107.808C171.662 108.07 171.764 108.353 171.921 108.563C172.647 109.538 172.618 110.398 171.615 111.158C171.585 111.181 171.597 111.26 171.623 111.079C172.042 111.654 172.377 112.111 172.793 112.681C173.645 111.227 174.619 111.531 175.629 112.203C175.651 112.218 175.678 112.231 175.704 112.236C176.918 112.477 177.842 112.963 177.454 114.503C178.127 114.503 178.682 114.503 179.354 114.503C178.977 112.965 179.898 112.477 181.113 112.236C181.19 112.221 181.271 112.18 181.334 112.131C182.298 111.404 183.168 111.443 183.933 112.432C183.956 112.462 184.034 112.449 184.151 112.464C184.513 112.111 184.898 111.735 185.415 111.228Z" fill="white"/>
<path d="M165.481 97.6951C164.843 96.9694 164.256 96.2944 163.657 95.631C163.265 95.1968 163.057 94.7316 163.566 94.2827C164.071 93.8371 164.517 94.0894 164.902 94.5284C165.567 95.2869 166.235 96.0421 166.91 96.7908C167.431 97.3675 167.474 97.9474 166.953 98.5404C166.25 99.3382 165.54 100.129 164.833 100.924C164.454 101.348 164.004 101.499 163.552 101.089C163.09 100.67 163.24 100.218 163.616 99.8002C164.215 99.1285 164.808 98.4536 165.481 97.6951Z" fill="white"/>
<path d="M153.521 97.6903C154.161 98.4094 154.754 99.0811 155.354 99.7462C155.744 100.18 155.941 100.662 155.439 101.101C154.94 101.538 154.489 101.286 154.104 100.845C153.441 100.087 152.767 99.3367 152.096 98.5847C151.58 98.0064 151.555 97.415 152.068 96.8302C152.767 96.0307 153.48 95.2411 154.189 94.4499C154.569 94.0256 155.018 93.8781 155.467 94.2992C155.882 94.6874 155.787 95.1379 155.439 95.536C154.828 96.2339 154.207 96.9203 153.521 97.6903Z" fill="white"/>
<path d="M157.798 101.273C157.978 100.518 158.111 99.9624 158.242 99.4087C158.652 97.6902 159.061 95.9733 159.473 94.2548C159.602 93.7142 159.905 93.3325 160.503 93.4701C161.103 93.6078 161.217 94.0943 161.089 94.63C160.568 96.8236 160.062 99.022 159.474 101.199C159.392 101.502 158.899 101.859 158.575 101.882C158.311 101.899 158.015 101.455 157.798 101.273Z" fill="white"/>
<path d="M159.258 108.36C159.04 108.049 158.647 107.734 158.655 107.43C158.662 107.148 159.128 106.635 159.34 106.66C159.666 106.699 160.128 107.072 160.193 107.377C160.252 107.649 159.851 108.019 159.653 108.345C159.522 108.35 159.389 108.355 159.258 108.36Z" fill="white"/>
<path d="M175.307 79.7714C176.48 79.7714 177.653 79.7534 178.825 79.7763C180.479 79.8074 181.675 80.9591 181.695 82.5056C181.713 84.0455 180.533 85.261 178.879 85.2889C176.48 85.3298 174.079 85.3282 171.68 85.2921C169.973 85.2659 168.784 84.0553 168.815 82.4777C168.845 80.9312 170.039 79.8025 171.708 79.7763C172.909 79.755 174.108 79.7714 175.307 79.7714ZM175.271 81.4342C174.126 81.4342 172.983 81.4276 171.838 81.4358C170.994 81.4424 170.488 81.8519 170.473 82.5105C170.458 83.1723 170.966 83.6244 171.795 83.6277C174.112 83.6392 176.428 83.6392 178.744 83.6261C179.546 83.6212 179.999 83.21 180.011 82.5514C180.024 81.8585 179.554 81.4456 178.703 81.4358C177.562 81.4243 176.417 81.4342 175.271 81.4342Z" fill="white"/>
<path d="M154.714 85.289C153.175 85.3054 151.94 84.1111 151.917 82.5859C151.894 81.0444 153.077 79.8108 154.605 79.7797C156.176 79.7469 157.454 80.9723 157.464 82.5188C157.474 84.0259 156.237 85.2726 154.714 85.289ZM154.715 81.4425C154.099 81.4261 153.606 81.8717 153.575 82.4746C153.542 83.1135 154.032 83.6213 154.682 83.6197C155.289 83.618 155.783 83.1413 155.791 82.5466C155.8 81.9552 155.318 81.4589 154.715 81.4425Z" fill="white"/>
<path d="M161.864 85.2905C160.329 85.2905 159.115 84.0864 159.107 82.5514C159.099 81.0066 160.287 79.7943 161.823 79.7763C163.389 79.7583 164.651 81.0017 164.636 82.5514C164.625 84.0733 163.394 85.2889 161.864 85.2905ZM162.957 82.5596C162.972 81.942 162.526 81.4653 161.912 81.4424C161.291 81.4194 160.806 81.8519 160.77 82.4613C160.732 83.1117 161.204 83.6163 161.854 83.6212C162.47 83.6261 162.942 83.1723 162.957 82.5596Z" fill="white"/>
<path d="M178.397 100.613C181.198 100.606 183.44 102.833 183.448 105.632C183.458 108.43 181.226 110.673 178.425 110.681C175.627 110.689 173.379 108.455 173.374 105.66C173.369 102.862 175.601 100.619 178.397 100.613ZM181.785 105.632C181.778 103.75 180.279 102.259 178.397 102.266C176.526 102.272 175.026 103.786 175.031 105.66C175.036 107.541 176.536 109.023 178.425 109.017C180.317 109.012 181.79 107.528 181.785 105.632Z" fill="white"/>
</svg>
