<svg width="101" height="100" viewBox="0 0 101 100" fill="none" xmlns="http://www.w3.org/2000/svg">
<path d="M90.8335 58.8196C91.9807 58.3 92.9741 57.8365 93.9821 57.4001C95.0773 56.9263 95.8318 57.1507 96.449 58.1836C97.6212 60.1434 98.7746 62.1136 99.9073 64.0984C100.443 65.0378 100.281 65.8068 99.421 66.4718C98.2966 67.3384 97.1598 68.1885 95.9939 68.9969C95.4868 69.3481 95.3745 69.7326 95.4847 70.3104C95.9627 72.8542 95.9191 75.4001 95.5138 77.9564C95.4556 78.3284 95.6884 78.902 95.9814 79.1472C97.0704 80.0534 98.253 80.8452 99.3815 81.7077C100.373 82.4663 100.489 83.123 99.8574 84.212C98.7621 86.097 97.6648 87.9799 96.555 89.8566C95.8172 91.1015 95.1189 91.3135 93.7826 90.717C92.519 90.1538 91.2762 89.5428 89.9939 89.0295C89.6967 88.911 89.1729 88.9775 88.9256 89.175C86.8494 90.8293 84.5882 92.1282 82.1089 93.0842C81.768 93.2151 81.4168 93.7202 81.3524 94.1005C81.1258 95.4285 81.0261 96.7794 80.8702 98.1199C80.7123 99.4791 80.1449 99.9904 78.7628 99.9945C76.6492 100.003 74.5377 100.001 72.4241 99.9945C70.9277 99.9904 70.4372 99.5539 70.2626 98.0887C70.1068 96.7836 69.9405 95.4784 69.8075 94.1691C69.7452 93.5601 69.5394 93.2193 68.8785 93.0198C66.395 92.2716 64.167 91.0246 62.2675 89.2436C61.8477 88.8487 61.5297 88.7884 61.0081 89.0461C59.7382 89.6738 58.4351 90.239 57.1362 90.8023C56.0368 91.2803 55.2865 91.0537 54.6672 90.025C53.493 88.0672 52.3375 86.097 51.2027 84.1143C50.6728 83.1895 50.8473 82.3811 51.6932 81.7347C52.8466 80.8514 54.0541 80.0347 55.1805 79.1182C55.4487 78.8999 55.6523 78.3721 55.6004 78.0291C55.2013 75.4043 55.2013 72.7939 55.6024 70.1691C55.6544 69.8303 55.4362 69.3107 55.1681 69.0884C54.0998 68.2113 52.9568 67.4237 51.8491 66.5923C50.7247 65.7465 50.5959 65.1355 51.2879 63.9467C52.3666 62.0929 53.4473 60.239 54.5363 58.3914C55.2845 57.1216 55.9391 56.9075 57.2942 57.4666C58.5411 57.9799 59.7694 58.5432 61.0372 59.0004C61.3759 59.123 61.9391 59.0752 62.2072 58.8632C64.2938 57.2255 66.5363 55.8954 69.0344 54.981C69.3524 54.8646 69.687 54.3928 69.7452 54.0416C69.98 52.6429 70.1026 51.2276 70.2772 49.8185C70.431 48.5716 71.0004 48.0457 72.2599 48.0374C74.4421 48.0229 76.6243 48.025 78.8065 48.0374C80.1075 48.0457 80.706 48.5861 80.8619 49.8767C81.0282 51.2505 81.1529 52.6304 81.3399 54.0021C81.3815 54.3035 81.5332 54.7337 81.7618 54.8417C83.705 55.7749 85.6752 56.6457 87.6371 57.5352C87.6371 46.0506 87.6371 34.4392 87.6371 22.7634C59.5034 22.7634 31.4299 22.7634 3.22971 22.7634C3.21308 23.1167 3.17983 23.4784 3.17983 23.8421C3.17775 42.2681 3.17775 60.6921 3.17983 79.1182C3.17983 81.5581 4.37692 82.7655 6.79604 82.7655C19.299 82.7676 31.8019 82.7655 44.3049 82.7697C44.7538 82.7697 45.211 82.7676 45.6475 82.8549C46.4892 83.0253 46.857 83.6072 46.8196 84.4427C46.7822 85.2886 46.3395 85.7936 45.4833 85.883C45.1404 85.9183 44.7912 85.9121 44.4462 85.9121C31.9786 85.9141 19.5089 85.8352 7.04128 85.9557C2.68312 85.989 -0.0144894 82.8009 5.85467e-05 78.8895C0.0852681 54.9249 0.0416242 30.9581 0.0437025 6.99134C0.0437025 2.52096 2.57921 0 7.07661 0C32.6707 0 58.2647 0 83.8588 0C88.2647 0 90.8293 2.55837 90.8314 6.96225C90.8335 23.7943 90.8314 40.6263 90.8314 57.4583C90.8335 57.8615 90.8335 58.2647 90.8335 58.8196ZM87.6537 19.5192C87.6703 19.141 87.6932 18.8708 87.6932 18.5986C87.6953 14.6519 87.7015 10.7052 87.6911 6.75858C87.6849 4.36232 86.4359 3.13613 84.0167 3.13613C58.2938 3.13405 32.5688 3.13405 6.84592 3.13613C4.42472 3.13613 3.17775 4.36232 3.17567 6.75442C3.16944 10.6657 3.1736 14.5792 3.1736 18.4905C3.1736 18.823 3.1736 19.1535 3.1736 19.5192C31.3925 19.5192 59.4639 19.5192 87.6537 19.5192ZM96.5883 83.5719C95.2976 82.6263 94.1484 81.7326 92.9471 80.92C91.9765 80.2633 91.7126 79.4922 92.0306 78.345C92.785 75.6266 92.7808 72.8729 92.1116 70.1296C91.7105 68.4857 91.829 68.1303 93.1778 67.1389C94.3084 66.3055 95.441 65.4742 96.5903 64.6263C95.8255 63.319 95.1314 62.1344 94.4061 60.8937C92.97 61.5068 91.5962 62.0575 90.2536 62.6789C89.308 63.1154 88.5141 62.9761 87.7888 62.2654C85.5879 60.1123 82.9921 58.645 80.0264 57.8511C78.9852 57.5726 78.4677 56.974 78.3721 55.885C78.2391 54.3804 78.0022 52.884 77.813 51.423C76.2273 51.423 74.7601 51.423 73.2741 51.423C73.0933 52.9131 72.9249 54.3201 72.7545 55.7271C72.5841 57.1299 72.2516 57.5393 70.9173 57.8719C68.0223 58.591 65.5262 60.0146 63.448 62.1427C62.6852 62.9242 61.9412 63.0821 60.9499 62.5833C59.6322 61.9204 58.2585 61.3655 56.8556 60.742C56.0513 62.0825 55.2969 63.3419 54.5217 64.6367C55.7936 65.5677 56.9679 66.4219 58.1359 67.2823C59.333 68.1635 59.4369 68.469 59.0545 69.9259C58.325 72.6963 58.3188 75.4666 59.0441 78.237C59.4036 79.6107 59.2187 80.1324 58.061 80.9845C56.8951 81.8428 55.7251 82.6949 54.5197 83.5781C55.326 84.9186 56.0867 86.1822 56.864 87.4729C58.3 86.8307 59.6738 86.2633 61.006 85.6066C61.9599 85.1369 62.6852 85.2886 63.4168 86.043C65.5096 88.2003 68.0243 89.6634 70.9277 90.4677C72.3201 90.8521 72.5966 91.2366 72.7691 92.733C72.9312 94.1338 73.112 95.5345 73.2907 96.9789C74.812 96.9789 76.2543 96.9789 77.8068 96.9789C77.9959 95.5885 78.2433 94.1961 78.3617 92.7953C78.4615 91.592 79.006 90.9228 80.1823 90.609C83.0503 89.8442 85.5526 88.3935 87.6225 86.2654C88.4185 85.4486 89.1688 85.2761 90.2017 85.7998C91.511 86.4649 92.8848 87.0052 94.2689 87.6142C95.067 86.2176 95.8027 84.9373 96.5883 83.5719Z" fill="#98C447"/>
<path d="M29.3372 41.3412C27.0636 43.6689 24.5156 44.1323 21.6164 42.6214C20.1845 44.2404 18.7421 45.8261 17.3746 47.4742C17.1813 47.707 17.2375 48.2972 17.3809 48.636C18.7567 51.901 17.1107 55.5109 13.7335 56.5563C11.4827 57.2525 9.0137 56.4378 7.52565 54.5113C6.05422 52.6055 5.90666 50.1282 7.14532 48.0894C8.4006 46.0215 10.8093 44.8847 13.0809 45.3315C13.5444 45.4229 13.9746 45.6723 14.5482 45.8968C16.0466 44.2092 17.6136 42.4655 19.1412 40.6886C19.2846 40.5224 19.2617 40.1192 19.1807 39.8698C18.4013 37.4881 18.9001 35.4035 20.6957 33.6952C22.402 32.07 24.4657 31.619 26.6542 32.496C28.9735 33.425 30.2392 35.2186 30.4159 37.7562C30.4408 38.1115 30.6278 38.5958 30.898 38.7683C33.0885 40.1566 35.3185 41.4846 37.5755 42.8542C39.6351 41.0461 41.9025 40.6263 44.4962 41.9294C46.0383 40.1316 47.5845 38.3277 49.1578 36.4967C47.9399 34.7946 47.4183 32.9844 48.0605 30.9789C48.9604 28.1628 51.9386 26.4378 54.7837 27.0551C57.685 27.6848 59.6407 30.4801 59.2894 33.4915C58.9652 36.2681 56.33 38.735 53.5534 38.4046C52.0466 38.2258 51.3774 38.8431 50.6001 39.795C49.5485 41.0814 48.445 42.3263 47.3393 43.567C47.0047 43.9411 46.9174 44.2238 47.1356 44.7413C48.0875 46.9817 47.5409 49.3301 45.7681 50.9948C44.0452 52.6138 41.6032 53.0357 39.5063 52.0776C37.3033 51.0717 35.8402 48.7856 36.0729 46.4039C36.1519 45.6017 35.8443 45.3128 35.279 44.974C33.3171 43.7998 31.3781 42.5923 29.3372 41.3412ZM12.1124 53.6446C13.5256 53.6384 14.7601 52.4081 14.7601 51.0011C14.7601 49.5587 13.5693 48.3887 12.1062 48.397C10.6805 48.4032 9.43974 49.6273 9.44182 51.0239C9.4439 52.4226 10.695 53.6488 12.1124 53.6446ZM41.7924 44.1531C40.348 44.1656 39.1509 45.3835 39.1779 46.8133C39.2028 48.2078 40.481 49.4631 41.8589 49.4465C43.243 49.4299 44.5108 48.1393 44.4879 46.7655C44.465 45.3751 43.1911 44.1406 41.7924 44.1531ZM24.7525 40.3436C26.1741 40.3561 27.4294 39.132 27.4356 37.7291C27.4418 36.3325 26.1866 35.0918 24.7712 35.096C23.4224 35.1001 22.1381 36.4053 22.1256 37.7832C22.1131 39.105 23.3726 40.3312 24.7525 40.3436ZM56.3611 32.5999C56.3861 31.1909 55.1848 29.9501 53.7654 29.919C52.2981 29.8878 51.1218 31.0225 51.0968 32.4898C51.074 33.9321 52.2399 35.1521 53.6698 35.1791C55.0892 35.2061 56.3362 34.0111 56.3611 32.5999Z" fill="#98C447"/>
<path d="M10.8448 72.3097C10.8448 69.61 10.7991 67.0517 10.8801 64.4954C10.8988 63.9218 11.2043 63.1549 11.6408 62.839C12.6695 62.0929 13.9497 62.9221 13.9685 64.2792C13.9976 66.53 13.9768 68.7808 13.9788 71.0336C13.9788 71.4098 13.9788 71.7881 13.9788 72.237C17.4205 72.237 20.7935 72.237 24.3225 72.237C24.3225 71.8421 24.3225 71.441 24.3225 71.0399C24.3225 65.1168 24.3225 59.1937 24.3225 53.2726C24.3225 52.9256 24.3079 52.5785 24.3432 52.2356C24.4326 51.3835 24.9293 50.9408 25.7793 50.8951C26.6231 50.8494 27.1884 51.2318 27.3879 52.0506C27.4773 52.4122 27.4544 52.8071 27.4544 53.1874C27.4586 59.1438 27.4565 65.1022 27.4565 71.0586C27.4565 71.4348 27.4565 71.8088 27.4565 72.2474C31.8458 72.2474 36.152 72.2474 40.5726 72.2474C40.5726 71.8442 40.5726 71.4742 40.5726 71.1043C40.5726 66.6713 40.5788 62.2384 40.5684 57.8054C40.5663 56.9782 40.743 56.2716 41.6013 55.9661C42.7319 55.5629 43.6941 56.3173 43.7004 57.6308C43.7149 62.0991 43.7066 66.5674 43.7066 71.0336C43.7066 71.4098 43.7066 71.786 43.7066 72.3118C45.3526 72.3118 46.93 72.3118 48.5095 72.3118C49.0644 72.3118 49.6214 72.2827 50.1701 72.3326C51.0242 72.4095 51.4856 72.954 51.5293 73.7728C51.5771 74.6395 51.1448 75.2255 50.2636 75.4105C50.0641 75.4521 49.85 75.4417 49.6422 75.4417C35.8923 75.4438 22.1423 75.4396 8.39242 75.4479C7.46759 75.4479 6.72979 75.2089 6.50742 74.2093C6.27881 73.1826 6.93139 72.3804 8.02041 72.318C8.46932 72.2931 8.9203 72.3118 9.37129 72.3097C9.81189 72.3097 10.2566 72.3097 10.8448 72.3097Z" fill="#98C447"/>
<path d="M57.003 47.6633C57.003 49.0475 57.0176 50.4316 56.9968 51.8157C56.9802 52.911 56.4274 53.5054 55.4714 53.5178C54.507 53.5324 53.8919 52.9401 53.8815 51.8698C53.8565 49.0329 53.8586 46.194 53.8794 43.3571C53.8877 42.3242 54.5382 41.6467 55.4339 41.6259C56.3983 41.6051 56.9864 42.2556 56.9989 43.407C57.0155 44.8265 57.003 46.2439 57.003 47.6633Z" fill="#98C447"/>
<path d="M68.7227 9.72221C71.6302 9.72221 74.5377 9.71597 77.4452 9.72429C78.7192 9.72844 79.3635 10.2376 79.3946 11.2248C79.4279 12.2619 78.7462 12.8542 77.4473 12.8563C71.5969 12.8646 65.7486 12.8583 59.8983 12.8625C59.042 12.8625 58.2876 12.69 58.0278 11.7402C57.7098 10.5785 58.3894 9.73883 59.6884 9.73052C62.6998 9.70974 65.7112 9.72429 68.7227 9.72221Z" fill="#98C447"/>
<path d="M27.2958 6.60269C29.9414 6.611 31.9594 8.60615 31.9864 11.2435C32.0135 13.885 29.9144 15.9903 27.2625 15.982C24.6002 15.9737 22.549 13.8788 22.5885 11.2082C22.63 8.55212 24.6293 6.59437 27.2958 6.60269ZM28.8316 11.3121C28.8524 10.3831 28.2248 9.74713 27.2895 9.74297C26.3688 9.73882 25.789 10.2833 25.7516 11.1895C25.7121 12.1288 26.3127 12.8043 27.2209 12.8375C28.1208 12.8729 28.8129 12.2182 28.8316 11.3121Z" fill="#98C447"/>
<path d="M40.5868 6.6027C43.1846 6.61101 45.2837 8.69969 45.2878 11.283C45.292 13.8892 43.2262 15.9633 40.6096 15.982C37.9432 16.0007 35.867 13.9141 35.8898 11.2373C35.9106 8.57707 37.9224 6.59231 40.5868 6.6027ZM42.1288 11.2414C42.1226 10.3249 41.4763 9.71805 40.5306 9.74299C39.6204 9.76585 39.0654 10.3291 39.0509 11.2414C39.0364 12.1725 39.6744 12.8438 40.566 12.8376C41.4201 12.8313 42.133 12.1039 42.1288 11.2414Z" fill="#98C447"/>
<path d="M14.0947 6.60063C16.7217 6.59023 18.7875 8.62072 18.8103 11.2373C18.8353 13.9307 16.7819 16.0007 14.1009 15.982C11.4844 15.9633 9.42689 13.8954 9.42481 11.2809C9.42065 8.64773 11.4532 6.61102 14.0947 6.60063ZM14.0989 12.8396C14.9655 12.8438 15.6597 12.1434 15.6617 11.2601C15.6659 10.3166 15.057 9.72844 14.0968 9.74299C13.2156 9.75754 12.6004 10.3561 12.5734 11.2269C12.5464 12.1268 13.2156 12.8334 14.0989 12.8396Z" fill="#98C447"/>
<path d="M75.7056 63.3835C81.5476 63.4146 86.4358 68.3713 86.442 74.2633C86.4462 80.1074 81.4874 85.008 75.5871 84.9851C69.6287 84.9623 64.805 80.0575 64.8549 74.0679C64.9027 68.1406 69.7659 63.3523 75.7056 63.3835ZM67.9868 74.0637C68.0014 78.2889 71.4368 81.691 75.6723 81.6765C79.8788 81.6619 83.335 78.1767 83.2996 73.9848C83.2622 69.7721 79.7811 66.3242 75.5934 66.3554C71.3786 66.3824 67.9744 69.8344 67.9868 74.0637Z" fill="#98C447"/>
</svg>
