<svg width="70" height="70" viewBox="0 0 70 70" fill="none" xmlns="http://www.w3.org/2000/svg">
<path d="M29.3399 0C37.8586 0 46.3773 0 54.896 0C57.3448 0 58.6865 1.35076 58.6876 3.81193C58.6888 13.0111 58.6843 22.2092 58.7023 31.4083C58.7034 31.792 58.8366 32.2219 59.0375 32.5515C62.4871 38.2062 63.0254 44.1068 60.5609 50.2615C60.3893 50.6891 60.4006 50.9543 60.7527 51.2804C61.5381 52.0083 62.2716 52.7937 63.0367 53.5441C63.7589 54.2528 64.0015 55.0732 63.742 56.0651C63.6935 56.2536 63.8153 56.5639 63.9632 56.7151C65.4753 58.2611 67.0303 59.7653 68.5312 61.3226C70.2318 63.0864 70.4484 65.7348 69.1112 67.7096C67.3169 70.3593 63.6675 70.7903 61.3429 68.5808C59.789 67.1048 58.2961 65.5645 56.7896 64.0399C56.5142 63.7612 56.2885 63.6393 55.8699 63.7758C55.001 64.058 54.2449 63.7612 53.6118 63.1304C52.8118 62.3348 52.0049 61.546 51.224 60.7313C50.9532 60.448 50.7331 60.3848 50.3506 60.5417C41.938 64.0061 32.7918 61.5009 27.4249 54.1986C26.5221 52.9697 25.8823 51.54 25.177 50.1746C24.9829 49.7977 24.8035 49.6645 24.3848 49.6656C17.5024 49.6792 10.6199 49.6758 3.73745 49.6747C1.3722 49.6747 0.00225691 48.2968 0.00225691 45.9192C0 31.8676 0 17.8161 0 3.7634C0.00112846 1.35753 1.36543 0.00112846 3.78371 0C12.3024 0 20.8212 0 29.3399 0ZM56.3912 9.08407C38.3337 9.08407 20.3122 9.08407 2.26143 9.08407C2.26143 9.28156 2.26143 9.43164 2.26143 9.5806C2.26143 21.716 2.26143 33.8514 2.26256 45.9869C2.26256 47.0205 2.65864 47.4121 3.70134 47.4121C10.3592 47.4132 17.0183 47.4132 23.6761 47.4121C23.8556 47.4121 24.0339 47.394 24.2415 47.3828C24.2133 47.2383 24.1986 47.1469 24.1783 47.0578C23.6603 44.7772 23.5136 42.4706 23.8939 40.1629C24.9863 33.5197 28.5308 28.6526 34.568 25.6385C34.884 25.4805 34.9957 25.2977 34.9923 24.949C34.9765 23.086 34.9799 21.224 34.9878 19.3609C34.9912 18.4999 35.4155 18.07 36.2675 18.0655C37.6589 18.0564 39.0514 18.0587 40.4428 18.0643C41.332 18.0688 41.754 18.492 41.7585 19.3835C41.7653 20.6248 41.7608 21.8672 41.7608 23.1085C41.7608 23.306 41.7608 23.5035 41.7608 23.6874C42.5597 23.6874 43.2639 23.6874 44.0132 23.6874C44.0132 23.4245 44.0132 23.2022 44.0132 22.9799C44.0132 19.5934 44.0132 16.2069 44.0132 12.8204C44.0132 11.6558 44.3709 11.2913 45.5152 11.2902C46.7757 11.2891 48.035 11.2891 49.2955 11.2902C50.4138 11.2913 50.7884 11.6615 50.7884 12.7741C50.7896 16.8196 50.793 20.864 50.7817 24.9095C50.7805 25.274 50.8731 25.4794 51.2218 25.6442C52.9867 26.477 54.5733 27.5772 56.003 28.9054C56.1069 29.0013 56.2242 29.0837 56.3935 29.218C56.3912 22.4698 56.3912 15.8018 56.3912 9.08407ZM56.4262 6.75494C56.4262 5.76077 56.4262 4.82415 56.4262 3.88753C56.4262 2.58078 56.1057 2.26256 54.7911 2.26256C37.827 2.26256 20.8618 2.26256 3.89769 2.26256C3.69118 2.26256 3.48129 2.24789 3.27817 2.27497C2.75795 2.34493 2.33703 2.64736 2.31108 3.15516C2.25014 4.34681 2.2919 5.54298 2.2919 6.75494C20.3461 6.75494 38.3404 6.75494 56.4262 6.75494ZM42.8971 25.9692C33.5998 25.959 25.9827 33.5298 25.9613 42.8001C25.9398 52.2182 33.5264 59.8319 42.9321 59.8308C52.2069 59.8296 59.7958 52.234 59.8082 42.9378C59.8217 33.5772 52.2487 25.9793 42.8971 25.9692ZM58.1291 62.1328C59.7574 63.7736 61.3632 65.4335 63.0198 67.0427C63.6743 67.678 64.5285 67.8699 65.4324 67.6622C67.6329 67.1567 68.4747 64.585 66.9299 62.9419C65.4121 61.3282 63.8074 59.7947 62.2389 58.2284C62.1904 58.1798 62.1159 58.1561 62.1125 58.1539C60.7719 59.4934 59.4618 60.8024 58.1291 62.1328ZM59.1537 53.0273C57.5637 55.5438 55.5031 57.5964 53.0397 59.1582C53.8409 59.9436 54.6196 60.7087 55.2932 61.3689C57.3166 59.3579 59.3895 57.2985 61.4174 55.2831C60.7064 54.5755 59.9526 53.8229 59.1537 53.0273ZM46.3649 13.5719C46.3175 13.6374 46.2983 13.6521 46.2983 13.6679C46.2893 17.0126 46.2803 20.3574 46.2836 23.7021C46.2836 23.8206 46.3875 24.0203 46.4789 24.044C47.139 24.2178 47.8093 24.3555 48.4841 24.5067C48.4841 20.8257 48.4841 17.209 48.4841 13.5719C47.7506 13.5719 47.0589 13.5719 46.3649 13.5719ZM37.2819 20.3427C37.2819 21.7578 37.2819 23.1153 37.2819 24.5123C37.9432 24.3668 38.5684 24.2505 39.1778 24.0779C39.3132 24.0395 39.4644 23.8104 39.4836 23.6536C39.5287 23.2834 39.4982 22.9043 39.4982 22.5285C39.4982 21.8052 39.4982 21.0818 39.4982 20.3427C38.7173 20.3427 38.0267 20.3427 37.2819 20.3427Z" fill="#98C447"/>
<path d="M15.8039 24.8362C16.0702 24.8362 16.271 24.8362 16.473 24.8362C18.7852 24.8362 21.0986 24.8351 23.4108 24.8373C24.4422 24.8385 24.8428 25.2504 24.8259 26.2795C24.7435 31.1307 20.9338 35.3839 16.1018 36.0181C9.65151 36.8644 4.19203 31.8146 4.53057 25.3147C4.79914 20.1565 9.26896 15.8639 14.4238 15.8108C15.3762 15.8007 15.8005 16.2148 15.8027 17.1763C15.8061 19.695 15.8039 22.2148 15.8039 24.8362ZM13.5424 18.2314C11.5405 18.2788 8.35153 20.047 7.18696 23.411C6.18489 26.3043 7.26369 29.631 8.49935 30.6455C8.5806 30.5304 8.65282 30.3916 8.7589 30.2855C10.2823 28.7542 11.8159 27.2342 13.3269 25.6916C13.4713 25.5438 13.5323 25.2594 13.5334 25.0371C13.5492 23.0273 13.5424 21.0175 13.5424 19.0077C13.5424 18.7493 13.5424 18.4909 13.5424 18.2314ZM9.99456 32.231C11.843 33.9711 15.3942 34.3638 17.9908 33.1213C20.4994 31.9207 21.9664 29.9143 22.4775 27.1766C22.3466 27.1371 22.2936 27.1067 22.2417 27.1067C19.9679 27.1022 17.6929 27.0976 15.419 27.1078C15.269 27.1089 15.0805 27.1811 14.9744 27.2861C13.3156 28.919 11.6681 30.5654 9.99456 32.231Z" fill="#98C447"/>
<path d="M12.3553 45.1608C10.2135 45.1608 8.07059 45.1631 5.92878 45.1597C4.92107 45.1586 4.51821 44.7614 4.51595 43.7695C4.51257 42.4164 4.51031 41.0623 4.51708 39.7093C4.52159 38.8133 4.93799 38.3867 5.82496 38.3856C10.2226 38.3811 14.619 38.3811 19.0166 38.3856C19.8957 38.3867 20.3143 38.82 20.3177 39.7172C20.3234 41.0702 20.3222 42.4243 20.3177 43.7774C20.3143 44.7456 19.9081 45.1586 18.9523 45.1597C16.7518 45.1631 14.5536 45.1608 12.3553 45.1608ZM18.0236 42.8667C18.0236 42.114 18.0236 41.4099 18.0236 40.6843C14.2681 40.6843 10.5453 40.6843 6.80785 40.6843C6.80785 41.4279 6.80785 42.1321 6.80785 42.8667C10.5498 42.8667 14.259 42.8667 18.0236 42.8667Z" fill="#98C447"/>
<path d="M23.6885 22.5827C22.2599 22.5827 20.8301 22.5872 19.4015 22.5816C18.4762 22.5782 18.0598 22.1618 18.0586 21.233C18.0541 18.3735 18.0553 15.514 18.0586 12.6556C18.0598 11.6965 18.4818 11.288 19.4421 11.2947C24.2606 11.3286 28.6029 15.1755 29.227 19.968C29.2857 20.4149 29.3319 20.8652 29.3376 21.3154C29.3477 22.129 28.9042 22.5759 28.0884 22.5816C26.6214 22.5895 25.1544 22.5816 23.6885 22.5827ZM20.3629 13.6972C20.3629 15.9191 20.3629 18.1016 20.3629 20.2863C22.5792 20.2863 24.7493 20.2863 26.9227 20.2863C26.7218 17.2586 23.7957 14.0267 20.3629 13.6972Z" fill="#98C447"/>
<path d="M28.2159 42.8373C28.1899 34.8197 34.8061 28.2362 42.905 28.2227C50.9272 28.2103 57.5388 34.796 57.5569 42.8193C57.5761 50.9013 51.0446 57.5502 43.0641 57.5727C34.7925 57.5976 28.2419 51.0976 28.2159 42.8373ZM34.9539 33.4508C34.8388 33.5039 34.8004 33.514 34.7722 33.5366C30.9535 36.7696 29.438 42.2291 31.2277 47.0657C31.2864 47.2259 31.5776 47.3986 31.7604 47.3997C39.1687 47.4166 46.5781 47.411 53.9865 47.4223C54.334 47.4223 54.4773 47.2959 54.5913 46.9889C56.2535 42.4943 54.8994 37.0179 51.3177 33.804C51.1766 33.6777 51.0186 33.5705 50.8313 33.426C50.8313 35.1334 50.8313 36.7414 50.8313 38.3833C51.1743 38.3833 51.4734 38.3788 51.7724 38.3845C52.5939 38.4003 53.034 38.8234 53.0397 39.637C53.0498 41.0668 53.051 42.4965 53.0386 43.9263C53.0318 44.7095 52.5894 45.1563 51.8074 45.1574C45.865 45.1631 39.9236 45.1631 33.9812 45.1574C33.1664 45.1563 32.7342 44.7128 32.7286 43.8913C32.7196 42.4808 32.7196 41.0702 32.7286 39.6585C32.7342 38.811 33.1676 38.3969 34.0308 38.3845C34.34 38.3799 34.6492 38.3833 34.9528 38.3833C34.9539 36.6906 34.9539 35.1006 34.9539 33.4508ZM32.6338 49.7085C34.243 52.6865 38.7162 55.7074 43.8112 55.2786C47.6637 54.9547 52.7034 51.8932 53.0905 49.7085C46.2791 49.7085 39.4655 49.7085 32.6338 49.7085ZM50.7647 40.6899C45.479 40.6899 40.2509 40.6899 35.0273 40.6899C35.0273 41.4403 35.0273 42.1445 35.0273 42.852C40.2938 42.852 45.5208 42.852 50.7647 42.852C50.7647 42.1163 50.7647 41.4256 50.7647 40.6899ZM44.012 38.3506C44.012 38.1181 44.012 37.9161 44.012 37.7153C44.012 35.8364 44.012 33.9575 44.012 32.0798C44.012 30.4097 44.012 30.4232 42.3103 30.4875C41.8646 30.5044 41.7472 30.6602 41.7506 31.0901C41.7698 33.3628 41.7585 35.6367 41.7619 37.9094C41.7619 38.0527 41.7878 38.1971 41.8025 38.3517C42.5428 38.3506 43.2469 38.3506 44.012 38.3506ZM39.4711 38.3641C39.4711 35.8973 39.4711 33.4847 39.4711 30.9468C38.8392 31.1928 38.2738 31.4219 37.7006 31.6318C37.353 31.7582 37.2311 31.9681 37.2357 32.3495C37.2571 34.1889 37.2447 36.0271 37.2469 37.8665C37.2469 38.0279 37.2706 38.1881 37.2842 38.3641C38.0244 38.3641 38.7151 38.3641 39.4711 38.3641ZM46.3175 30.9412C46.3175 33.4937 46.3175 35.9188 46.3175 38.3461C47.0656 38.3461 47.7687 38.3461 48.5236 38.3461C48.5236 36.2325 48.527 34.1539 48.5157 32.0753C48.5157 31.9703 48.4187 31.8101 48.3261 31.7694C47.6818 31.4873 47.0261 31.23 46.3175 30.9412Z" fill="#98C447"/>
</svg>
