<svg width="101" height="100" viewBox="0 0 101 100" fill="none" xmlns="http://www.w3.org/2000/svg">
<path d="M38.4184 79.6273C37.8943 79.6273 37.4957 79.6273 37.0991 79.6273C30.4581 79.6273 23.8151 79.6414 17.1741 79.6212C13.4347 79.609 10.7192 77.5957 9.92196 74.259C9.75198 73.5467 9.72163 72.79 9.72163 72.0534C9.70949 63.2878 9.71354 54.5221 9.71354 45.7565C9.71354 45.5197 9.71354 45.285 9.72366 45.0483C9.76413 44.1701 10.2396 43.6258 11.0976 43.6055C11.9636 43.5853 12.4493 44.1316 12.5363 44.9916C12.5707 45.3255 12.5545 45.6654 12.5545 46.0013C12.5545 52.1365 12.5545 58.2736 12.5545 64.4088C12.5545 64.8054 12.5545 65.202 12.5545 65.718C13.0705 65.718 13.465 65.718 13.8616 65.718C23.639 65.718 33.4164 65.718 43.1938 65.718C43.4973 65.718 43.8008 65.7099 44.1044 65.722C45.0898 65.7625 45.6462 66.242 45.6746 67.0656C45.7049 67.9256 45.1222 68.4901 44.1185 68.5549C43.817 68.5751 43.5115 68.5609 43.208 68.5609C33.4306 68.5609 23.6532 68.5609 13.8758 68.5609C13.4792 68.5609 13.0806 68.5609 12.6516 68.5609C12.6516 70.3031 12.516 71.9543 12.6901 73.573C12.8661 75.2019 14.4484 76.5212 16.0915 76.7135C16.6257 76.7762 17.168 76.7782 17.7062 76.7802C27.518 76.7843 37.3278 76.7823 47.1396 76.7823C47.4431 76.7823 47.7486 76.7681 48.0501 76.7924C48.991 76.8652 49.5677 77.4237 49.5192 78.2452C49.4665 79.1376 48.9263 79.5929 48.0683 79.607C46.2148 79.6374 44.3593 79.6232 42.5058 79.6273C42.1416 79.6273 41.7774 79.6273 41.5649 79.6273C40.9255 83.2493 40.3083 86.7458 39.6851 90.2747C46.4334 90.2747 53.3617 90.2747 60.4014 90.2747C60.1565 89.4552 59.9258 88.6964 59.7073 87.9356C59.2986 86.5131 59.5232 85.7887 60.458 85.4892C61.3665 85.1979 62.0201 85.7543 62.4167 87.1202C62.6231 87.8304 62.9104 88.5184 63.0905 89.2347C63.305 90.0906 63.7603 90.4305 64.6668 90.3597C65.7049 90.2788 66.755 90.3213 67.8012 90.3456C70.7918 90.4144 72.9428 92.4844 72.8922 95.2282C72.8416 97.9801 70.6603 99.9732 67.6717 99.9732C55.7696 99.9772 43.8696 99.9813 31.9676 99.9712C29.1793 99.9692 27.0506 97.9497 26.9899 95.3132C26.9272 92.624 28.8798 90.5337 31.6702 90.3678C32.8134 90.301 33.9688 90.2727 35.106 90.3658C36.0611 90.4427 36.4597 90.0825 36.7511 89.1982C37.7608 86.1347 38.3516 83.0166 38.4184 79.6273ZM49.8591 97.1343C55.6583 97.1343 61.4596 97.1343 67.2589 97.1343C69.0537 97.1343 70.0088 96.4726 70.0432 95.2059C70.0796 93.8967 69.1002 93.1845 67.2467 93.1845C55.715 93.1825 44.1813 93.1825 32.6495 93.1865C32.2125 93.1865 31.7653 93.1865 31.3424 93.2776C30.452 93.4698 29.9401 94.0748 29.847 94.9671C29.7539 95.8635 30.1465 96.5697 30.9802 96.9157C31.397 97.0877 31.8968 97.1242 32.3581 97.1242C38.1918 97.1383 44.0254 97.1343 49.8591 97.1343Z" fill="#98C447"/>
<path d="M75.9777 81.2986C73.072 83.1177 70.0449 84.0869 66.7426 84.2832C57.718 84.8174 49.2457 78.057 47.8293 69.1355C46.1943 58.8442 52.7584 49.6233 62.9992 47.8285C73.0154 46.0721 82.9101 53.5083 84.0938 63.6398C84.5815 67.8061 83.7883 71.6811 81.6677 75.2828C81.354 75.815 81.3217 76.1711 81.8316 76.5576C82.125 76.7802 82.3759 77.0615 82.6207 77.3387C83.2784 78.0813 83.9603 78.5831 85.0853 78.5953C85.7935 78.6033 86.6353 79.1173 87.1776 79.6495C91.0809 83.4698 94.9376 87.3366 98.7781 91.2197C100.332 92.7899 100.3 94.8558 98.772 96.4584C97.9809 97.288 97.1735 98.1015 96.3398 98.8886C94.7777 100.364 92.7138 100.384 91.18 98.8684C87.2727 95.0056 83.3735 91.1326 79.5451 87.1889C78.9623 86.5879 78.594 85.6227 78.4767 84.7769C78.3755 84.0444 78.155 83.5406 77.6491 83.059C77.0684 82.5026 76.5382 81.8915 75.9777 81.2986ZM65.9069 81.4767C74.448 81.4585 81.4208 74.4775 81.4148 65.9486C81.4087 57.4197 74.4136 50.4306 65.8907 50.4387C57.3416 50.4468 50.397 57.4116 50.4072 65.9668C50.4153 74.5301 57.376 81.4949 65.9069 81.4767ZM97.0278 93.6478C96.9408 93.5224 96.8052 93.2532 96.6029 93.0509C92.8473 89.2832 89.0796 85.5236 85.3241 81.7559C84.8223 81.2521 84.3589 81.2136 83.853 81.7316C83.1468 82.454 82.4366 83.1723 81.7082 83.8725C81.1497 84.4087 81.1841 84.8741 81.7264 85.4143C85.4981 89.1679 89.2537 92.9356 93.0274 96.6891C93.2257 96.8874 93.5252 97.0654 93.7943 97.0938C94.2921 97.1464 97.0379 94.3075 97.0278 93.6478ZM78.3411 79.4876C78.9522 80.1877 79.4965 80.815 79.8709 81.244C80.4192 80.8494 80.8967 80.5054 81.2711 80.2343C80.6438 79.5402 80.0894 78.9271 79.6058 78.3909C79.1303 78.8037 78.7033 79.174 78.3411 79.4876Z" fill="#98C447"/>
<path d="M52.3924 5.56436C52.4329 5.77884 52.5644 6.02773 52.4976 6.20175C52.3095 6.70154 52.1557 7.38548 51.7712 7.59389C51.3847 7.80433 50.7008 7.6202 50.2091 7.44011C49.8631 7.31263 49.5636 6.94234 49.339 6.61656C48.5215 5.42878 47.4673 5.34785 46.1682 5.69791C39.6689 7.44213 35.2638 11.4547 33.5681 17.9621C31.8644 24.4979 33.6693 30.2142 38.6106 34.8823C38.8312 35.0908 39.078 35.2709 39.2966 35.4793C39.9926 36.145 40.0817 36.9038 39.5515 37.5392C39.0254 38.1685 38.1614 38.2919 37.4936 37.6343C36.1561 36.3129 34.7296 35.024 33.6652 33.4943C25.2153 21.3535 32.7223 4.54048 47.3884 2.61617C47.7546 2.5676 48.1411 2.35312 48.4284 2.1103C48.991 1.63074 49.4887 1.07429 50.0128 0.550209C50.5814 -0.0183851 51.233 -0.206567 51.921 0.275017C52.5988 0.750532 52.6919 1.41423 52.3418 2.15279C52.2852 2.27218 52.2427 2.39966 52.1759 2.56963C56.9493 3.20095 61.0731 5.13943 64.2924 8.68656C69.7072 14.6538 71.237 21.6003 68.4264 29.1357C65.6178 36.661 59.9379 40.8981 51.9392 41.9321C51.0407 42.0474 50.1241 42.0758 49.2156 42.0758C33.5701 42.0839 17.9247 42.0839 2.27927 42.0758C1.81387 42.0758 1.22909 42.1527 0.909382 41.9139C0.484455 41.5982 0.0595267 41.0276 0.00691664 40.5278C-0.0659281 39.852 0.443985 39.3481 1.18862 39.2632C1.55487 39.2207 1.92921 39.2409 2.2995 39.2409C18.0461 39.2409 33.7927 39.253 49.5393 39.2348C57.6575 39.2247 64.339 34.1337 66.3483 26.4971C68.8675 16.914 62.3823 6.99292 52.6332 5.52186C52.5725 5.50972 52.5057 5.5421 52.3924 5.56436Z" fill="#98C447"/>
<path d="M43.1409 33.2393C41.4372 33.2676 38.839 30.7181 38.9584 29.3016C39.0029 28.7735 39.3125 28.2353 39.6039 27.7638C40.221 26.7683 39.871 25.8982 38.7075 25.6898C37.0827 25.3964 36.4999 24.7225 36.4837 23.1038C36.4776 22.4643 36.4695 21.8229 36.4878 21.1815C36.5242 19.8359 37.2041 19.0669 38.5315 18.8444C39.96 18.6056 40.2898 17.7881 39.4481 16.5801C38.6933 15.4996 38.7318 14.504 39.6079 13.5571C40.134 12.9885 40.6844 12.4401 41.255 11.916C42.1433 11.0985 43.2036 11.0459 44.2012 11.7319C45.474 12.606 46.253 12.2964 46.5424 10.8072C46.7973 9.5 47.4853 8.86666 48.8086 8.80595C49.616 8.76751 50.4294 8.76144 51.2348 8.82012C52.4205 8.90915 53.1206 9.60927 53.3129 10.791C53.5537 12.2641 54.3974 12.6121 55.6399 11.7461C56.6658 11.0318 57.7321 11.1026 58.667 11.9666C59.0878 12.3551 59.4824 12.7719 59.8871 13.1766C61.2084 14.5061 61.2752 15.2122 60.2351 16.7966C59.6382 17.7052 60.0368 18.6319 61.1093 18.8262C62.8252 19.1398 63.3897 19.8116 63.4019 21.5639C63.4059 22.0698 63.4079 22.5756 63.4019 23.0815C63.3796 24.674 62.7544 25.4024 61.17 25.6837C59.9741 25.8961 59.618 26.8027 60.3282 27.8205C61.2327 29.1175 61.168 30.0159 60.0733 31.147C59.6038 31.6306 59.1344 32.1183 58.6366 32.5716C57.6937 33.4295 56.6577 33.474 55.6055 32.7355C54.3772 31.8714 53.5618 32.2336 53.3088 33.7512C53.1206 34.8763 52.4286 35.5805 51.2955 35.6654C50.4234 35.7302 49.5432 35.7302 48.669 35.6796C47.4509 35.6068 46.7892 34.9714 46.5504 33.7634C46.2328 32.1608 45.5306 31.8836 44.1709 32.778C43.7945 33.0309 43.3331 33.1563 43.1409 33.2393ZM42.805 30.1717C45.735 28.6946 47.9689 29.4999 49.2234 32.3692C49.3226 32.5938 49.703 32.8589 49.9175 32.8306C50.1927 32.7941 50.567 32.5331 50.6642 32.2782C51.253 30.7201 52.3214 29.6699 53.9664 29.5242C54.9822 29.4332 56.0365 29.761 57.2991 29.9309C57.6593 29.6962 57.8555 29.3198 57.463 28.5347C56.5302 26.663 57.3922 24.2976 59.2295 23.3243C59.6382 23.1078 60.0874 22.9682 60.4921 22.8043C60.7107 22.0293 60.5083 21.657 59.707 21.3798C57.5338 20.625 56.4533 18.0572 57.4529 15.9872C57.8535 15.1596 57.6613 14.7691 56.9774 14.4008C54.2538 15.6837 51.7143 14.935 50.82 12.4988C50.5104 11.655 50.1037 11.4668 49.3408 11.742C48.2259 14.9148 46.338 15.6878 42.7585 14.411C42.5238 14.6619 42.2769 14.9249 42.0462 15.1698C43.3615 17.8913 42.5986 20.5056 40.1684 21.3697C39.2862 21.6833 39.1911 22.1062 39.4096 22.8326C42.6047 24.0184 43.3493 25.8415 42.0948 29.3947C42.3174 29.6396 42.542 29.8844 42.805 30.1717Z" fill="#98C447"/>
<path d="M95.2229 42.0778C94.632 42.0778 94.2638 42.0778 93.8935 42.0778C84.023 42.0778 74.1526 42.0778 64.2821 42.0778C64.013 42.0778 63.7438 42.0818 63.4727 42.0758C62.3213 42.0515 61.6435 41.5153 61.6455 40.633C61.6496 39.7549 62.3153 39.2389 63.4869 39.2389C73.6265 39.2368 83.766 39.2368 93.9076 39.2368C94.2739 39.2368 94.6422 39.2368 95.1622 39.2368C94.9437 38.9009 94.7656 38.6784 94.6442 38.4295C94.3265 37.7799 94.4054 37.1668 94.9639 36.6933C95.5183 36.2239 96.1921 36.1713 96.7203 36.6549C97.8109 37.6545 98.857 38.7087 99.8627 39.7953C100.356 40.3295 100.308 41.0215 99.8202 41.5476C98.8813 42.5594 97.902 43.5347 96.9044 44.4877C96.2852 45.0806 95.5588 45.1413 94.9174 44.5343C94.3184 43.9677 94.3204 43.2919 94.7939 42.6201C94.883 42.4926 94.9882 42.3732 95.2229 42.0778Z" fill="#98C447"/>
<path d="M90.1445 59.0931C90.1445 63.575 90.1385 68.055 90.1466 72.537C90.1506 74.0687 89.7236 75.4588 88.8353 76.7013C88.2243 77.5592 87.4756 77.7615 86.7613 77.3022C86.0065 76.8166 86.0106 76.0902 86.4557 75.0906C86.8665 74.1679 87.2591 73.1359 87.2672 72.1485C87.3299 63.4233 87.3036 54.6961 87.3036 45.9709C87.3036 45.7018 87.2955 45.4306 87.3056 45.1615C87.344 44.17 87.9005 43.5326 88.722 43.5265C89.5496 43.5205 90.1283 44.1538 90.1385 45.1433C90.1546 46.9968 90.1445 48.8503 90.1445 50.7017C90.1445 53.5002 90.1445 56.2966 90.1445 59.0931Z" fill="#98C447"/>
<path d="M78.7828 21.0782C80.6707 21.0782 82.5585 21.06 84.4464 21.0823C87.773 21.1187 90.1182 23.4518 90.1384 26.7541C90.1587 29.8884 90.1465 33.0248 90.1405 36.1591C90.1384 37.3247 89.6204 38.0025 88.7463 38.0126C87.8661 38.0227 87.3076 37.3388 87.3056 36.1935C87.2975 33.126 87.3096 30.0584 87.2995 26.9908C87.2935 24.9835 86.2574 23.9313 84.2481 23.9232C80.4379 23.9091 76.6298 23.9313 72.8196 23.903C72.3461 23.899 71.7249 23.8079 71.4396 23.5064C71.1341 23.1847 70.9823 22.5372 71.0551 22.0778C71.1685 21.3615 71.8079 21.0884 72.51 21.0843C74.6023 21.0742 76.6925 21.0782 78.7828 21.0782Z" fill="#98C447"/>
<path d="M22.0103 23.9172C20.3268 23.9172 18.6432 23.9051 16.9597 23.9213C14.3049 23.9476 12.5971 25.625 12.5647 28.2758C12.5344 30.7667 12.5587 33.2596 12.5546 35.7525C12.5546 36.0884 12.5647 36.4303 12.5101 36.7602C12.3766 37.5756 11.8525 38.037 11.0451 37.9924C10.2944 37.95 9.78652 37.4886 9.74605 36.6974C9.69951 35.7565 9.71368 34.8136 9.71368 33.8706C9.7157 31.8492 9.66107 29.8278 9.74605 27.8104C9.90186 24.1074 12.7044 21.2321 16.3972 21.1147C20.0313 21.0014 23.6715 21.0702 27.3077 21.0864C28.3113 21.0904 28.9103 21.6813 28.9002 22.5332C28.8901 23.383 28.2952 23.9051 27.2652 23.9132C25.5129 23.9273 23.7626 23.9172 22.0103 23.9172Z" fill="#98C447"/>
<path d="M65.8649 52.1566C73.5095 52.1405 79.7135 58.3141 79.7236 65.9526C79.7337 73.5305 73.5621 79.7324 65.9782 79.7648C58.3173 79.7972 52.1013 73.6459 52.083 66.0154C52.0648 58.3545 58.2121 52.1728 65.8649 52.1566ZM65.8649 55.0037C59.7702 55.0259 54.8896 59.949 54.924 66.0396C54.9564 72.0595 59.8876 76.936 65.9236 76.9218C71.9616 76.9057 76.8503 72.019 76.8705 65.981C76.8907 59.9106 71.9454 54.9794 65.8649 55.0037Z" fill="#98C447"/>
<path d="M43.3614 22.2943C43.3472 18.6339 46.3116 15.6473 49.9417 15.6614C53.5374 15.6756 56.5018 18.6278 56.524 22.2154C56.5463 25.8516 53.5677 28.8342 49.9174 28.8281C46.2934 28.8261 43.3735 25.9164 43.3614 22.2943ZM49.9113 25.9851C51.9732 25.9932 53.6547 24.3482 53.6811 22.2984C53.7074 20.2264 51.9712 18.4882 49.8972 18.5084C47.8434 18.5287 46.1983 20.2001 46.2023 22.262C46.2043 24.338 47.8373 25.9771 49.9113 25.9851Z" fill="#98C447"/>
</svg>
