<svg width="99" height="100" viewBox="0 0 99 100" fill="none" xmlns="http://www.w3.org/2000/svg">
<path d="M40.7012 90.9346C40.1311 90.9346 39.7286 90.9346 39.3261 90.9346C28.1577 90.9346 16.9893 90.9387 5.8188 90.9305C2.7907 90.9285 0.71271 89.3756 0.124253 86.6969C0.0302634 86.2699 0.00574438 85.8203 0.00574438 85.381C-0.000385381 63.273 -0.00242863 41.1671 0.00370112 19.0591C0.00370112 15.7919 2.21654 13.5341 5.48779 13.4626C7.151 13.4258 8.81829 13.4565 10.6225 13.4565C10.6225 13.0581 10.6225 12.7311 10.6225 12.4022C10.6225 10.0524 10.6041 7.70065 10.6286 5.3509C10.6593 2.49444 12.6882 0.318373 15.5406 0.0466199C15.9799 0.00371156 16.4253 0.00166831 16.8667 0.00166831C41.9966 -0.000374944 67.1266 -0.0024182 92.2566 0.00779807C93.035 0.00779807 93.8381 0.0323171 94.5859 0.22234C96.9397 0.821013 98.4926 2.91739 98.4987 5.45307C98.513 12.2653 98.5048 19.0775 98.5048 25.8917C98.5048 41.0833 98.5048 56.2769 98.5048 71.4685C98.5048 75.3568 96.4064 77.4655 92.5201 77.4818C90.9959 77.4879 89.4716 77.4839 87.882 77.4839C87.882 80.138 87.886 82.6553 87.882 85.1726C87.8758 88.7279 85.7284 90.9121 82.1711 90.9305C78.0171 90.953 73.8632 90.9366 69.7093 90.9366C69.3394 90.9366 68.9696 90.9366 68.4895 90.9366C68.467 91.3637 68.4302 91.7212 68.4302 92.0788C68.4241 94.0894 68.4343 96.0979 68.4261 98.1085C68.42 99.5285 67.997 99.9903 66.626 99.9923C58.5899 100.003 50.5538 100.003 42.5177 99.9923C41.1426 99.9903 40.7155 99.5285 40.7114 98.1166C40.6951 95.7689 40.7012 93.4233 40.7012 90.9346ZM95.8363 19.7109C95.2704 19.7109 94.8352 19.7109 94.3979 19.7109C78.2582 19.7109 62.1165 19.7027 45.9769 19.7272C44.7244 19.7293 43.764 19.3533 42.9161 18.4257C41.3775 16.742 39.7491 15.1401 38.1901 13.4749C37.7405 12.9947 37.291 12.7679 36.6106 12.774C33.0022 12.8088 29.3918 12.7883 25.7814 12.7924C25.4545 12.7924 25.1275 12.8231 24.7414 12.8435C24.7414 14.0858 24.7414 15.2402 24.7414 16.3926C24.7414 18.914 23.9588 19.7088 21.4722 19.7088C19.1224 19.7109 16.7727 19.7088 14.4229 19.7088C14.0654 19.7088 13.7078 19.7088 13.291 19.7088C13.291 20.1665 13.291 20.4689 13.291 20.7713C13.291 37.7017 13.291 54.6301 13.291 71.5605C13.291 73.8816 14.2329 74.8092 16.6031 74.8092C24.6392 74.8133 32.6753 74.8113 40.7114 74.8092C41.0281 74.8092 41.3448 74.7806 41.6615 74.7643C41.5512 74.5211 41.4164 74.4374 41.2713 74.3822C38.7131 73.428 38.1676 71.963 39.4957 69.5724C43.8396 61.7488 48.1897 53.9292 52.5255 46.1036C52.9832 45.2761 53.541 44.6651 54.5626 44.6549C55.5986 44.6447 56.1421 45.2822 56.5936 46.1056C58.0505 48.7598 59.5277 51.4038 60.9968 54.0518C63.935 59.3479 66.8794 64.64 69.8094 69.9402C70.8882 71.8915 70.2262 73.571 68.1298 74.3046C67.8908 74.3883 67.6599 74.4925 67.427 74.5886C67.7743 74.7827 68.0931 74.8113 68.4098 74.8113C76.4111 74.8133 84.4146 74.8154 92.4159 74.8133C94.9516 74.8133 95.8384 73.9163 95.8384 71.3582C95.8384 54.5647 95.8384 37.7712 95.8384 20.9777C95.8363 20.6079 95.8363 20.238 95.8363 19.7109ZM10.6225 16.2741C10.4222 16.2108 10.3262 16.1556 10.2322 16.1556C8.80195 16.1454 7.37167 16.1372 5.94139 16.1413C3.62435 16.1495 2.66606 17.116 2.66606 19.4473C2.66402 41.2815 2.66402 63.1177 2.66606 84.952C2.66606 87.3528 3.58757 88.2682 6.00882 88.2682C17.1772 88.2702 28.3457 88.2682 39.5161 88.2682C39.8778 88.2682 40.2415 88.2682 40.503 88.2682C40.6236 88.1149 40.6624 88.0883 40.6624 88.0618C40.6787 86.6315 40.6726 85.2012 40.7114 83.773C40.7605 81.9361 41.8434 80.8736 43.6639 80.8368C44.2646 80.8246 44.8674 80.8348 45.5805 80.8348C45.5233 80.2239 45.509 79.7539 45.4293 79.2942C45.1187 77.5084 45.1105 77.5104 43.2941 77.5104C34.4407 77.5104 25.5873 77.5145 16.7339 77.5084C12.7168 77.5063 10.6266 75.412 10.6266 71.4052C10.6266 53.4205 10.6266 35.4337 10.6266 17.449C10.6225 17.0506 10.6225 16.6521 10.6225 16.2741ZM21.9462 17.0117C22.0095 16.8646 22.0565 16.8054 22.0586 16.7441C22.0708 15.5181 22.077 14.2942 22.0831 13.0683C22.0954 11.0352 22.9862 10.1239 24.9988 10.1199C29.0506 10.1117 33.1003 10.1342 37.1521 10.1056C38.1798 10.0974 38.9828 10.4304 39.6837 11.1762C41.3162 12.913 43.004 14.5966 44.6283 16.3395C45.1105 16.8565 45.603 17.0608 46.3099 17.0587C62.4455 17.0404 78.5811 17.0444 94.7166 17.0444C95.0742 17.0444 95.4297 17.0444 95.8363 17.0444C95.8363 13.2011 95.8404 9.52323 95.8343 5.84741C95.8323 3.70813 94.8556 2.71102 92.7306 2.69876C90.4503 2.68446 88.1701 2.69468 85.8877 2.69468C62.9093 2.69468 39.9309 2.69468 16.9545 2.69468C14.0572 2.69468 13.2889 3.47316 13.2889 6.40727C13.2889 9.57431 13.2889 12.7413 13.2889 15.9084C13.2889 16.266 13.2889 16.6235 13.2889 17.0117C16.268 17.0117 19.0856 17.0117 21.9462 17.0117ZM67.6578 71.6095C63.79 64.6298 59.9773 57.7481 56.1441 50.8296C56.0174 50.9706 55.9418 51.0135 55.9398 51.0605C55.9214 52.7278 55.9398 54.3951 55.8846 56.0624C55.8601 56.8102 56.0399 57.2638 56.7591 57.6664C58.3345 58.549 59.0312 60.4493 58.5838 62.1676C58.122 63.9351 56.5548 65.206 54.7302 65.2918C52.9893 65.3735 51.4058 64.3805 50.7622 62.801C50.0532 61.0602 50.3964 58.927 51.9105 58.028C53.1937 57.2659 53.2958 56.328 53.2304 55.1021C53.1691 53.9476 53.2223 52.7871 53.212 51.6306C53.21 51.3874 53.1508 51.1463 53.0813 50.6396C49.1337 57.7563 45.323 64.6298 41.5001 71.5237C45.8992 73.1358 48.1427 76.1721 48.2899 80.7776C52.4846 80.7776 56.6508 80.7776 60.8416 80.7776C61.0234 76.1741 63.2199 73.1072 67.6578 71.6095ZM43.4616 83.536C43.4616 88.1639 43.4616 92.6754 43.4616 97.2033C50.897 97.2033 58.2834 97.2033 65.682 97.2033C65.682 92.5998 65.682 88.0904 65.682 83.536C58.2814 83.536 50.9502 83.536 43.4616 83.536ZM63.5938 80.8225C64.1067 80.8225 64.5092 80.8225 64.9097 80.8225C67.4699 80.8287 68.4179 81.7706 68.422 84.3206C68.4241 85.6017 68.422 86.8808 68.422 88.2252C73.3381 88.2252 78.1254 88.2538 82.9128 88.2048C84.0917 88.1926 85.1338 87.1505 85.1665 85.9429C85.2421 83.1641 85.191 80.3812 85.191 77.4839C84.7211 77.4839 84.3206 77.4839 83.9201 77.4839C78.0028 77.4839 72.0856 77.4839 66.1683 77.4839C64.0127 77.4839 63.8104 77.6678 63.5999 79.8459C63.5713 80.1115 63.5938 80.3832 63.5938 80.8225ZM54.5116 62.611C55.3186 62.6294 55.995 61.9735 56.0174 61.1542C56.0399 60.3369 55.3881 59.6442 54.5872 59.634C53.7821 59.6238 53.1201 60.2797 53.1038 61.1072C53.0833 62.0021 53.635 62.5906 54.5116 62.611Z" fill="#98C447"/>
<path d="M48.9825 34.0852C48.9825 33.3312 48.958 32.6896 48.9866 32.0521C49.0561 30.5197 49.9388 29.5103 51.4488 29.4531C53.5227 29.3734 55.6027 29.3734 57.6766 29.4552C59.1784 29.5165 60.0631 30.5524 60.1183 32.0726C60.1408 32.6815 60.1224 33.2924 60.1224 34.0116C60.5044 34.0382 60.8273 34.0811 61.1501 34.0811C66.6996 34.0852 72.2491 34.0729 77.8006 34.0974C78.4667 34.0995 78.7916 33.9524 79.0286 33.2618C79.8377 30.9038 82.1568 29.5165 84.5535 29.8434C87.2445 30.2091 89.0834 32.0951 89.2714 34.6777C89.4512 37.1582 87.9617 39.318 85.5793 40.029C83.113 40.7666 80.6141 39.7716 79.4127 37.4913C79.1124 36.9192 78.7895 36.7414 78.1643 36.7475C74.5559 36.7782 70.9455 36.7618 67.3371 36.7618C67.1103 36.7618 66.8855 36.7618 66.3461 36.7618C66.8058 37.0642 67.002 37.2093 67.2145 37.3299C73.6528 40.973 77.9518 46.3263 79.9971 53.443C80.2259 54.2419 80.5692 54.4891 81.3354 54.4053C81.7706 54.3583 82.2222 54.3931 82.6594 54.4401C84.0468 54.5872 84.9806 55.5414 85.0071 56.9349C85.046 58.9781 85.05 61.0234 85.0051 63.0646C84.9744 64.4847 83.9569 65.5125 82.5368 65.5452C80.4609 65.5921 78.3829 65.5881 76.307 65.5411C75.0381 65.5125 74.0063 64.6788 73.9429 63.4324C73.8285 61.1583 73.8305 58.8739 73.9286 56.5998C73.9818 55.3759 74.9339 54.5954 76.1537 54.4442C76.5542 54.3951 76.9567 54.3767 77.3633 54.342C75.8656 46.7574 68.3321 39.1034 60.2552 37.5689C60.2123 37.8652 60.1796 38.1615 60.1244 38.4537C59.8792 39.7409 58.9087 40.5582 57.5193 40.5827C55.8847 40.6113 54.2501 40.5909 52.6155 40.5909C49.9837 40.5909 49.3708 40.0903 48.9233 37.5751C41.4246 38.9461 33.6295 46.0566 31.8049 54.3277C32.1094 54.3522 32.4036 54.3788 32.6999 54.3972C34.5143 54.5095 35.4256 55.4208 35.4603 57.2557C35.495 59.0946 35.4991 60.9356 35.4583 62.7725C35.4174 64.5828 34.4387 65.539 32.6508 65.5615C30.7792 65.584 28.9055 65.586 27.0339 65.5594C25.3155 65.5349 24.3246 64.5297 24.3041 62.8072C24.2837 60.9335 24.2837 59.0599 24.3041 57.1882C24.3225 55.4617 25.2767 54.4993 27.0155 54.4012C28.8769 54.295 28.8647 54.2909 29.4613 52.4969C31.6844 45.7992 35.8955 40.7482 42.0457 37.3053C42.2214 37.2073 42.3971 37.1051 42.5688 36.9989C42.5913 36.9846 42.5974 36.9396 42.6505 36.8129C42.3726 36.7945 42.1254 36.7618 41.8802 36.7618C38.3045 36.7578 34.7309 36.7741 31.1552 36.7475C30.5115 36.7435 30.1376 36.8763 29.8291 37.526C28.8381 39.6183 26.3086 40.6931 23.9466 40.1312C21.6173 39.5774 19.9377 37.3973 19.9602 34.9577C19.9827 32.5098 21.6275 30.4543 23.9711 29.9496C26.47 29.4102 28.9566 30.4482 29.8332 32.6958C30.3174 33.9381 30.9856 34.1158 32.14 34.1036C37.3483 34.0484 42.5586 34.0791 47.7689 34.0791C48.1285 34.0852 48.4942 34.0852 48.9825 34.0852ZM51.6899 32.1625C51.6899 34.1587 51.6899 36.0406 51.6899 37.8897C53.7249 37.8897 55.6354 37.8897 57.4784 37.8897C57.4784 35.9262 57.4784 34.0709 57.4784 32.1625C55.4821 32.1625 53.5983 32.1625 51.6899 32.1625ZM26.9788 57.1515C26.9788 59.1252 26.9788 61.0336 26.9788 62.8705C29.0077 62.8705 30.8916 62.8705 32.7285 62.8705C32.7285 60.8886 32.7285 59.0374 32.7285 57.1515C30.722 57.1515 28.8361 57.1515 26.9788 57.1515ZM82.2651 62.9237C82.2651 60.9008 82.2651 59.0292 82.2651 57.1535C80.275 57.1535 78.3911 57.1535 76.4868 57.1535C76.4868 59.1028 76.4868 60.9846 76.4868 62.9237C78.4401 62.9237 80.326 62.9237 82.2651 62.9237ZM25.2073 37.5812C26.7417 37.571 27.7675 36.5473 27.7675 35.0251C27.7675 33.5907 26.613 32.4281 25.1889 32.4261C23.7647 32.424 22.6164 33.5825 22.6185 35.021C22.6225 36.4697 23.7545 37.5894 25.2073 37.5812ZM86.4967 35.0598C86.513 33.5887 85.4219 32.4445 83.9814 32.424C82.5695 32.4056 81.3722 33.5703 81.3538 34.9801C81.3334 36.3818 82.5103 37.5689 83.9283 37.5791C85.4812 37.5934 86.4803 36.6127 86.4967 35.0598Z" fill="#98C447"/>
<path d="M76.1985 9.7868C76.2209 7.71085 77.9352 6.03539 79.9948 6.07421C82.0565 6.11303 83.7381 7.85388 83.6972 9.90326C83.6563 11.9751 81.94 13.6383 79.8784 13.6077C77.8004 13.575 76.176 11.8893 76.1985 9.7868ZM80.2012 8.63236C80.048 8.62827 79.8947 8.62215 79.7415 8.61806C79.4513 9.0308 78.9364 9.44558 78.9405 9.85627C78.9446 10.222 79.4697 10.788 79.8641 10.8922C80.4893 11.0597 81.0308 10.5816 80.9552 9.92574C80.902 9.47214 80.4668 9.06144 80.2012 8.63236Z" fill="#98C447"/>
<path d="M74.603 9.85831C74.5969 11.9383 72.9194 13.6138 70.8455 13.6077C68.79 13.6015 67.0797 11.8811 67.0879 9.83174C67.0981 7.78032 68.8247 6.06399 70.87 6.0742C72.9337 6.08442 74.6071 7.78032 74.603 9.85831ZM71.062 8.6201C70.9108 8.62214 70.7596 8.62418 70.6084 8.62827C70.3326 9.05531 69.83 9.49257 69.8504 9.90326C69.8688 10.267 70.4286 10.8105 70.8312 10.8963C71.4564 11.0291 71.9897 10.5285 71.8896 9.87874C71.8181 9.42718 71.3522 9.03692 71.062 8.6201Z" fill="#98C447"/>
<path d="M92.7698 9.85425C92.7657 11.9139 91.0596 13.6118 88.998 13.6077C86.9465 13.6036 85.2322 11.8832 85.2363 9.83586C85.2404 7.79261 86.9731 6.06811 89.0143 6.07424C91.0657 6.08036 92.7739 7.80078 92.7698 9.85425ZM88.7712 11.1047C88.9244 11.1047 89.0756 11.1068 89.2289 11.1068C89.517 10.6838 89.9889 10.2854 90.0502 9.83178C90.1361 9.18611 89.5905 8.68756 88.9673 8.82854C88.5607 8.92049 88.0029 9.47216 87.9866 9.83995C87.9661 10.2486 88.4851 10.6818 88.7712 11.1047Z" fill="#98C447"/>
</svg>
