<svg width="100" height="100" viewBox="0 0 100 100" fill="none" xmlns="http://www.w3.org/2000/svg">
<path d="M3.33914 63.2999C34.5017 63.2999 65.4996 63.2999 96.6517 63.2999C96.6517 62.9125 96.6517 62.5458 96.6517 62.1813C96.6517 46.6979 96.6517 31.2125 96.6517 15.7291C96.6517 13.794 96.1955 13.3399 94.2666 13.3378C93.398 13.3357 92.5294 13.3607 91.6628 13.3295C90.5796 13.2899 89.9589 12.6441 89.9755 11.6339C89.9922 10.6673 90.5942 10.0403 91.6295 10.0132C92.8772 9.97991 94.1333 9.95075 95.3769 10.0257C97.8432 10.1736 99.8451 12.2525 99.9825 14.7251C100.001 15.0709 99.993 15.4188 99.993 15.7666C99.993 35.2432 99.993 54.7198 99.993 74.1964C99.993 78.0729 98.0578 79.9977 94.1562 79.9977C64.7164 79.9977 35.2745 79.9977 5.83464 79.9977C1.93516 79.9956 0 78.0709 0 74.1922C0 54.7156 0 35.2391 0 15.7625C0 11.9463 1.94557 10.0007 5.76382 9.99866C6.5283 9.99866 7.2907 9.99033 8.05518 10.0007C9.34042 10.0174 10.0008 10.5757 10.0153 11.6422C10.0299 12.7504 9.35501 13.3253 8.00519 13.3378C7.17196 13.3461 6.33874 13.3357 5.50552 13.3399C3.86615 13.3482 3.34122 13.8752 3.34122 15.5354C3.33914 27.3401 3.33914 39.1427 3.33914 50.9474C3.33914 54.6615 3.33914 58.3776 3.33914 62.0917C3.33914 62.4646 3.33914 62.8375 3.33914 63.2999ZM3.33914 66.7015C3.33914 69.222 3.33914 71.6446 3.33914 74.0693C3.33914 76.2669 3.72867 76.6502 5.95129 76.6502C35.3078 76.6502 64.6643 76.6502 94.0208 76.6502C94.2979 76.6502 94.577 76.6585 94.854 76.646C96.031 76.5961 96.6246 76.0107 96.6434 74.813C96.6684 73.3215 96.6497 71.8279 96.6497 70.3365C96.6497 69.1345 96.6497 67.9347 96.6497 66.6995C65.508 66.7015 34.4954 66.7015 3.33914 66.7015Z" fill="#98C447"/>
<path d="M83.3186 16.7228C61.0819 16.7228 38.9495 16.7228 16.6712 16.7228C16.6712 17.1311 16.6712 17.531 16.6712 17.933C16.6712 31.1229 16.6712 44.3149 16.6712 57.5049C16.6712 59.263 16.1942 59.9774 15.0193 59.9899C13.8465 60.0024 13.332 59.2567 13.332 57.5403C13.332 40.2197 13.332 22.897 13.332 5.57634C13.332 2.03515 15.3484 0.00208306 18.8625 0.00208306C39.6202 0 60.3779 0 81.1355 0C84.6017 0 86.6556 2.03515 86.6577 5.48052C86.6619 22.9053 86.6598 40.3321 86.6577 57.7569C86.6577 59.3463 86.0869 60.0733 84.8871 60.0045C84.006 59.9524 83.4748 59.4713 83.3436 58.6026C83.2873 58.2277 83.3186 57.8402 83.3186 57.459C83.3186 44.3024 83.3186 31.1479 83.3186 17.9914C83.3186 17.5831 83.3186 17.1748 83.3186 16.7228ZM83.3186 13.2878C83.3186 10.7527 83.3186 8.29473 83.3186 5.83881C83.3186 3.762 82.8999 3.34122 80.8335 3.34122C60.2591 3.34122 39.6827 3.34122 19.1083 3.34122C18.7959 3.34122 18.4813 3.32039 18.1731 3.35997C17.3544 3.46204 16.7378 3.93281 16.7212 4.7452C16.6628 7.57816 16.6983 10.4111 16.6983 13.2878C38.912 13.2878 61.0382 13.2878 83.3186 13.2878Z" fill="#98C447"/>
<path d="M39.3741 89.9526C46.4669 89.9526 53.5347 89.9526 60.7004 89.9526C59.9526 88.8736 59.2423 87.8696 58.5611 86.8489C58.3132 86.476 58.1091 86.0677 57.9258 85.6573C57.5217 84.7491 57.7987 83.8368 58.582 83.4076C59.4173 82.9494 60.2838 83.2827 60.8962 84.1409C62.0565 85.7698 63.2709 87.3634 64.4895 88.9507C65.1207 89.7735 65.956 90.0922 67.0288 90.0172C67.9141 89.9547 68.8473 90.0026 69.7055 90.2192C71.7385 90.7296 73.2217 92.6148 73.3154 94.6895C73.3675 95.8664 73.3529 97.0496 73.3238 98.2286C73.2946 99.3326 72.6676 99.9367 71.5552 99.9888C71.1053 100.01 70.6533 99.995 70.2013 99.995C56.5239 99.995 42.8466 99.995 29.1692 99.995C27.1195 99.995 26.6675 99.543 26.6675 97.4912C26.6675 96.6226 26.6487 95.7539 26.6758 94.8874C26.7591 92.169 28.9359 89.8047 31.623 90.0609C34.1102 90.2963 35.6267 89.1902 36.939 87.4279C37.6806 86.4302 38.3555 85.3782 39.0033 84.3159C39.6053 83.3264 40.4469 82.9431 41.3301 83.3618C42.23 83.7888 42.557 84.82 41.9696 85.8427C41.178 87.2176 40.2781 88.5299 39.3741 89.9526ZM69.9242 96.6184C70.1742 93.7459 69.7971 93.3272 67.0662 93.3272C55.5511 93.3272 44.036 93.3272 32.5208 93.3272C32.2084 93.3272 31.8938 93.3105 31.5856 93.3397C30.6628 93.4251 30.1232 93.95 30.0295 94.8603C29.9712 95.431 30.0191 96.0101 30.0191 96.6184C43.3798 96.6184 56.6176 96.6184 69.9242 96.6184Z" fill="#98C447"/>
<path d="M56.7026 24.9779C56.6318 25.2425 56.5735 25.5133 56.4881 25.7736C53.2177 35.5973 49.9494 45.421 46.6685 55.2426C46.2311 56.5508 45.25 57.0091 44.2001 56.4529C43.3856 56.0196 43.144 55.3093 43.5044 54.2219C44.9625 49.8163 46.4332 45.4148 47.8996 41.0112C49.6598 35.7202 51.42 30.4293 53.1843 25.1404C53.3052 24.78 53.4156 24.403 53.6155 24.0864C54.0592 23.3865 54.7841 23.0802 55.4986 23.4281C56.0444 23.6927 56.4235 24.3009 56.8755 24.7571C56.8172 24.83 56.7589 24.905 56.7026 24.9779Z" fill="#98C447"/>
<path d="M29.2798 39.9989C32.0586 42.3131 34.7249 44.5212 37.3766 46.7521C37.7391 47.0563 38.1265 47.4166 38.3015 47.8374C38.614 48.5936 38.3328 49.281 37.6724 49.7517C36.9496 50.2683 36.2372 50.1392 35.579 49.5893C33.4209 47.7916 31.2629 45.9939 29.1048 44.1962C28.0383 43.3088 26.9676 42.4256 25.9094 41.532C24.6992 40.5092 24.6783 39.5031 25.8657 38.5074C29.0007 35.8786 32.144 33.2581 35.2894 30.6397C36.2997 29.7981 37.2829 29.7836 37.9432 30.5751C38.6161 31.3813 38.4452 32.3499 37.4495 33.1831C34.7666 35.4286 32.0773 37.6658 29.2798 39.9989Z" fill="#98C447"/>
<path d="M70.7053 39.9947C68.3389 38.0179 66.058 36.1098 63.775 34.2017C63.2688 33.7788 62.7439 33.3789 62.2585 32.9331C61.5273 32.2582 61.4503 31.3167 62.0294 30.6084C62.6105 29.8981 63.5917 29.7356 64.3541 30.3626C67.7036 33.1185 71.0365 35.891 74.3402 38.7011C75.3338 39.5468 75.2089 40.5946 74.1028 41.5236C71.1511 43.9983 68.189 46.4584 65.231 48.9227C64.9644 49.1455 64.704 49.3747 64.427 49.583C63.5562 50.2391 62.6584 50.1787 62.0231 49.4351C61.3732 48.6727 61.4794 47.7061 62.346 46.9771C64.8686 44.8565 67.4057 42.7526 69.9387 40.6425C70.1533 40.4654 70.3616 40.2842 70.7053 39.9947Z" fill="#98C447"/>
<path d="M50.1706 73.3236C49.0624 73.3236 47.9563 73.3423 46.8481 73.3173C45.7524 73.2944 45.0734 72.6716 45.0421 71.7175C45.0088 70.7448 45.7399 70.0115 46.8481 69.999C48.9937 69.974 51.1392 69.9761 53.2848 69.999C54.4242 70.0115 55.1304 70.6864 55.1304 71.6738C55.1304 72.682 54.445 73.3048 53.2848 73.3194C52.2474 73.334 51.21 73.3236 50.1706 73.3236Z" fill="#98C447"/>
<path d="M68.287 10.0049C65.0937 10.0049 61.9003 10.0091 58.7049 10.0028C57.3259 10.0008 56.6531 9.45708 56.6427 8.36347C56.6323 7.26779 57.3259 6.66995 58.6674 6.66786C65.0895 6.66162 71.5115 6.66162 77.9336 6.66786C79.2522 6.66995 79.9854 7.29903 79.9625 8.36764C79.9396 9.39458 79.2251 9.99867 77.9711 10.0008C74.7424 10.0112 71.5136 10.0049 68.287 10.0049Z" fill="#98C447"/>
<path d="M21.6994 6.67204C22.5993 6.69079 23.3325 7.44069 23.3283 8.33848C23.3242 9.27378 22.5118 10.0424 21.5827 9.99451C20.687 9.9466 19.9746 9.16754 20.0059 8.27391C20.0392 7.37195 20.7995 6.65537 21.6994 6.67204Z" fill="#98C447"/>
<path d="M28.3612 9.99448C27.4676 10.0111 26.7011 9.28416 26.6719 8.38636C26.6406 7.48857 27.351 6.71575 28.2508 6.67201C29.1882 6.62618 29.9923 7.38858 29.9944 8.32804C29.9965 9.22375 29.257 9.97782 28.3612 9.99448Z" fill="#98C447"/>
<path d="M34.9993 6.67203C35.8992 6.67203 36.645 7.40735 36.6595 8.30723C36.6741 9.24252 35.8763 10.0257 34.9452 9.9945C34.0495 9.96534 33.3225 9.19877 33.3391 8.30514C33.3537 7.40318 34.0974 6.67203 34.9993 6.67203Z" fill="#98C447"/>
</svg>
