<svg width="35" height="60" viewBox="0 0 35 60" fill="none" xmlns="http://www.w3.org/2000/svg">
<path d="M25.1523 39.3753C24.8403 40.1776 24.5071 40.8815 24.2913 41.6205C24.0074 42.5919 23.4701 42.9649 22.4237 42.9485C18.7872 42.8875 15.1482 42.8945 11.5093 42.9461C10.5216 42.9602 9.97727 42.6388 9.71449 41.6933C9.54088 41.0692 9.2523 40.478 8.95903 39.7319C6.53543 41.9115 5.25911 44.5345 4.69368 47.5775C4.59983 48.0843 4.20802 48.5347 3.95229 49.0086C3.47367 48.6896 2.83551 48.4761 2.53755 48.035C-1.56591 41.9772 -0.611019 33.8524 4.81099 28.8081C5.5078 28.1582 5.65561 27.5904 5.50077 26.6801C4.52476 20.9226 4.51772 15.2308 6.99293 9.77592C8.86283 5.65604 11.7744 2.49105 15.7817 0.341957C16.6263 -0.110854 17.356 -0.117893 18.2006 0.344303C24.066 3.54918 27.3436 8.57468 28.6106 15.0267C29.359 18.8415 29.1385 22.6611 28.5097 26.4596C28.3713 27.2972 28.5074 27.7922 29.1525 28.3623C34.7341 33.2963 35.9611 41.3906 32.104 47.5329C31.8765 47.8966 31.6489 48.2743 31.3533 48.5793C30.7386 49.2128 29.9854 49.0368 29.7461 48.1828C29.5467 47.4719 29.4974 46.7188 29.3144 46.0009C28.6481 43.3825 27.2897 41.2006 25.1523 39.3753ZM16.9712 9.37942C14.7048 9.37942 12.4384 9.40757 10.172 9.363C9.47284 9.34892 9.1303 9.607 8.84406 10.2194C7.5349 13.0254 6.90612 15.9839 6.80993 19.0574C6.70201 22.5039 7.1032 25.8824 8.12144 29.2046C9.23587 32.8505 10.1884 36.5458 11.1879 40.2269C11.3639 40.8698 11.704 41.0598 12.3586 41.0528C15.4462 41.0176 18.5338 41.0176 21.619 41.0528C22.2783 41.0598 22.5692 40.844 22.7968 40.2316C24.9459 34.4272 26.6374 28.5148 27.1067 22.3115C27.4117 18.2832 26.919 14.3721 25.3212 10.6182C24.9341 9.71023 24.4625 9.30904 23.4208 9.35361C21.2741 9.44511 19.1203 9.37942 16.9712 9.37942ZM28.0334 29.953C27.346 32.3532 26.6586 34.6571 26.0533 36.9845C25.9782 37.2754 26.2409 37.7775 26.5014 38.0121C28.3079 39.6263 29.6945 41.522 30.5861 43.7767C30.7597 44.2131 30.9309 44.6495 31.1351 45.1656C33.7346 40.5061 32.2917 33.4559 28.0334 29.953ZM3.2109 45.2993C3.38452 44.8817 3.49713 44.5134 3.68248 44.1873C4.50599 42.735 5.06203 40.9636 6.25623 39.929C8.20825 38.235 8.22467 36.6068 7.31436 34.4788C6.74658 33.1532 6.52135 31.6845 6.12719 30.2181C2.00966 33.6529 0.681724 40.5859 3.2109 45.2993ZM23.4725 7.4931C21.8067 5.1915 19.9626 3.54448 17.7431 2.32447C17.4709 2.17432 17.0205 2.05466 16.7835 2.17667C14.3975 3.39433 12.4548 5.12581 10.728 7.4931C14.6508 7.4931 18.3085 7.4931 21.9639 7.4931C22.3815 7.4931 22.7991 7.4931 23.4725 7.4931Z" fill="#98C447"/>
<path d="M18.0528 55.4653C18.0528 56.5985 18.0528 57.7341 18.0528 58.8673C18.0528 59.5359 17.8228 60.1436 17.0767 59.97C16.7107 59.8832 16.2227 59.2778 16.2087 58.8907C16.1265 56.6243 16.1242 54.3532 16.211 52.0892C16.2251 51.702 16.7882 51.3337 17.0979 50.9583C17.4146 51.3267 17.9636 51.6692 18.0082 52.0681C18.1325 53.1872 18.0528 54.3321 18.0528 55.4653Z" fill="#98C447"/>
<path d="M11.4324 51.2305C11.4324 50.1372 11.3526 49.0321 11.477 47.9529C11.5216 47.5564 12.0542 47.2162 12.3639 46.8525C12.6806 47.2209 13.2554 47.5799 13.2718 47.9623C13.3586 50.1865 13.3211 52.4153 13.3117 54.6418C13.3094 55.3035 13.0255 55.9135 12.3075 55.7516C11.9486 55.6718 11.5145 55.043 11.4723 54.6278C11.355 53.5063 11.4324 52.3637 11.4324 51.2305Z" fill="#98C447"/>
<path d="M20.9059 51.2211C20.9059 50.1654 20.8988 49.1119 20.9082 48.0561C20.9152 47.4086 21.1076 46.8549 21.8795 46.8619C22.6678 46.869 22.7945 47.4414 22.7922 48.0866C22.7875 50.2357 22.7875 52.3848 22.7922 54.5339C22.7945 55.1744 22.6796 55.7704 21.9053 55.7891C21.0701 55.8103 20.9059 55.1909 20.9059 54.5034C20.9035 53.4101 20.9059 52.3168 20.9059 51.2211Z" fill="#98C447"/>
<path d="M17.0857 26.2695C14.4017 26.2601 12.2549 24.0852 12.2925 21.4176C12.33 18.7946 14.465 16.6643 17.074 16.6408C19.7181 16.6174 21.9188 18.8063 21.9259 21.4669C21.9329 24.1392 19.7768 26.2789 17.0857 26.2695ZM20.0302 21.481C20.0349 19.8832 18.7351 18.5529 17.1491 18.5271C15.5255 18.5013 14.1647 19.8785 14.1905 21.5209C14.2163 23.1468 15.495 24.3902 17.1303 24.3808C18.7609 24.3715 20.0255 23.1069 20.0302 21.481Z" fill="#98C447"/>
</svg>
